<svg xmlns="http://www.w3.org/2000/svg" xmlns:xlink="http://www.w3.org/1999/xlink" width="500" zoomAndPan="magnify" viewBox="0 0 375 374.999991" height="500" preserveAspectRatio="xMidYMid meet" version="1.0"><defs><clipPath id="fd95b45721"><path d="M 17.726562 0 L 357 0 L 357 375 L 17.726562 375 Z M 17.726562 0 " clip-rule="nonzero"/></clipPath><clipPath id="5a71e9f7fa"><path d="M 17.726562 0 L 357 0 L 357 375 L 17.726562 375 Z M 17.726562 0 " clip-rule="nonzero"/></clipPath></defs><g clip-path="url(#fd95b45721)"><path fill="#232136" d="M 356.082031 325.496094 C 353.570312 331.046875 342.769531 333.671875 327.890625 332.351562 C 311.632812 330.910156 300.84375 332.582031 298.292969 336.941406 C 297.148438 338.894531 297.644531 341.453125 299.761719 344.546875 C 304.011719 350.761719 305.328125 354.734375 303.902344 357.050781 C 301.929688 360.257812 295.304688 359.371094 287.632812 358.34375 C 285.761719 358.09375 283.824219 357.832031 281.917969 357.628906 C 274.988281 356.890625 268.394531 361.566406 262.015625 366.089844 C 255.984375 370.367188 249.761719 374.78125 243.097656 374.78125 C 242.503906 374.78125 241.910156 374.746094 241.308594 374.671875 C 233.410156 373.710938 228.308594 370.894531 226.9375 366.738281 C 226.058594 364.082031 226.351562 359.65625 232.703125 353.636719 C 235.015625 351.445312 236.796875 349.066406 238.019531 346.585938 L 215.828125 359.496094 C 213.878906 360.632812 211.6875 361.199219 209.5 361.199219 C 207.324219 361.199219 205.152344 360.640625 203.210938 359.519531 L 21.78125 254.769531 C 19.28125 253.328125 17.726562 250.636719 17.726562 247.75 L 17.726562 232.460938 C 17.726562 229.53125 19.242188 226.90625 21.78125 225.441406 L 142.671875 155.644531 L 142.671875 16.050781 C 142.671875 13.207031 144.105469 10.660156 146.507812 9.171875 C 146.53125 9.15625 146.546875 9.136719 146.570312 9.121094 L 146.644531 9.082031 C 146.671875 9.066406 146.695312 9.046875 146.726562 9.03125 C 146.808594 8.980469 146.898438 8.949219 146.984375 8.902344 L 160.714844 1.558594 C 163.203125 0.226562 166.148438 0.273438 168.589844 1.683594 L 349.523438 106.148438 C 351.457031 107.261719 353.023438 108.855469 354.109375 110.726562 C 354.113281 110.738281 354.125 110.742188 354.128906 110.75 C 354.136719 110.761719 354.136719 110.773438 354.140625 110.78125 C 355.21875 112.660156 355.816406 114.8125 355.816406 117.042969 L 355.816406 256.152344 C 355.816406 260.628906 353.40625 264.804688 349.523438 267.046875 L 342.574219 271.058594 L 342.574219 278.503906 C 342.574219 282.96875 340.179688 287.132812 336.320312 289.378906 L 324.46875 296.273438 C 325.183594 299.691406 325.730469 303.847656 326.109375 309.058594 C 326.535156 314.933594 332.554688 314.773438 339.523438 314.59375 C 344.871094 314.457031 350.402344 314.3125 353.484375 317.25 C 356.335938 319.964844 357.257812 322.894531 356.082031 325.496094 Z M 356.082031 325.496094 " fill-opacity="1" fill-rule="nonzero"/></g><path fill="#c4a7e7" d="M 352.585938 318.195312 C 349.894531 315.632812 344.640625 315.769531 339.558594 315.898438 C 332.558594 316.082031 325.324219 316.269531 324.808594 309.152344 C 323.414062 289.910156 319.828125 285.496094 314.085938 279.890625 C 304.324219 270.347656 286.734375 260 280.269531 264.816406 C 277.390625 266.964844 278.519531 271.125 279.613281 275.148438 C 280.523438 278.492188 281.378906 281.648438 279.90625 283.660156 C 279.058594 284.8125 277.578125 285.414062 275.375 285.5 C 272.082031 285.628906 269.84375 285.035156 268.328125 283.628906 C 265.960938 281.433594 265.828125 277.644531 265.652344 272.847656 C 265.566406 270.4375 265.46875 267.703125 265.0625 264.832031 C 263.417969 253.195312 239.664062 237.308594 228.941406 238.386719 C 226.734375 238.609375 225.367188 239.15625 224.761719 240.0625 C 223.921875 241.320312 224.542969 243.378906 225.199219 245.558594 C 226.113281 248.585938 227.148438 252.019531 224.769531 254.703125 C 222.359375 257.421875 219.941406 257.699219 217.8125 257.945312 C 215.214844 258.246094 212.972656 258.503906 210.542969 262.644531 C 209.113281 265.082031 208.726562 267.339844 209.367188 269.554688 C 210.996094 275.164062 218.984375 279.277344 225.402344 282.578125 C 230.71875 285.316406 234.5625 287.292969 234.355469 289.660156 C 234.222656 291.203125 232.433594 292.429688 228.558594 293.640625 C 217.890625 296.976562 210.4375 289.710938 203.863281 283.300781 C 199.511719 279.058594 195.402344 275.050781 191.117188 275.050781 C 191.058594 275.050781 190.996094 275.054688 190.9375 275.054688 C 188.46875 275.121094 186.023438 276.503906 183.457031 279.289062 C 180.273438 282.742188 179.015625 285.820312 179.609375 288.691406 C 181 295.398438 192.625 300.558594 204.933594 306.027344 C 210.84375 308.652344 216.953125 311.363281 222.554688 314.46875 C 233.675781 320.640625 240.097656 328.183594 241.125 336.28125 C 241.9375 342.714844 239.265625 349.214844 233.601562 354.582031 C 228.964844 358.976562 227.089844 363.035156 228.175781 366.328125 C 229.359375 369.925781 234.207031 372.496094 241.46875 373.378906 C 248.308594 374.210938 254.601562 369.75 261.261719 365.027344 C 267.835938 360.363281 274.636719 355.542969 282.054688 356.332031 C 283.980469 356.539062 285.925781 356.800781 287.804688 357.050781 C 294.726562 357.976562 301.261719 358.855469 302.792969 356.367188 C 303.882812 354.59375 302.5 350.867188 298.683594 345.285156 C 296.257812 341.738281 295.746094 338.710938 297.167969 336.28125 C 300.828125 330.023438 315.960938 329.984375 328.007812 331.054688 C 345.128906 332.574219 353.191406 328.722656 354.890625 324.960938 C 356.085938 322.320312 354.296875 319.824219 352.585938 318.195312 Z M 263.109375 283.785156 C 265.121094 287.828125 268.96875 289.878906 274.539062 289.878906 C 274.867188 289.878906 275.203125 289.871094 275.542969 289.855469 C 279.109375 289.71875 281.761719 288.5 283.421875 286.238281 C 284.8125 284.34375 285.292969 282.082031 284.941406 279.125 C 284.898438 278.765625 285.15625 278.441406 285.511719 278.398438 C 285.875 278.355469 286.195312 278.609375 286.238281 278.96875 C 286.625 282.234375 286.046875 284.863281 284.472656 287.011719 C 282.566406 289.609375 279.578125 291.003906 275.59375 291.160156 C 275.238281 291.175781 274.882812 291.183594 274.539062 291.183594 C 268.433594 291.183594 264.195312 288.890625 261.941406 284.367188 C 260.277344 281.035156 260.144531 277.335938 259.992188 273.050781 C 259.90625 270.664062 259.816406 268.199219 259.453125 265.625 C 259.066406 262.882812 255.304688 257.460938 247.957031 252.035156 C 242.527344 248.023438 236.46875 245.027344 232.144531 244.214844 C 231.792969 244.148438 231.558594 243.804688 231.625 243.453125 C 231.691406 243.097656 232.03125 242.863281 232.386719 242.929688 C 236.894531 243.777344 243.15625 246.863281 248.730469 250.984375 C 256.421875 256.664062 260.308594 262.339844 260.746094 265.441406 C 261.121094 268.085938 261.210938 270.582031 261.296875 273 C 261.445312 277.136719 261.574219 280.707031 263.109375 283.785156 Z M 294.910156 296.199219 C 295.078125 295.882812 295.472656 295.761719 295.792969 295.929688 C 296.035156 296.058594 301.84375 299.011719 307.019531 293.296875 C 307.261719 293.027344 307.675781 293.007812 307.941406 293.25 C 308.210938 293.492188 308.230469 293.90625 307.988281 294.171875 C 305.1875 297.265625 302.160156 298.078125 299.75 298.078125 C 297.109375 298.078125 295.21875 297.101562 295.179688 297.082031 C 294.863281 296.914062 294.742188 296.519531 294.910156 296.199219 Z M 296.667969 311.925781 C 296.695312 311.949219 299.332031 313.96875 302.539062 313.492188 C 304.722656 313.167969 306.699219 311.773438 308.410156 309.34375 C 308.617188 309.046875 309.023438 308.976562 309.320312 309.183594 C 309.613281 309.394531 309.683594 309.800781 309.476562 310.09375 C 307.546875 312.832031 305.269531 314.414062 302.710938 314.785156 C 302.308594 314.847656 301.910156 314.871094 301.527344 314.871094 C 298.339844 314.871094 295.96875 313.042969 295.859375 312.953125 C 295.578125 312.730469 295.527344 312.324219 295.75 312.039062 C 295.972656 311.757812 296.382812 311.707031 296.667969 311.925781 Z M 282.820312 307.109375 C 281.765625 307.824219 280.511719 308.179688 279.082031 308.179688 C 278.027344 308.179688 276.875 307.988281 275.632812 307.601562 C 272.777344 306.710938 270.734375 305.710938 269.089844 304.90625 C 265.644531 303.21875 264.214844 302.519531 260.515625 305.226562 C 260.226562 305.441406 259.820312 305.378906 259.605469 305.085938 C 259.394531 304.796875 259.457031 304.386719 259.746094 304.175781 C 264.082031 301 266.183594 302.027344 269.664062 303.734375 C 271.269531 304.519531 273.261719 305.496094 276.019531 306.355469 C 278.554688 307.140625 280.59375 307.035156 282.085938 306.035156 C 284.378906 304.496094 284.683594 301.292969 284.6875 301.261719 C 284.71875 300.902344 285.035156 300.640625 285.390625 300.667969 C 285.75 300.699219 286.015625 301.011719 285.988281 301.371094 C 285.972656 301.527344 285.636719 305.214844 282.820312 307.109375 Z M 242.269531 262.394531 C 242.628906 262.40625 242.910156 262.707031 242.902344 263.066406 C 242.890625 263.425781 242.589844 263.714844 242.230469 263.699219 C 231.230469 263.378906 230.359375 268.621094 230.328125 268.84375 C 230.28125 269.171875 230 269.410156 229.679688 269.410156 C 229.652344 269.410156 229.621094 269.40625 229.59375 269.402344 C 229.238281 269.355469 228.988281 269.035156 229.03125 268.679688 C 229.066406 268.40625 230 262.023438 242.269531 262.394531 Z M 241.984375 299.347656 C 242.0625 298.996094 242.410156 298.773438 242.761719 298.851562 C 243.140625 298.933594 252.050781 300.761719 254.226562 291.597656 C 254.308594 291.25 254.660156 291.03125 255.011719 291.113281 C 255.363281 291.199219 255.578125 291.550781 255.496094 291.902344 C 253.757812 299.226562 248.085938 300.328125 244.832031 300.328125 C 243.457031 300.328125 242.515625 300.132812 242.484375 300.125 C 242.132812 300.046875 241.910156 299.699219 241.984375 299.347656 Z M 219.09375 262.183594 C 221.289062 261.898438 224.15625 261.25 226.898438 258.75 C 227.164062 258.507812 227.574219 258.527344 227.820312 258.792969 C 228.0625 259.058594 228.042969 259.472656 227.777344 259.714844 C 224.765625 262.460938 221.648438 263.167969 219.265625 263.476562 C 219.234375 263.480469 219.207031 263.484375 219.179688 263.484375 C 218.855469 263.484375 218.574219 263.242188 218.53125 262.914062 C 218.488281 262.558594 218.738281 262.230469 219.09375 262.183594 Z M 227.070312 311.285156 C 226.949219 311.492188 226.730469 311.609375 226.507812 311.609375 C 226.394531 311.609375 226.28125 311.578125 226.175781 311.519531 C 225.6875 311.230469 225.183594 310.945312 224.667969 310.65625 C 218.902344 307.460938 212.703125 304.707031 206.710938 302.042969 C 202.511719 300.179688 198.554688 298.421875 195.058594 296.648438 C 194.734375 296.484375 194.605469 296.09375 194.769531 295.773438 C 194.933594 295.449219 195.324219 295.320312 195.648438 295.484375 C 199.117188 297.242188 203.058594 298.996094 207.234375 300.847656 C 213.257812 303.527344 219.484375 306.289062 225.300781 309.515625 C 225.828125 309.808594 226.339844 310.097656 226.839844 310.394531 C 227.148438 310.574219 227.253906 310.976562 227.070312 311.285156 Z M 230.25 299.050781 C 227.933594 299.773438 225.59375 300.140625 223.300781 300.140625 C 213.019531 300.140625 205.75 293.054688 199.90625 287.359375 C 198.25 285.742188 196.539062 284.074219 194.941406 282.789062 C 194.660156 282.558594 194.617188 282.148438 194.84375 281.871094 C 195.070312 281.589844 195.480469 281.542969 195.761719 281.773438 C 197.40625 283.097656 199.140625 284.789062 200.816406 286.421875 C 206.492188 291.953125 213.550781 298.835938 223.300781 298.835938 C 225.460938 298.835938 227.667969 298.488281 229.863281 297.804688 C 232.375 297.019531 238.253906 295.179688 238.699219 290.035156 C 239.066406 285.800781 235.316406 283.269531 234.082031 282.433594 C 232.265625 281.207031 229.902344 279.992188 227.398438 278.703125 C 224.308594 277.113281 220.804688 275.308594 218.042969 273.324219 C 215.496094 271.492188 213.984375 269.8125 213.558594 268.339844 C 213.457031 267.992188 213.65625 267.632812 214.003906 267.53125 C 214.347656 267.429688 214.710938 267.628906 214.808594 267.976562 C 215.003906 268.644531 215.78125 270.089844 218.804688 272.265625 C 221.488281 274.195312 224.945312 275.972656 227.996094 277.542969 C 230.535156 278.851562 232.933594 280.082031 234.8125 281.351562 C 236.203125 282.292969 240.433594 285.148438 240 290.148438 C 239.480469 296.164062 233.011719 298.1875 230.25 299.050781 Z M 238.683594 357.523438 C 238.554688 357.65625 238.386719 357.722656 238.214844 357.722656 C 238.050781 357.722656 237.886719 357.660156 237.761719 357.539062 C 237.5 357.289062 237.496094 356.875 237.746094 356.617188 C 243.644531 350.496094 246.378906 343.082031 245.449219 335.734375 C 244.890625 331.316406 243.03125 327.042969 239.917969 323.03125 C 239.699219 322.75 239.75 322.339844 240.035156 322.117188 C 240.320312 321.898438 240.730469 321.949219 240.949219 322.234375 C 244.207031 326.433594 246.15625 330.917969 246.746094 335.574219 C 247.726562 343.316406 244.863281 351.109375 238.683594 357.523438 Z M 278.964844 351.9375 C 271.433594 352.46875 264.980469 357.042969 258.738281 361.46875 C 256.402344 363.125 254.195312 364.691406 252.007812 365.996094 C 251.90625 366.058594 251.789062 366.089844 251.675781 366.089844 C 251.453125 366.089844 251.238281 365.976562 251.113281 365.773438 C 250.929688 365.460938 251.03125 365.0625 251.339844 364.875 C 253.484375 363.597656 255.671875 362.046875 257.984375 360.40625 C 264.371094 355.875 270.976562 351.191406 278.875 350.636719 C 279.234375 350.613281 279.546875 350.882812 279.570312 351.242188 C 279.597656 351.601562 279.324219 351.914062 278.964844 351.9375 Z M 280.105469 323.285156 C 275.777344 323.425781 274.546875 325.441406 273.121094 327.78125 C 271.535156 330.382812 269.734375 333.332031 263.609375 333.996094 C 262.992188 334.0625 262.394531 334.097656 261.816406 334.097656 C 259.019531 334.097656 256.6875 333.316406 254.863281 331.761719 C 251.324219 328.75 251.035156 323.957031 251.023438 323.753906 C 251.003906 323.394531 251.28125 323.089844 251.640625 323.070312 C 252 323.050781 252.304688 323.324219 252.328125 323.683594 C 252.328125 323.730469 252.605469 328.132812 255.71875 330.777344 C 257.632812 332.402344 260.242188 333.046875 263.46875 332.699219 C 268.957031 332.101562 270.507812 329.558594 272.007812 327.097656 C 273.496094 324.660156 275.035156 322.140625 280.066406 321.980469 C 280.429688 321.96875 280.726562 322.25 280.738281 322.609375 C 280.75 322.96875 280.464844 323.273438 280.105469 323.285156 Z M 337.355469 326.980469 C 336.644531 327.007812 335.898438 327.023438 335.113281 327.023438 C 335.113281 327.023438 335.109375 327.023438 335.109375 327.023438 C 332.996094 327.023438 330.734375 326.917969 328.390625 326.710938 C 324.375 326.355469 320.625 326.171875 317.242188 326.171875 C 304 326.171875 296.128906 328.886719 293.183594 334.472656 C 291.757812 337.179688 291.632812 340.195312 292.8125 343.441406 C 292.9375 343.78125 292.761719 344.152344 292.425781 344.277344 C 292.351562 344.304688 292.273438 344.316406 292.199219 344.316406 C 291.933594 344.316406 291.683594 344.152344 291.585938 343.886719 C 289.953125 339.398438 290.925781 335.957031 292.03125 333.863281 C 295.222656 327.808594 303.46875 324.867188 317.242188 324.867188 C 320.664062 324.867188 324.453125 325.050781 328.507812 325.410156 C 330.8125 325.613281 333.035156 325.71875 335.109375 325.71875 C 335.886719 325.710938 336.609375 325.707031 337.308594 325.679688 C 337.671875 325.667969 337.972656 325.945312 337.984375 326.304688 C 338 326.664062 337.71875 326.96875 337.355469 326.980469 Z M 348.21875 321.339844 C 348.15625 321.644531 347.882812 321.855469 347.582031 321.855469 C 347.539062 321.855469 347.492188 321.851562 347.445312 321.84375 C 346.390625 321.617188 344.882812 321.507812 342.957031 321.507812 C 341.917969 321.507812 340.855469 321.535156 339.730469 321.5625 C 338.550781 321.59375 337.363281 321.625 336.195312 321.625 C 332.199219 321.625 320.03125 321.625 319.15625 309.5625 C 317.847656 291.484375 314.609375 288.320312 310.128906 283.941406 C 304.53125 278.476562 296.917969 273.308594 290.726562 270.777344 C 290.394531 270.640625 290.234375 270.257812 290.367188 269.925781 C 290.503906 269.589844 290.886719 269.433594 291.21875 269.570312 C 297.554688 272.15625 305.332031 277.433594 311.039062 283.007812 C 315.726562 287.585938 319.113281 290.894531 320.460938 309.46875 C 321.246094 320.320312 332.5 320.320312 336.199219 320.320312 C 337.355469 320.320312 338.527344 320.289062 339.664062 320.261719 C 340.832031 320.230469 341.90625 320.203125 342.957031 320.203125 C 344.972656 320.203125 346.574219 320.324219 347.714844 320.566406 C 348.070312 320.640625 348.292969 320.984375 348.21875 321.339844 Z M 156.929688 197.011719 C 156.9375 197.316406 156.945312 197.578125 156.945312 197.789062 C 156.945312 201.425781 156.335938 203.558594 154.964844 204.710938 C 153.207031 206.183594 150.554688 205.71875 147.199219 205.125 C 145.832031 204.886719 144.28125 204.613281 142.636719 204.445312 C 142.417969 204.421875 142.203125 204.414062 141.984375 204.414062 C 139.894531 204.414062 137.917969 205.433594 136.71875 207.175781 C 135.554688 208.859375 135.359375 210.867188 136.195312 212.546875 C 137.570312 215.300781 141.414062 216.941406 147.019531 217.164062 C 163.53125 217.832031 166.445312 220.648438 180.449219 234.1875 C 181.703125 235.398438 183.046875 236.699219 184.5 238.089844 C 190.984375 244.3125 198.5 246.929688 204.601562 245.089844 C 207.894531 244.101562 210.21875 241.90625 210.820312 239.226562 C 211.410156 236.605469 210.285156 233.847656 207.644531 231.464844 C 194.925781 219.960938 192.082031 210.914062 189.574219 202.929688 C 188.515625 199.554688 187.511719 196.367188 185.847656 193.222656 C 181.84375 185.660156 177.902344 180.019531 166.84375 181.835938 C 156.546875 183.527344 156.824219 193.324219 156.929688 197.011719 Z M 172.125 198.835938 C 170.839844 199.265625 170.378906 200.316406 170.363281 200.359375 C 170.257812 200.605469 170.015625 200.757812 169.757812 200.757812 C 169.675781 200.757812 169.589844 200.742188 169.507812 200.707031 C 169.179688 200.570312 169.019531 200.191406 169.15625 199.859375 C 169.183594 199.792969 169.835938 198.242188 171.679688 197.609375 C 173.429688 197.011719 175.601562 197.445312 178.125 198.902344 C 178.4375 199.085938 178.542969 199.484375 178.363281 199.796875 C 178.183594 200.105469 177.785156 200.214844 177.472656 200.035156 C 175.332031 198.796875 173.480469 198.382812 172.125 198.835938 Z M 185.167969 229.304688 C 186.429688 230.527344 187.761719 231.8125 189.199219 233.191406 C 190.414062 234.359375 191.660156 235.363281 192.898438 236.183594 C 193.199219 236.382812 193.28125 236.789062 193.085938 237.085938 C 192.957031 237.277344 192.75 237.378906 192.539062 237.378906 C 192.414062 237.378906 192.289062 237.34375 192.179688 237.273438 C 190.875 236.410156 189.570312 235.355469 188.296875 234.132812 C 186.859375 232.753906 185.527344 231.464844 184.28125 230.265625 C 175.152344 221.4375 170.136719 216.589844 162.84375 214.066406 C 162.503906 213.949219 162.320312 213.578125 162.441406 213.238281 C 162.558594 212.898438 162.929688 212.714844 163.269531 212.832031 C 170.835938 215.449219 175.925781 220.371094 185.167969 229.304688 Z M 164.96875 186.769531 C 167.394531 185.265625 170.515625 185.195312 174.246094 186.550781 C 174.585938 186.671875 174.761719 187.046875 174.636719 187.386719 C 174.515625 187.726562 174.140625 187.898438 173.800781 187.777344 C 170.464844 186.566406 167.730469 186.597656 165.664062 187.875 C 162.378906 189.902344 161.8125 194.464844 161.808594 194.507812 C 161.769531 194.84375 161.488281 195.085938 161.160156 195.085938 C 161.136719 195.085938 161.109375 195.085938 161.085938 195.082031 C 160.726562 195.042969 160.472656 194.71875 160.511719 194.359375 C 160.535156 194.148438 161.148438 189.132812 164.96875 186.769531 Z M 140.207031 209.363281 C 139.867188 209.476562 139.496094 209.292969 139.382812 208.953125 C 139.265625 208.609375 139.449219 208.238281 139.792969 208.125 C 140.105469 208.019531 147.488281 205.59375 153.167969 208.605469 C 153.488281 208.777344 153.609375 209.171875 153.441406 209.488281 C 153.324219 209.710938 153.097656 209.835938 152.863281 209.835938 C 152.761719 209.835938 152.65625 209.8125 152.558594 209.761719 C 147.367188 207.007812 140.28125 209.339844 140.207031 209.363281 Z M 198.859375 231.480469 C 198.734375 231.597656 198.574219 231.65625 198.414062 231.65625 C 198.238281 231.65625 198.066406 231.585938 197.9375 231.449219 C 189.878906 222.839844 186.644531 215.472656 184.539062 209.398438 C 184.421875 209.058594 184.601562 208.6875 184.941406 208.566406 C 185.28125 208.449219 185.65625 208.632812 185.773438 208.972656 C 187.832031 214.917969 191 222.128906 198.890625 230.558594 C 199.136719 230.820312 199.121094 231.234375 198.859375 231.480469 Z M 195.882812 260.714844 C 194.511719 260.316406 192.996094 260.128906 191.542969 260.128906 C 188.796875 260.128906 186.285156 260.796875 185.425781 261.960938 C 185.253906 262.191406 184.742188 262.882812 185.636719 264.25 C 187.117188 266.503906 188.480469 266.769531 190.203125 267.101562 C 191.726562 267.398438 193.457031 267.730469 195.460938 269.46875 C 197.128906 270.910156 198.898438 271.296875 200.316406 270.527344 C 201.40625 269.9375 202.058594 268.726562 201.898438 267.585938 L 201.875 267.398438 C 201.480469 264.523438 201.171875 262.253906 195.882812 260.714844 Z M 198.742188 265.953125 C 198.613281 266.101562 198.433594 266.175781 198.253906 266.175781 C 198.101562 266.175781 197.945312 266.125 197.824219 266.015625 C 193.335938 262.089844 189.160156 264.15625 188.984375 264.25 C 188.664062 264.410156 188.269531 264.289062 188.105469 263.96875 C 187.941406 263.648438 188.0625 263.257812 188.382812 263.089844 C 188.589844 262.980469 193.503906 260.5 198.683594 265.035156 C 198.953125 265.269531 198.980469 265.683594 198.742188 265.953125 Z M 198.742188 265.953125 " fill-opacity="1" fill-rule="nonzero"/><path fill="#6e6a86" d="M 151.480469 7.976562 L 161.328125 2.710938 C 163.417969 1.589844 165.886719 1.632812 167.9375 2.816406 L 348.871094 107.277344 C 350.417969 108.171875 351.699219 109.40625 352.652344 110.851562 L 340.539062 117.84375 C 339.476562 116.203125 338.03125 114.800781 336.285156 113.792969 L 154.832031 9.03125 C 153.777344 8.421875 152.636719 8.082031 151.480469 7.976562 Z M 143.976562 16.050781 C 143.976562 13.625 145.214844 11.457031 147.292969 10.21875 L 147.65625 10.023438 C 149.726562 8.945312 152.140625 8.984375 154.179688 10.160156 L 335.632812 114.921875 C 339.109375 116.929688 341.269531 120.671875 341.269531 124.6875 L 341.269531 269.550781 L 143.976562 155.644531 Z M 151.320312 151.027344 C 151.320312 151.261719 151.441406 151.476562 151.644531 151.59375 L 332.949219 256.269531 C 333.050781 256.328125 333.164062 256.355469 333.277344 256.355469 C 333.386719 256.355469 333.5 256.328125 333.601562 256.269531 C 333.804688 256.152344 333.929688 255.9375 333.929688 255.703125 L 333.929688 122.792969 C 333.929688 122.558594 333.804688 122.34375 333.601562 122.226562 L 152.296875 17.550781 C 152.09375 17.4375 151.847656 17.4375 151.644531 17.550781 C 151.441406 17.667969 151.320312 17.882812 151.320312 18.117188 Z M 279.492188 263.769531 C 281.917969 261.960938 285.488281 261.917969 289.542969 263.011719 L 296.945312 258.738281 L 280.894531 249.472656 L 264.84375 258.738281 L 277.640625 266.125 C 278.003906 265.238281 278.59375 264.4375 279.492188 263.769531 Z M 228.171875 292.394531 C 232.320312 291.097656 233.011719 290.054688 233.054688 289.546875 C 233.183594 288.054688 228.925781 285.859375 224.804688 283.742188 C 224.242188 283.449219 223.664062 283.152344 223.082031 282.847656 L 212.777344 288.800781 L 219.394531 292.621094 C 222.074219 293.34375 224.980469 293.394531 228.171875 292.394531 Z M 156.320312 292.121094 L 132.335938 278.273438 L 121 284.824219 L 144.980469 298.667969 Z M 132.335938 249.074219 L 108.355469 262.921875 L 132.664062 276.957031 L 157.625 291.367188 L 181.609375 277.519531 Z M 119.691406 284.070312 L 131.03125 277.519531 L 107.046875 263.675781 L 95.710938 270.21875 Z M 173.800781 229.628906 C 170.894531 226.917969 168.492188 224.863281 166.140625 223.296875 L 163.097656 221.542969 C 161.679688 220.851562 160.203125 220.304688 158.589844 219.878906 L 143.351562 228.675781 L 153.679688 234.640625 L 159.402344 237.945312 Z M 263.585938 257.960938 L 279.589844 248.71875 L 263.539062 239.449219 L 251.816406 246.21875 C 256.628906 249.714844 260.914062 253.84375 263.585938 257.960938 Z M 225.855469 237.738281 L 211.46875 229.429688 L 208.9375 230.890625 C 211.636719 233.519531 212.757812 236.5625 212.09375 239.511719 C 211.53125 242.011719 209.738281 244.132812 207.144531 245.46875 L 211.472656 247.964844 L 223.058594 241.273438 C 223.105469 240.578125 223.285156 239.925781 223.675781 239.339844 C 224.136719 238.648438 224.867188 238.121094 225.855469 237.738281 Z M 190.820312 202.539062 C 192.15625 206.792969 193.59375 211.359375 196.628906 216.449219 L 210.164062 208.636719 L 194.113281 199.367188 L 190.480469 201.464844 C 190.59375 201.820312 190.707031 202.179688 190.820312 202.539062 Z M 217.660156 256.648438 C 219.09375 256.484375 220.476562 256.324219 221.875 255.476562 L 211.472656 249.472656 L 195.417969 258.738281 L 197.210938 259.773438 C 199.03125 260.40625 200.261719 261.171875 201.105469 262.019531 L 205.746094 264.699219 L 207.90625 265.949219 C 208.128906 264.644531 208.632812 263.320312 209.417969 261.984375 C 212.179688 257.285156 214.964844 256.960938 217.660156 256.648438 Z M 107.332031 209.390625 L 91.28125 218.65625 L 107.332031 227.921875 L 123.382812 218.65625 Z M 277.273438 267.421875 L 270.394531 263.449219 L 264.917969 260.289062 C 265.652344 261.769531 266.15625 263.234375 266.355469 264.648438 C 266.769531 267.589844 266.871094 270.359375 266.957031 272.800781 C 267 273.921875 267.035156 274.980469 267.101562 275.972656 L 277.210938 270.136719 C 277.117188 269.195312 277.121094 268.277344 277.273438 267.421875 Z M 227.632812 237.257812 C 228.003906 237.1875 228.390625 237.132812 228.8125 237.089844 C 229.308594 237.039062 229.835938 237.035156 230.378906 237.046875 L 244.878906 228.675781 L 228.828125 219.410156 L 212.777344 228.675781 Z M 190.074219 200.195312 L 192.808594 198.613281 L 188.660156 196.21875 C 189.179688 197.527344 189.636719 198.851562 190.074219 200.195312 Z M 223.949219 245.9375 C 223.617188 244.828125 223.292969 243.75 223.136719 242.734375 L 212.777344 248.71875 L 223.011719 254.628906 C 223.269531 254.394531 223.527344 254.132812 223.789062 253.835938 C 225.6875 251.699219 224.804688 248.769531 223.949219 245.9375 Z M 210.164062 248.71875 L 205.660156 246.113281 C 205.4375 246.195312 205.210938 246.269531 204.980469 246.339844 C 203.574219 246.761719 202.105469 246.96875 200.59375 246.96875 C 196.617188 246.96875 192.359375 245.527344 188.289062 242.8125 L 178.0625 248.71875 L 190.101562 255.667969 L 194.113281 257.984375 Z M 143.351562 188.59375 L 155.601562 195.667969 C 155.589844 191.761719 156.230469 184.429688 163.195312 181.515625 L 159.402344 179.328125 Z M 179.539062 235.125 C 177.800781 233.441406 176.234375 231.925781 174.792969 230.566406 L 160.707031 238.699219 L 164.1875 240.707031 L 176.757812 247.964844 L 187.113281 241.988281 C 185.917969 241.109375 184.738281 240.128906 183.597656 239.03125 C 182.140625 237.636719 180.796875 236.335938 179.539062 235.125 Z M 199.863281 221.222656 L 211.472656 227.921875 L 227.523438 218.65625 L 211.472656 209.386719 L 197.3125 217.5625 C 198.066406 218.753906 198.910156 219.972656 199.863281 221.222656 Z M 207.941406 229.960938 L 210.164062 228.675781 L 202.183594 224.066406 C 203.824219 225.960938 205.722656 227.921875 207.941406 229.960938 Z M 124.6875 217.902344 L 134.652344 212.152344 C 134.082031 210.273438 134.421875 208.203125 135.644531 206.433594 C 135.765625 206.253906 135.910156 206.09375 136.046875 205.925781 L 124.6875 199.367188 L 108.636719 208.636719 Z M 156.722656 219.449219 C 154.023438 218.914062 150.894531 218.628906 146.96875 218.46875 C 139.070312 218.152344 136.195312 215.238281 135.15625 213.367188 L 125.996094 218.65625 L 138.03125 225.605469 L 142.046875 227.925781 Z M 203.167969 267.21875 L 203.191406 267.40625 C 203.425781 269.101562 202.519531 270.816406 200.941406 271.675781 C 200.273438 272.035156 199.546875 272.214844 198.792969 272.214844 C 197.414062 272.214844 195.949219 271.613281 194.609375 270.453125 C 192.867188 268.945312 191.382812 268.660156 189.953125 268.382812 C 188.171875 268.035156 186.328125 267.679688 184.546875 264.964844 C 183.394531 263.207031 183.816406 261.941406 184.375 261.183594 C 185.75 259.324219 189.539062 258.605469 193.089844 258.898438 L 185.46875 254.5 L 176.429688 249.28125 L 159.074219 239.261719 L 150.398438 234.25 L 138.707031 227.5 L 124.6875 219.410156 L 108.636719 228.675781 L 187.851562 274.410156 C 188.859375 274 189.875 273.777344 190.902344 273.75 C 195.796875 273.609375 200.160156 277.867188 204.773438 282.363281 C 206.414062 283.964844 208.117188 285.621094 209.90625 287.144531 L 211.46875 288.046875 L 221.71875 282.128906 C 215.816406 278.992188 209.628906 275.140625 208.113281 269.914062 C 207.871094 269.085938 207.769531 268.238281 207.78125 267.382812 L 202.574219 264.375 C 202.902344 265.304688 203.039062 266.269531 203.167969 267.21875 Z M 136.980469 204.957031 C 138.5625 203.609375 140.644531 202.933594 142.769531 203.148438 C 144.460938 203.320312 146.035156 203.597656 147.421875 203.839844 C 150.445312 204.371094 152.835938 204.792969 154.125 203.710938 C 155.15625 202.84375 155.640625 200.960938 155.640625 197.789062 C 155.640625 197.625 155.632812 197.417969 155.628906 197.191406 L 142.042969 189.347656 L 125.992188 198.613281 Z M 262.234375 238.699219 L 246.183594 229.429688 L 232.625 237.257812 C 237.917969 238.089844 244.609375 241.210938 250.644531 245.390625 Z M 275.324219 284.195312 C 277.101562 284.125 278.257812 283.699219 278.855469 282.886719 C 279.957031 281.382812 279.179688 278.519531 278.355469 275.488281 C 278.003906 274.195312 277.640625 272.851562 277.402344 271.53125 L 267.222656 277.40625 C 267.472656 279.710938 267.984375 281.527344 269.214844 282.671875 C 270.441406 283.808594 272.441406 284.308594 275.324219 284.195312 Z M 19.03125 232.460938 C 19.03125 234.921875 20.304688 237.121094 22.433594 238.351562 L 203.886719 343.113281 C 207.363281 345.121094 211.683594 345.121094 215.160156 343.113281 L 237.753906 330.070312 C 234.976562 324.800781 229.628906 319.886719 221.921875 315.613281 C 216.371094 312.535156 210.289062 309.832031 204.402344 307.21875 C 191.234375 301.371094 179.859375 296.320312 178.332031 288.957031 C 177.660156 285.707031 178.960938 282.328125 182.296875 278.632812 L 157.953125 292.6875 L 145.308594 299.988281 C 145.207031 300.046875 145.09375 300.074219 144.980469 300.074219 C 144.871094 300.074219 144.757812 300.046875 144.65625 299.988281 L 94.078125 270.785156 C 93.875 270.667969 93.75 270.453125 93.75 270.21875 C 93.75 269.988281 93.875 269.773438 94.078125 269.65625 L 132.011719 247.753906 C 132.214844 247.640625 132.460938 247.640625 132.664062 247.753906 L 183.242188 276.957031 C 183.390625 277.042969 183.496094 277.179688 183.542969 277.339844 C 184.515625 276.410156 185.484375 275.675781 186.453125 275.109375 L 107.007812 229.242188 L 89.652344 219.222656 C 89.449219 219.105469 89.324219 218.886719 89.324219 218.65625 C 89.324219 218.421875 89.449219 218.207031 89.652344 218.089844 L 141.71875 188.03125 L 159.078125 178.007812 C 159.277344 177.890625 159.527344 177.890625 159.730469 178.007812 L 164.828125 180.953125 C 165.394531 180.792969 165.992188 180.652344 166.632812 180.550781 C 178.527344 178.59375 182.894531 184.855469 187.003906 192.613281 C 187.285156 193.144531 187.542969 193.675781 187.789062 194.210938 L 194.441406 198.050781 L 211.796875 208.070312 L 229.15625 218.089844 L 246.511719 228.113281 L 281.222656 248.152344 L 298.578125 258.175781 C 298.78125 258.292969 298.90625 258.507812 298.90625 258.738281 C 298.90625 258.972656 298.78125 259.1875 298.578125 259.304688 L 291.261719 263.53125 C 299.234375 266.207031 308.652344 272.753906 315 278.957031 C 316.433594 280.355469 317.738281 281.707031 318.910156 283.214844 L 340.617188 270.683594 L 143.324219 156.773438 L 22.433594 226.570312 C 20.304688 227.800781 19.03125 230.003906 19.03125 232.460938 Z M 219.179688 263.484375 C 219.207031 263.484375 219.234375 263.480469 219.265625 263.476562 C 221.644531 263.167969 224.765625 262.460938 227.777344 259.714844 C 228.042969 259.472656 228.0625 259.058594 227.820312 258.792969 C 227.574219 258.527344 227.164062 258.507812 226.898438 258.75 C 224.15625 261.25 221.289062 261.898438 219.09375 262.183594 C 218.738281 262.230469 218.484375 262.558594 218.53125 262.914062 C 218.574219 263.242188 218.855469 263.484375 219.179688 263.484375 Z M 240 290.148438 C 240.433594 285.148438 236.203125 282.292969 234.8125 281.351562 C 232.933594 280.082031 230.535156 278.847656 227.996094 277.542969 C 224.945312 275.972656 221.488281 274.191406 218.804688 272.265625 C 215.78125 270.089844 215.003906 268.644531 214.808594 267.976562 C 214.710938 267.628906 214.347656 267.429688 214 267.53125 C 213.65625 267.628906 213.457031 267.992188 213.554688 268.339844 C 213.984375 269.8125 215.492188 271.492188 218.042969 273.324219 C 220.804688 275.308594 224.308594 277.113281 227.398438 278.703125 C 229.902344 279.992188 232.265625 281.207031 234.082031 282.433594 C 235.316406 283.265625 239.066406 285.800781 238.699219 290.035156 C 238.253906 295.179688 232.375 297.019531 229.859375 297.804688 C 227.667969 298.488281 225.460938 298.835938 223.300781 298.835938 C 213.550781 298.835938 206.488281 291.953125 200.816406 286.421875 C 199.140625 284.785156 197.40625 283.097656 195.761719 281.769531 C 195.480469 281.542969 195.070312 281.589844 194.84375 281.867188 C 194.617188 282.148438 194.660156 282.558594 194.941406 282.785156 C 196.539062 284.074219 198.25 285.742188 199.90625 287.355469 C 205.746094 293.050781 213.015625 300.140625 223.300781 300.140625 C 225.59375 300.140625 227.929688 299.773438 230.25 299.046875 C 233.011719 298.1875 239.480469 296.164062 240 290.148438 Z M 226.835938 310.394531 C 226.335938 310.097656 225.824219 309.808594 225.300781 309.515625 C 219.484375 306.289062 213.257812 303.527344 207.230469 300.847656 C 203.058594 298.996094 199.113281 297.242188 195.648438 295.484375 C 195.324219 295.320312 194.933594 295.449219 194.769531 295.773438 C 194.605469 296.09375 194.734375 296.484375 195.054688 296.648438 C 198.554688 298.421875 202.511719 300.179688 206.707031 302.042969 C 212.703125 304.707031 218.902344 307.460938 224.667969 310.65625 C 225.183594 310.945312 225.6875 311.230469 226.175781 311.519531 C 226.28125 311.578125 226.394531 311.609375 226.507812 311.609375 C 226.730469 311.609375 226.949219 311.492188 227.070312 311.285156 C 227.253906 310.976562 227.148438 310.574219 226.835938 310.394531 Z M 246.746094 335.570312 C 246.15625 330.917969 244.207031 326.429688 240.953125 322.230469 C 240.730469 321.949219 240.320312 321.894531 240.035156 322.117188 C 239.75 322.335938 239.699219 322.746094 239.921875 323.03125 C 243.03125 327.042969 244.890625 331.316406 245.449219 335.734375 C 246.378906 343.082031 243.644531 350.496094 237.746094 356.613281 C 237.496094 356.875 237.5 357.289062 237.761719 357.539062 C 237.886719 357.660156 238.050781 357.71875 238.214844 357.71875 C 238.386719 357.71875 238.554688 357.652344 238.683594 357.519531 C 244.863281 351.109375 247.726562 343.316406 246.746094 335.570312 Z M 278.875 350.636719 C 270.976562 351.191406 264.371094 355.875 257.984375 360.40625 C 255.667969 362.046875 253.484375 363.597656 251.339844 364.875 C 251.03125 365.0625 250.929688 365.460938 251.113281 365.773438 C 251.234375 365.976562 251.453125 366.089844 251.675781 366.089844 C 251.789062 366.089844 251.902344 366.058594 252.007812 365.996094 C 254.195312 364.691406 256.402344 363.125 258.738281 361.46875 C 264.980469 357.042969 271.433594 352.46875 278.964844 351.9375 C 279.324219 351.910156 279.59375 351.601562 279.570312 351.242188 C 279.546875 350.882812 279.234375 350.613281 278.875 350.636719 Z M 337.308594 325.679688 C 336.609375 325.703125 335.886719 325.710938 335.109375 325.71875 C 333.035156 325.71875 330.8125 325.617188 328.507812 325.410156 C 324.453125 325.050781 320.664062 324.867188 317.242188 324.867188 C 303.46875 324.867188 295.222656 327.808594 292.027344 333.863281 C 290.925781 335.957031 289.953125 339.398438 291.585938 343.886719 C 291.683594 344.152344 291.933594 344.316406 292.199219 344.316406 C 292.273438 344.316406 292.347656 344.304688 292.421875 344.277344 C 292.761719 344.152344 292.9375 343.78125 292.8125 343.441406 C 291.632812 340.195312 291.753906 337.179688 293.183594 334.472656 C 296.128906 328.886719 304 326.171875 317.242188 326.171875 C 320.625 326.171875 324.375 326.355469 328.390625 326.710938 C 330.738281 326.917969 332.996094 327.023438 335.109375 327.023438 C 335.109375 327.023438 335.113281 327.023438 335.113281 327.023438 C 335.894531 327.023438 336.644531 327.007812 337.355469 326.980469 C 337.714844 326.96875 337.996094 326.664062 337.984375 326.304688 C 337.972656 325.945312 337.671875 325.667969 337.308594 325.679688 Z M 347.714844 320.566406 C 346.574219 320.324219 344.972656 320.203125 342.957031 320.203125 C 341.90625 320.203125 340.832031 320.230469 339.664062 320.257812 C 338.527344 320.289062 337.355469 320.320312 336.199219 320.320312 C 332.5 320.320312 321.246094 320.320312 320.460938 309.46875 C 319.113281 290.894531 315.726562 287.585938 311.039062 283.007812 C 305.332031 277.433594 297.554688 272.15625 291.21875 269.566406 C 290.886719 269.429688 290.503906 269.589844 290.367188 269.925781 C 290.234375 270.257812 290.394531 270.640625 290.726562 270.777344 C 296.917969 273.304688 304.53125 278.472656 310.128906 283.941406 C 314.609375 288.320312 317.847656 291.480469 319.15625 309.5625 C 320.03125 321.625 332.199219 321.625 336.195312 321.625 C 337.363281 321.625 338.550781 321.59375 339.730469 321.5625 C 340.855469 321.53125 341.917969 321.503906 342.957031 321.503906 C 344.882812 321.503906 346.390625 321.617188 347.445312 321.839844 C 347.492188 321.851562 347.535156 321.855469 347.582031 321.855469 C 347.882812 321.855469 348.15625 321.644531 348.21875 321.335938 C 348.292969 320.984375 348.070312 320.640625 347.714844 320.566406 Z M 260.746094 265.441406 C 260.308594 262.339844 256.421875 256.667969 248.730469 250.984375 C 243.15625 246.863281 236.894531 243.78125 232.386719 242.933594 C 232.03125 242.867188 231.691406 243.097656 231.625 243.453125 C 231.558594 243.808594 231.789062 244.148438 232.144531 244.214844 C 236.46875 245.027344 242.53125 248.023438 247.957031 252.035156 C 255.304688 257.460938 259.066406 262.882812 259.453125 265.625 C 259.816406 268.203125 259.90625 270.664062 259.992188 273.054688 C 260.144531 277.335938 260.277344 281.035156 261.941406 284.367188 C 264.195312 288.890625 268.433594 291.183594 274.539062 291.183594 C 274.882812 291.183594 275.238281 291.175781 275.59375 291.160156 C 279.578125 291.007812 282.566406 289.609375 284.472656 287.011719 C 286.050781 284.863281 286.625 282.234375 286.238281 278.96875 C 286.195312 278.613281 285.875 278.355469 285.511719 278.398438 C 285.15625 278.441406 284.898438 278.765625 284.941406 279.125 C 285.292969 282.085938 284.8125 284.34375 283.421875 286.238281 C 281.761719 288.5 279.109375 289.71875 275.542969 289.859375 C 275.203125 289.871094 274.867188 289.878906 274.539062 289.878906 C 268.96875 289.878906 265.121094 287.828125 263.109375 283.785156 C 261.574219 280.707031 261.445312 277.140625 261.296875 273 C 261.210938 270.585938 261.121094 268.085938 260.746094 265.441406 Z M 163.269531 212.832031 C 162.929688 212.714844 162.558594 212.894531 162.441406 213.234375 C 162.320312 213.578125 162.503906 213.949219 162.84375 214.066406 C 170.136719 216.585938 175.152344 221.4375 184.28125 230.261719 C 185.527344 231.464844 186.855469 232.753906 188.292969 234.132812 C 189.566406 235.351562 190.875 236.410156 192.179688 237.269531 C 192.289062 237.34375 192.414062 237.378906 192.539062 237.378906 C 192.75 237.378906 192.957031 237.277344 193.082031 237.085938 C 193.28125 236.785156 193.199219 236.382812 192.898438 236.183594 C 191.660156 235.363281 190.414062 234.359375 189.199219 233.191406 C 187.761719 231.8125 186.429688 230.523438 185.167969 229.304688 C 175.925781 220.371094 170.835938 215.449219 163.269531 212.832031 Z M 185.773438 208.96875 C 185.652344 208.628906 185.28125 208.449219 184.941406 208.566406 C 184.601562 208.683594 184.421875 209.054688 184.539062 209.398438 C 186.644531 215.46875 189.878906 222.839844 197.9375 231.449219 C 198.066406 231.585938 198.238281 231.65625 198.414062 231.65625 C 198.574219 231.65625 198.734375 231.597656 198.859375 231.476562 C 199.121094 231.230469 199.136719 230.820312 198.890625 230.554688 C 191 222.128906 187.832031 214.914062 185.773438 208.96875 Z M 280.0625 321.980469 C 275.03125 322.140625 273.496094 324.664062 272.007812 327.097656 C 270.507812 329.558594 268.953125 332.101562 263.46875 332.699219 C 260.242188 333.046875 257.632812 332.402344 255.71875 330.777344 C 252.605469 328.136719 252.328125 323.730469 252.324219 323.6875 C 252.304688 323.328125 252 323.050781 251.640625 323.070312 C 251.28125 323.089844 251.003906 323.394531 251.023438 323.753906 C 251.03125 323.957031 251.324219 328.75 254.863281 331.765625 C 256.6875 333.316406 259.019531 334.097656 261.816406 334.097656 C 262.394531 334.097656 262.992188 334.0625 263.609375 333.996094 C 269.734375 333.332031 271.535156 330.382812 273.121094 327.78125 C 274.546875 325.441406 275.777344 323.425781 280.105469 323.285156 C 280.464844 323.273438 280.746094 322.972656 280.738281 322.613281 C 280.726562 322.25 280.425781 321.972656 280.0625 321.980469 Z M 285.390625 300.667969 C 285.035156 300.640625 284.71875 300.902344 284.6875 301.261719 C 284.683594 301.292969 284.378906 304.496094 282.085938 306.035156 C 280.59375 307.035156 278.550781 307.140625 276.019531 306.355469 C 273.261719 305.496094 271.269531 304.519531 269.664062 303.734375 C 266.183594 302.027344 264.082031 301 259.746094 304.175781 C 259.457031 304.386719 259.394531 304.796875 259.605469 305.085938 C 259.820312 305.378906 260.226562 305.441406 260.515625 305.226562 C 264.214844 302.519531 265.640625 303.21875 269.089844 304.90625 C 270.734375 305.710938 272.777344 306.710938 275.632812 307.601562 C 276.875 307.988281 278.027344 308.179688 279.082031 308.179688 C 280.511719 308.179688 281.765625 307.824219 282.820312 307.109375 C 285.636719 305.214844 285.972656 301.527344 285.984375 301.371094 C 286.015625 301.011719 285.75 300.699219 285.390625 300.667969 Z M 295.75 312.039062 C 295.53125 312.324219 295.578125 312.730469 295.859375 312.953125 C 295.972656 313.042969 298.339844 314.871094 301.53125 314.871094 C 301.914062 314.871094 302.308594 314.847656 302.714844 314.785156 C 305.269531 314.414062 307.546875 312.835938 309.476562 310.09375 C 309.683594 309.800781 309.613281 309.394531 309.320312 309.183594 C 309.027344 308.976562 308.617188 309.046875 308.410156 309.34375 C 306.699219 311.773438 304.722656 313.167969 302.539062 313.492188 C 299.332031 313.96875 296.695312 311.949219 296.667969 311.925781 C 296.382812 311.707031 295.972656 311.757812 295.75 312.039062 Z M 229.59375 269.402344 C 229.621094 269.40625 229.652344 269.410156 229.679688 269.410156 C 230 269.410156 230.28125 269.171875 230.324219 268.84375 C 230.355469 268.621094 231.230469 263.378906 242.230469 263.699219 C 242.589844 263.714844 242.890625 263.425781 242.902344 263.066406 C 242.910156 262.703125 242.628906 262.402344 242.269531 262.394531 C 230 262.023438 229.066406 268.40625 229.03125 268.679688 C 228.988281 269.035156 229.238281 269.355469 229.59375 269.402344 Z M 242.484375 300.125 C 242.515625 300.132812 243.457031 300.328125 244.832031 300.328125 C 248.085938 300.328125 253.757812 299.226562 255.496094 291.902344 C 255.578125 291.550781 255.363281 291.199219 255.011719 291.113281 C 254.660156 291.03125 254.308594 291.25 254.226562 291.597656 C 252.050781 300.761719 243.140625 298.933594 242.761719 298.851562 C 242.410156 298.773438 242.0625 298.996094 241.984375 299.347656 C 241.910156 299.699219 242.132812 300.046875 242.484375 300.125 Z M 299.75 298.078125 C 302.160156 298.078125 305.1875 297.265625 307.988281 294.171875 C 308.230469 293.90625 308.210938 293.492188 307.941406 293.25 C 307.675781 293.007812 307.261719 293.027344 307.019531 293.296875 C 301.84375 299.011719 296.035156 296.058594 295.792969 295.929688 C 295.472656 295.761719 295.078125 295.882812 294.910156 296.199219 C 294.742188 296.519531 294.863281 296.914062 295.179688 297.082031 C 295.21875 297.101562 297.109375 298.078125 299.75 298.078125 Z M 152.558594 209.761719 C 152.65625 209.8125 152.761719 209.835938 152.863281 209.835938 C 153.097656 209.835938 153.324219 209.710938 153.441406 209.488281 C 153.609375 209.171875 153.488281 208.777344 153.171875 208.605469 C 147.488281 205.59375 140.105469 208.019531 139.792969 208.125 C 139.453125 208.238281 139.269531 208.609375 139.382812 208.953125 C 139.496094 209.292969 139.867188 209.476562 140.210938 209.363281 C 140.28125 209.339844 147.367188 207.007812 152.558594 209.761719 Z M 161.085938 195.082031 C 161.109375 195.085938 161.136719 195.085938 161.160156 195.085938 C 161.488281 195.085938 161.769531 194.84375 161.808594 194.511719 C 161.816406 194.464844 162.378906 189.902344 165.664062 187.875 C 167.730469 186.597656 170.464844 186.566406 173.800781 187.777344 C 174.140625 187.902344 174.515625 187.726562 174.636719 187.386719 C 174.761719 187.050781 174.585938 186.675781 174.246094 186.550781 C 170.515625 185.195312 167.394531 185.269531 164.96875 186.769531 C 161.144531 189.136719 160.535156 194.148438 160.511719 194.363281 C 160.472656 194.71875 160.726562 195.042969 161.085938 195.082031 Z M 178.363281 199.796875 C 178.542969 199.484375 178.4375 199.085938 178.125 198.902344 C 175.601562 197.445312 173.429688 197.011719 171.679688 197.609375 C 169.835938 198.242188 169.183594 199.792969 169.15625 199.859375 C 169.019531 200.191406 169.179688 200.570312 169.507812 200.707031 C 169.589844 200.742188 169.675781 200.757812 169.757812 200.757812 C 170.015625 200.757812 170.257812 200.605469 170.363281 200.359375 C 170.378906 200.3125 170.839844 199.265625 172.125 198.835938 C 173.480469 198.382812 175.332031 198.796875 177.472656 200.035156 C 177.78125 200.214844 178.183594 200.105469 178.363281 199.796875 Z M 188.382812 263.089844 C 188.0625 263.257812 187.941406 263.648438 188.105469 263.96875 C 188.269531 264.289062 188.664062 264.414062 188.984375 264.25 C 189.160156 264.15625 193.335938 262.089844 197.824219 266.015625 C 197.945312 266.125 198.101562 266.175781 198.253906 266.175781 C 198.433594 266.175781 198.613281 266.101562 198.742188 265.953125 C 198.980469 265.683594 198.953125 265.269531 198.683594 265.03125 C 193.503906 260.5 188.589844 262.980469 188.382812 263.089844 Z M 238.5 199.867188 C 232.707031 194.976562 229.457031 187.574219 226.847656 181.625 C 224.800781 176.96875 223.039062 172.945312 220.988281 172.675781 C 219.894531 172.53125 218.535156 173.476562 216.933594 175.476562 C 214.742188 178.214844 212.597656 179.480469 210.226562 179.453125 C 205.414062 179.394531 199.546875 174.132812 189.292969 160.6875 C 186.117188 156.523438 181.207031 154.90625 176.007812 153.191406 C 170.621094 151.417969 165.050781 149.582031 161.207031 144.71875 C 157.910156 140.546875 155.074219 134.203125 157.941406 130.058594 C 160.308594 126.636719 167.328125 123.894531 187.324219 130.273438 C 197.34375 133.464844 203.0625 134.15625 205.316406 132.445312 C 206.921875 131.226562 206.828125 128.644531 206.71875 125.65625 C 206.546875 121.003906 206.335938 115.207031 212.378906 111.328125 C 216.042969 108.972656 218.964844 108.34375 221.308594 109.40625 C 225.480469 111.296875 226.519531 118.199219 227.351562 123.746094 C 227.707031 126.097656 228.039062 128.320312 228.550781 129.664062 C 230.140625 133.839844 234.183594 138.84375 238.839844 140.324219 C 241.734375 141.246094 244.609375 140.769531 247.378906 138.910156 C 250.183594 137.027344 253.003906 136.613281 255.316406 137.746094 C 257.464844 138.800781 258.910156 141.105469 259.089844 143.753906 C 259.292969 146.753906 257.824219 149.609375 255.164062 151.394531 C 254.140625 152.078125 253.820312 152.574219 253.867188 152.804688 C 254.0625 153.851562 258.617188 154.84375 262.277344 155.640625 C 267.695312 156.824219 273.839844 158.167969 276.941406 160.894531 C 280.644531 164.160156 282.253906 167.4375 281.347656 169.890625 C 280.304688 172.710938 276.195312 174.195312 269.125 174.300781 C 260.890625 174.421875 256.539062 175.617188 255.015625 178.167969 C 253.625 180.496094 254.441406 184.402344 257.59375 190.460938 C 260.730469 196.5 260.640625 201.675781 257.351562 204.308594 C 256.058594 205.34375 254.253906 205.953125 252.074219 205.953125 C 248.394531 205.953125 243.648438 204.21875 238.5 199.867188 Z M 247.382812 150.925781 C 249.164062 149.730469 250.109375 147.910156 249.976562 145.929688 C 249.863281 144.246094 248.96875 142.796875 247.640625 142.144531 C 246.203125 141.441406 244.386719 141.738281 242.527344 142.988281 C 241.902344 143.40625 241.269531 143.746094 240.632812 144.011719 C 240.796875 144.066406 240.957031 144.125 241.113281 144.199219 C 242.453125 144.855469 243.351562 146.285156 243.464844 147.929688 C 243.589844 149.773438 242.6875 151.53125 241.054688 152.625 C 240.476562 153.015625 240.417969 153.214844 240.414062 153.214844 C 240.667969 153.640625 243.339844 154.222656 245.109375 154.609375 C 248.296875 155.304688 251.914062 156.097656 253.773438 157.734375 C 256.023438 159.710938 256.988281 161.734375 256.417969 163.273438 C 255.769531 165.035156 253.289062 165.957031 249.042969 166.023438 C 244.414062 166.089844 241.875 166.765625 241.050781 168.144531 C 240.292969 169.414062 240.773438 171.605469 242.558594 175.042969 C 244.453125 178.6875 244.375 181.832031 242.347656 183.453125 C 241.550781 184.089844 240.441406 184.464844 239.105469 184.464844 C 236.894531 184.464844 234.066406 183.4375 231.015625 180.859375 C 229.25 179.367188 227.890625 177.488281 226.773438 175.539062 C 228.78125 180.101562 231.28125 185.71875 235.597656 189.367188 C 241.550781 194.390625 246.734375 194.699219 249.035156 192.863281 C 251.167969 191.152344 251.125 187.601562 248.917969 183.355469 C 246.183594 178.09375 245.566406 174.742188 246.910156 172.484375 C 248.367188 170.046875 252.003906 168.960938 259.066406 168.855469 C 263.984375 168.78125 267.039062 167.8125 267.660156 166.128906 C 268.191406 164.6875 267.007812 162.507812 264.496094 160.292969 C 262.269531 158.332031 257.359375 157.261719 253.414062 156.398438 C 248.648438 155.359375 246.144531 154.746094 245.859375 153.230469 C 245.664062 152.210938 246.636719 151.425781 247.382812 150.925781 Z M 209.292969 137.832031 C 207.121094 139.480469 202.542969 139.023438 193.992188 136.296875 C 178.050781 131.210938 173.402344 133.726562 172.054688 135.679688 C 170.269531 138.257812 172.042969 142.667969 174.59375 145.890625 C 177.417969 149.460938 181.65625 150.859375 185.753906 152.210938 C 189.859375 153.5625 194.101562 154.960938 196.832031 158.542969 C 204.496094 168.589844 209.175781 172.894531 212.484375 172.933594 C 213.976562 172.949219 215.375 172.089844 216.867188 170.226562 C 218.3125 168.417969 219.570312 167.558594 220.796875 167.558594 C 220.910156 167.558594 221.023438 167.566406 221.136719 167.582031 C 222.304688 167.734375 223.234375 168.640625 224.121094 170.0625 C 223.023438 167.558594 221.984375 165.210938 220.949219 165.074219 C 220.425781 165.007812 219.691406 165.535156 218.835938 166.605469 C 217.5 168.273438 216.1875 169.042969 214.710938 169.023438 C 211.8125 168.992188 208.332031 165.894531 202.296875 157.980469 C 200.496094 155.621094 197.675781 154.691406 194.683594 153.707031 C 191.507812 152.660156 188.222656 151.578125 185.933594 148.679688 C 183.953125 146.175781 182.261719 142.351562 184.019531 139.8125 C 186.101562 136.800781 191.964844 136.808594 201.449219 139.832031 C 207.117188 141.636719 210.46875 142.066406 211.6875 141.140625 C 212.511719 140.515625 212.460938 139.078125 212.398438 137.410156 C 212.296875 134.628906 212.171875 131.167969 215.824219 128.820312 C 218.042969 127.394531 219.832031 127.019531 221.285156 127.679688 C 223.851562 128.84375 224.46875 132.949219 224.964844 136.246094 C 225.167969 137.601562 225.363281 138.882812 225.648438 139.636719 C 226.550781 142.011719 228.839844 144.855469 231.472656 145.691406 C 233.078125 146.203125 234.671875 145.933594 236.214844 144.898438 C 236.359375 144.800781 236.507812 144.71875 236.652344 144.632812 C 236.023438 144.578125 235.394531 144.453125 234.761719 144.253906 C 230.535156 142.910156 227.195312 138.574219 225.878906 135.113281 C 225.433594 133.9375 225.171875 132.199219 224.867188 130.191406 C 224.25 126.082031 223.480469 120.964844 220.757812 119.734375 C 219.316406 119.078125 217.3125 119.5625 214.804688 121.171875 C 210.585938 123.882812 210.730469 127.925781 210.863281 131.488281 C 210.957031 134.066406 211.046875 136.5 209.292969 137.832031 Z M 240.328125 151.542969 C 241.589844 150.699219 242.257812 149.414062 242.164062 148.015625 C 242.082031 146.835938 241.460938 145.824219 240.539062 145.371094 C 239.535156 144.878906 238.261719 145.097656 236.945312 145.980469 C 235.8125 146.742188 234.648438 147.152344 233.464844 147.230469 C 233.683594 147.285156 233.867188 147.355469 234.011719 147.429688 C 234.945312 147.886719 235.574219 148.878906 235.652344 150.015625 C 235.738281 151.285156 235.121094 152.492188 234 153.242188 C 233.929688 153.289062 233.871094 153.332031 233.828125 153.367188 C 234.328125 153.613281 235.574219 153.886719 236.523438 154.09375 C 238.601562 154.546875 240.953125 155.058594 242.191406 156.152344 C 243.734375 157.511719 244.363281 158.863281 243.957031 159.964844 C 243.496094 161.210938 241.875 161.839844 239.003906 161.882812 C 236.121094 161.925781 234.550781 162.324219 234.070312 163.128906 C 233.636719 163.859375 233.953125 165.234375 235.046875 167.332031 C 236.320312 169.78125 236.246094 171.90625 234.847656 173.023438 C 234.253906 173.5 233.5 173.730469 232.652344 173.730469 C 231.050781 173.730469 229.113281 172.90625 227.273438 171.355469 C 226.269531 170.503906 225.476562 169.46875 224.804688 168.378906 C 224.980469 168.769531 225.160156 169.179688 225.347656 169.601562 C 226.828125 172.972656 228.667969 177.164062 231.859375 179.859375 C 236.167969 183.5 239.894531 183.742188 241.535156 182.433594 C 243.039062 181.230469 242.988281 178.691406 241.40625 175.644531 C 239.359375 171.714844 238.90625 169.191406 239.933594 167.472656 C 241.039062 165.621094 243.757812 164.796875 249.027344 164.71875 C 253.8125 164.644531 254.949219 163.5 255.195312 162.820312 C 255.558594 161.84375 254.683594 160.269531 252.914062 158.714844 C 251.308594 157.300781 247.71875 156.515625 244.832031 155.886719 C 241.25 155.101562 239.367188 154.636719 239.136719 153.414062 C 238.953125 152.464844 239.988281 151.769531 240.328125 151.542969 Z M 212.476562 142.179688 C 210.828125 143.433594 207.410156 143.101562 201.054688 141.074219 C 189.421875 137.363281 186.0625 139.15625 185.09375 140.554688 C 183.828125 142.378906 185.117188 145.542969 186.957031 147.871094 C 189.003906 150.460938 192.101562 151.480469 195.09375 152.464844 C 198.140625 153.46875 201.289062 154.507812 203.335938 157.1875 C 208.945312 164.542969 212.351562 167.691406 214.726562 167.71875 C 215.773438 167.742188 216.753906 167.117188 217.820312 165.789062 C 218.917969 164.414062 219.890625 163.761719 220.84375 163.761719 C 220.9375 163.761719 221.03125 163.769531 221.121094 163.78125 C 221.964844 163.890625 222.636719 164.484375 223.269531 165.421875 C 223.105469 165.066406 222.953125 164.714844 222.804688 164.378906 C 222.179688 162.957031 221.472656 161.34375 220.933594 161.273438 C 220.84375 161.261719 220.492188 161.289062 219.789062 162.167969 C 218.882812 163.300781 217.96875 163.816406 216.957031 163.808594 C 215.011719 163.789062 212.726562 161.773438 208.800781 156.628906 C 207.691406 155.171875 205.910156 154.585938 204.027344 153.964844 C 201.953125 153.28125 199.8125 152.574219 198.296875 150.65625 C 196.914062 148.90625 195.859375 146.417969 197.058594 144.6875 C 198.460938 142.660156 202.316406 142.632812 208.515625 144.609375 C 212.027344 145.730469 214.167969 146.023438 214.875 145.484375 C 215.308594 145.160156 215.277344 144.289062 215.242188 143.285156 C 215.175781 141.539062 215.089844 139.144531 217.546875 137.566406 C 219.042969 136.601562 220.265625 136.359375 221.277344 136.816406 C 223.039062 137.617188 223.449219 140.320312 223.773438 142.496094 C 223.902344 143.351562 224.023438 144.164062 224.199219 144.625 C 224.757812 146.097656 226.171875 147.855469 227.792969 148.371094 C 228.75 148.675781 229.707031 148.515625 230.636719 147.890625 C 231.257812 147.472656 231.820312 147.273438 232.3125 147.195312 C 231.902344 147.144531 231.492188 147.0625 231.082031 146.933594 C 227.914062 145.925781 225.414062 142.6875 224.433594 140.101562 C 224.09375 139.214844 223.902344 137.929688 223.679688 136.441406 C 223.230469 133.453125 222.671875 129.738281 220.75 128.867188 C 219.742188 128.414062 218.324219 128.765625 216.53125 129.917969 C 213.503906 131.859375 213.613281 134.785156 213.707031 137.363281 C 213.773438 139.308594 213.839844 141.144531 212.476562 142.179688 Z M 233.273438 152.15625 C 234.011719 151.664062 234.402344 150.914062 234.347656 150.105469 C 234.304688 149.429688 233.953125 148.855469 233.4375 148.601562 C 232.871094 148.324219 232.132812 148.457031 231.363281 148.976562 C 230.105469 149.820312 228.730469 150.039062 227.394531 149.613281 C 225.285156 148.945312 223.625 146.796875 222.976562 145.089844 C 222.753906 144.496094 222.625 143.660156 222.480469 142.6875 C 222.214844 140.925781 221.851562 138.511719 220.734375 138.007812 C 220.167969 137.75 219.328125 137.96875 218.25 138.664062 C 216.417969 139.839844 216.480469 141.566406 216.542969 143.238281 C 216.585938 144.492188 216.632812 145.789062 215.664062 146.527344 C 214.519531 147.394531 212.332031 147.199219 208.117188 145.851562 C 200.515625 143.429688 198.601562 144.75 198.128906 145.429688 C 197.386719 146.503906 198.191406 148.425781 199.316406 149.847656 C 200.589844 151.457031 202.457031 152.074219 204.433594 152.722656 C 206.421875 153.378906 208.480469 154.058594 209.835938 155.835938 C 213.339844 160.433594 215.539062 162.488281 216.96875 162.503906 C 217.585938 162.507812 218.125 162.15625 218.769531 161.355469 C 219.253906 160.746094 219.988281 159.964844 220.894531 159.964844 C 220.964844 159.964844 221.03125 159.96875 221.101562 159.976562 C 222.367188 160.144531 223.050781 161.703125 224 163.855469 C 224.9375 165.996094 226.109375 168.660156 228.117188 170.359375 C 230.664062 172.507812 233.019531 172.816406 234.03125 172.003906 C 234.902344 171.308594 234.847656 169.789062 233.886719 167.9375 C 232.515625 165.296875 232.234375 163.660156 232.949219 162.464844 C 233.707031 161.195312 235.511719 160.632812 238.984375 160.578125 C 242.113281 160.53125 242.644531 159.753906 242.730469 159.515625 C 242.925781 158.988281 242.375 158.054688 241.328125 157.132812 C 240.34375 156.265625 238.070312 155.769531 236.246094 155.371094 C 233.96875 154.871094 232.59375 154.574219 232.40625 153.601562 C 232.261719 152.835938 233.023438 152.324219 233.273438 152.15625 Z M 225.03125 174.8125 C 223.625 171.636719 222.363281 169.058594 220.96875 168.875 C 220.160156 168.769531 219.121094 169.496094 217.886719 171.039062 C 216.121094 173.246094 214.414062 174.253906 212.46875 174.238281 C 208.613281 174.191406 203.9375 170.015625 195.792969 159.335938 C 193.308594 156.074219 189.441406 154.796875 185.347656 153.449219 C 181.066406 152.039062 176.636719 150.578125 173.570312 146.699219 C 170.929688 143.363281 168.667969 138.277344 170.980469 134.933594 C 172.878906 132.191406 178.484375 129.980469 194.386719 135.050781 C 202.269531 137.566406 206.757812 138.117188 208.503906 136.792969 C 209.71875 135.871094 209.644531 133.863281 209.558594 131.535156 C 209.421875 127.816406 209.253906 123.1875 214.101562 120.074219 C 217.042969 118.183594 219.398438 117.683594 221.300781 118.542969 C 224.667969 120.070312 225.496094 125.574219 226.160156 129.996094 C 226.441406 131.851562 226.703125 133.601562 227.101562 134.648438 C 228.347656 137.925781 231.511719 141.847656 235.15625 143.007812 C 237.3125 143.695312 239.453125 143.371094 241.519531 142.074219 C 240.5 142.054688 239.476562 141.898438 238.445312 141.570312 C 233.160156 139.890625 228.980469 134.460938 227.332031 130.128906 C 226.773438 128.65625 226.445312 126.472656 226.066406 123.941406 C 225.277344 118.707031 224.296875 112.191406 220.773438 110.597656 C 218.890625 109.742188 216.304688 110.359375 213.085938 112.425781 C 207.667969 115.90625 207.855469 121.0625 208.023438 125.613281 C 208.140625 128.824219 208.253906 131.855469 206.109375 133.484375 C 203.410156 135.535156 197.675781 134.945312 186.929688 131.519531 C 166.679688 125.0625 160.75 128.296875 159.015625 130.804688 C 156.554688 134.363281 159.210938 140.089844 162.230469 143.914062 C 165.832031 148.464844 171.210938 150.238281 176.414062 151.953125 C 181.574219 153.652344 186.910156 155.414062 190.332031 159.898438 C 200.175781 172.8125 205.945312 178.097656 210.242188 178.148438 C 212.222656 178.171875 213.992188 177.0625 215.914062 174.660156 C 217.707031 172.421875 219.257812 171.359375 220.746094 171.359375 C 220.882812 171.359375 221.019531 171.367188 221.15625 171.386719 C 222.667969 171.582031 223.867188 172.839844 225.03125 174.8125 Z M 239.339844 198.871094 C 246.933594 205.285156 253.578125 205.65625 256.535156 203.292969 C 259.304688 201.078125 259.265625 196.507812 256.433594 191.066406 C 253.011719 184.476562 252.226562 180.292969 253.894531 177.5 C 255.699219 174.476562 260.25 173.128906 269.105469 172.996094 C 277.171875 172.875 279.550781 170.996094 280.125 169.4375 C 280.820312 167.546875 279.308594 164.71875 276.078125 161.875 C 273.230469 159.371094 267.003906 158.011719 262 156.917969 C 256.214844 155.65625 252.925781 154.851562 252.585938 153.050781 C 252.359375 151.859375 253.535156 150.914062 254.4375 150.308594 C 256.742188 148.765625 257.960938 146.410156 257.789062 143.84375 C 257.640625 141.65625 256.472656 139.769531 254.742188 138.917969 C 252.867188 138 250.511719 138.378906 248.109375 139.992188 C 247.777344 140.214844 247.441406 140.414062 247.105469 140.601562 C 247.488281 140.683594 247.859375 140.800781 248.214844 140.972656 C 249.960938 141.832031 251.132812 143.695312 251.277344 145.84375 C 251.441406 148.265625 250.257812 150.570312 248.109375 152.007812 C 247.113281 152.675781 247.140625 152.984375 247.140625 152.988281 C 247.28125 153.726562 251.140625 154.570312 253.691406 155.125 C 257.996094 156.066406 262.878906 157.132812 265.355469 159.316406 C 268.335938 161.9375 269.621094 164.585938 268.882812 166.582031 C 268.039062 168.871094 264.742188 170.078125 259.085938 170.164062 C 252.617188 170.257812 249.210938 171.179688 248.03125 173.15625 C 246.957031 174.957031 247.605469 178.007812 250.074219 182.753906 C 252.59375 187.59375 252.507812 191.757812 249.847656 193.882812 C 248.804688 194.71875 247.347656 195.210938 245.589844 195.210938 C 242.644531 195.210938 238.855469 193.828125 234.757812 190.363281 C 232.1875 188.195312 230.25 185.40625 228.675781 182.546875 C 231.132812 188.085938 234.230469 194.554688 239.339844 198.871094 Z M 239.339844 198.871094 " fill-opacity="1" fill-rule="nonzero"/><g clip-path="url(#5a71e9f7fa)"><path fill="#232136" d="M 210.863281 131.488281 C 210.734375 127.921875 210.585938 123.882812 214.808594 121.171875 C 217.3125 119.5625 219.316406 119.078125 220.761719 119.730469 C 223.484375 120.964844 224.25 126.082031 224.871094 130.191406 C 225.171875 132.199219 225.433594 133.933594 225.882812 135.113281 C 227.195312 138.574219 230.535156 142.90625 234.761719 144.25 C 235.394531 144.453125 236.023438 144.578125 236.652344 144.632812 C 236.507812 144.71875 236.363281 144.800781 236.21875 144.898438 C 234.675781 145.933594 233.078125 146.199219 231.472656 145.691406 C 228.84375 144.851562 226.554688 142.011719 225.652344 139.636719 C 225.363281 138.882812 225.171875 137.601562 224.96875 136.246094 C 224.472656 132.949219 223.855469 128.84375 221.289062 127.679688 C 219.832031 127.019531 218.042969 127.394531 215.824219 128.820312 C 212.171875 131.164062 212.296875 134.628906 212.398438 137.410156 C 212.460938 139.078125 212.511719 140.515625 211.691406 141.140625 C 210.46875 142.066406 207.121094 141.636719 201.453125 139.832031 C 191.96875 136.804688 186.101562 136.800781 184.019531 139.808594 C 182.265625 142.351562 183.953125 146.175781 185.933594 148.679688 C 188.222656 151.574219 191.507812 152.660156 194.6875 153.707031 C 197.675781 154.691406 200.5 155.621094 202.296875 157.980469 C 208.332031 165.894531 211.8125 168.988281 214.714844 169.023438 C 216.1875 169.042969 217.503906 168.273438 218.839844 166.605469 C 219.695312 165.53125 220.429688 165.003906 220.953125 165.074219 C 221.984375 165.207031 223.023438 167.558594 224.125 170.0625 C 223.238281 168.636719 222.308594 167.734375 221.140625 167.582031 C 221.027344 167.566406 220.910156 167.558594 220.796875 167.558594 C 219.574219 167.558594 218.316406 168.414062 216.867188 170.222656 C 215.375 172.089844 213.976562 172.949219 212.484375 172.933594 C 209.175781 172.894531 204.496094 168.589844 196.832031 158.542969 C 194.101562 154.960938 189.859375 153.5625 185.757812 152.210938 C 181.65625 150.859375 177.417969 149.460938 174.59375 145.890625 C 172.046875 142.664062 170.269531 138.257812 172.054688 135.675781 C 173.40625 133.726562 178.050781 131.210938 193.992188 136.296875 C 202.546875 139.023438 207.121094 139.480469 209.292969 137.832031 C 211.046875 136.5 210.957031 134.066406 210.863281 131.488281 Z M 240.328125 151.542969 C 241.589844 150.699219 242.257812 149.414062 242.164062 148.015625 C 242.082031 146.835938 241.460938 145.824219 240.539062 145.371094 C 239.535156 144.878906 238.261719 145.097656 236.945312 145.980469 C 235.8125 146.742188 234.648438 147.152344 233.464844 147.230469 C 233.683594 147.285156 233.867188 147.355469 234.011719 147.429688 C 234.945312 147.886719 235.574219 148.878906 235.652344 150.015625 C 235.738281 151.285156 235.121094 152.492188 234 153.242188 C 233.929688 153.289062 233.871094 153.332031 233.828125 153.367188 C 234.328125 153.613281 235.574219 153.886719 236.523438 154.09375 C 238.601562 154.546875 240.953125 155.058594 242.191406 156.152344 C 243.734375 157.511719 244.363281 158.863281 243.957031 159.964844 C 243.496094 161.210938 241.875 161.839844 239.003906 161.882812 C 236.121094 161.925781 234.550781 162.324219 234.070312 163.128906 C 233.636719 163.859375 233.953125 165.234375 235.046875 167.332031 C 236.320312 169.78125 236.246094 171.90625 234.847656 173.023438 C 234.253906 173.5 233.5 173.730469 232.652344 173.730469 C 231.050781 173.730469 229.113281 172.90625 227.273438 171.355469 C 226.269531 170.503906 225.476562 169.46875 224.804688 168.378906 C 224.980469 168.769531 225.160156 169.179688 225.347656 169.601562 C 226.828125 172.972656 228.667969 177.164062 231.859375 179.859375 C 236.167969 183.5 239.894531 183.742188 241.535156 182.433594 C 243.039062 181.230469 242.988281 178.691406 241.40625 175.644531 C 239.359375 171.714844 238.90625 169.191406 239.933594 167.472656 C 241.039062 165.621094 243.757812 164.796875 249.027344 164.71875 C 253.8125 164.644531 254.949219 163.5 255.195312 162.820312 C 255.558594 161.84375 254.683594 160.269531 252.914062 158.714844 C 251.308594 157.300781 247.71875 156.515625 244.832031 155.886719 C 241.25 155.101562 239.367188 154.636719 239.136719 153.414062 C 238.953125 152.464844 239.988281 151.769531 240.328125 151.542969 Z M 233.273438 152.15625 C 234.011719 151.664062 234.402344 150.914062 234.347656 150.105469 C 234.304688 149.429688 233.953125 148.855469 233.4375 148.601562 C 232.871094 148.324219 232.132812 148.457031 231.363281 148.976562 C 230.105469 149.820312 228.730469 150.039062 227.394531 149.613281 C 225.285156 148.945312 223.625 146.796875 222.976562 145.089844 C 222.753906 144.496094 222.625 143.660156 222.480469 142.6875 C 222.214844 140.925781 221.851562 138.511719 220.734375 138.007812 C 220.167969 137.75 219.328125 137.96875 218.25 138.664062 C 216.417969 139.839844 216.480469 141.566406 216.542969 143.238281 C 216.585938 144.492188 216.632812 145.789062 215.664062 146.527344 C 214.519531 147.394531 212.332031 147.199219 208.117188 145.851562 C 200.515625 143.429688 198.601562 144.75 198.128906 145.429688 C 197.386719 146.503906 198.191406 148.425781 199.316406 149.847656 C 200.589844 151.457031 202.457031 152.074219 204.433594 152.722656 C 206.421875 153.378906 208.480469 154.058594 209.835938 155.835938 C 213.339844 160.433594 215.539062 162.488281 216.96875 162.503906 C 217.585938 162.507812 218.125 162.15625 218.769531 161.355469 C 219.253906 160.746094 219.988281 159.964844 220.894531 159.964844 C 220.964844 159.964844 221.03125 159.96875 221.101562 159.976562 C 222.367188 160.144531 223.050781 161.703125 224 163.855469 C 224.9375 165.996094 226.109375 168.660156 228.117188 170.359375 C 230.664062 172.507812 233.019531 172.816406 234.03125 172.003906 C 234.902344 171.308594 234.847656 169.789062 233.886719 167.9375 C 232.515625 165.296875 232.234375 163.660156 232.949219 162.464844 C 233.707031 161.195312 235.511719 160.632812 238.984375 160.578125 C 242.113281 160.53125 242.644531 159.753906 242.730469 159.515625 C 242.925781 158.988281 242.375 158.054688 241.328125 157.132812 C 240.34375 156.265625 238.070312 155.769531 236.246094 155.371094 C 233.96875 154.871094 232.59375 154.574219 232.40625 153.601562 C 232.261719 152.835938 233.023438 152.324219 233.273438 152.15625 Z M 247.382812 150.925781 C 249.164062 149.730469 250.109375 147.910156 249.976562 145.929688 C 249.863281 144.246094 248.96875 142.796875 247.640625 142.144531 C 246.203125 141.441406 244.386719 141.738281 242.527344 142.988281 C 241.902344 143.40625 241.269531 143.746094 240.632812 144.011719 C 240.796875 144.066406 240.957031 144.125 241.113281 144.199219 C 242.453125 144.855469 243.351562 146.285156 243.464844 147.929688 C 243.589844 149.773438 242.6875 151.53125 241.054688 152.625 C 240.476562 153.015625 240.417969 153.214844 240.414062 153.214844 C 240.667969 153.640625 243.339844 154.222656 245.109375 154.609375 C 248.296875 155.304688 251.914062 156.097656 253.773438 157.734375 C 256.023438 159.710938 256.988281 161.734375 256.417969 163.273438 C 255.769531 165.035156 253.289062 165.957031 249.042969 166.023438 C 244.414062 166.089844 241.875 166.765625 241.050781 168.144531 C 240.292969 169.414062 240.773438 171.605469 242.558594 175.042969 C 244.453125 178.6875 244.375 181.832031 242.347656 183.453125 C 241.550781 184.089844 240.441406 184.464844 239.105469 184.464844 C 236.894531 184.464844 234.066406 183.4375 231.015625 180.859375 C 229.25 179.367188 227.890625 177.488281 226.773438 175.539062 C 228.78125 180.101562 231.28125 185.71875 235.597656 189.367188 C 241.550781 194.390625 246.734375 194.699219 249.035156 192.863281 C 251.167969 191.152344 251.125 187.601562 248.917969 183.355469 C 246.183594 178.09375 245.566406 174.742188 246.910156 172.484375 C 248.367188 170.046875 252.003906 168.960938 259.066406 168.855469 C 263.984375 168.78125 267.039062 167.8125 267.660156 166.128906 C 268.191406 164.6875 267.007812 162.507812 264.496094 160.292969 C 262.269531 158.332031 257.359375 157.261719 253.414062 156.398438 C 248.648438 155.359375 246.144531 154.746094 245.859375 153.230469 C 245.664062 152.210938 246.636719 151.425781 247.382812 150.925781 Z M 212.476562 142.179688 C 210.828125 143.433594 207.410156 143.101562 201.054688 141.074219 C 189.421875 137.363281 186.0625 139.15625 185.09375 140.554688 C 183.828125 142.378906 185.117188 145.542969 186.957031 147.871094 C 189.003906 150.460938 192.101562 151.480469 195.09375 152.464844 C 198.140625 153.46875 201.289062 154.507812 203.335938 157.1875 C 208.945312 164.542969 212.351562 167.691406 214.726562 167.71875 C 215.773438 167.742188 216.753906 167.117188 217.820312 165.789062 C 218.917969 164.414062 219.890625 163.761719 220.84375 163.761719 C 220.9375 163.761719 221.03125 163.769531 221.121094 163.78125 C 221.964844 163.890625 222.636719 164.484375 223.269531 165.421875 C 223.105469 165.066406 222.953125 164.714844 222.804688 164.378906 C 222.179688 162.957031 221.472656 161.34375 220.933594 161.273438 C 220.84375 161.261719 220.492188 161.289062 219.789062 162.167969 C 218.882812 163.300781 217.96875 163.816406 216.957031 163.808594 C 215.011719 163.789062 212.726562 161.773438 208.800781 156.628906 C 207.691406 155.171875 205.910156 154.585938 204.027344 153.964844 C 201.953125 153.28125 199.8125 152.574219 198.296875 150.65625 C 196.914062 148.90625 195.859375 146.417969 197.058594 144.6875 C 198.460938 142.660156 202.316406 142.632812 208.515625 144.609375 C 212.027344 145.730469 214.167969 146.023438 214.875 145.484375 C 215.308594 145.160156 215.277344 144.289062 215.242188 143.285156 C 215.175781 141.539062 215.089844 139.144531 217.546875 137.566406 C 219.042969 136.601562 220.265625 136.359375 221.277344 136.816406 C 223.039062 137.617188 223.449219 140.320312 223.773438 142.496094 C 223.902344 143.351562 224.023438 144.164062 224.199219 144.625 C 224.757812 146.097656 226.171875 147.855469 227.792969 148.371094 C 228.75 148.675781 229.707031 148.515625 230.636719 147.890625 C 231.257812 147.472656 231.820312 147.273438 232.3125 147.195312 C 231.902344 147.144531 231.492188 147.0625 231.082031 146.933594 C 227.914062 145.925781 225.414062 142.6875 224.433594 140.101562 C 224.09375 139.214844 223.902344 137.929688 223.679688 136.441406 C 223.230469 133.453125 222.671875 129.738281 220.75 128.867188 C 219.742188 128.414062 218.324219 128.765625 216.53125 129.917969 C 213.503906 131.859375 213.613281 134.785156 213.707031 137.363281 C 213.773438 139.308594 213.839844 141.144531 212.476562 142.179688 Z M 220.96875 168.875 C 220.160156 168.769531 219.121094 169.496094 217.886719 171.039062 C 216.121094 173.246094 214.414062 174.253906 212.46875 174.238281 C 208.613281 174.191406 203.9375 170.015625 195.792969 159.335938 C 193.308594 156.074219 189.441406 154.796875 185.347656 153.449219 C 181.066406 152.039062 176.636719 150.578125 173.570312 146.699219 C 170.929688 143.363281 168.667969 138.277344 170.980469 134.933594 C 172.878906 132.191406 178.484375 129.980469 194.386719 135.050781 C 202.269531 137.566406 206.757812 138.117188 208.503906 136.792969 C 209.71875 135.871094 209.644531 133.863281 209.558594 131.535156 C 209.421875 127.816406 209.253906 123.1875 214.101562 120.074219 C 217.042969 118.183594 219.398438 117.683594 221.300781 118.542969 C 224.667969 120.070312 225.496094 125.574219 226.160156 129.996094 C 226.441406 131.851562 226.703125 133.601562 227.101562 134.648438 C 228.347656 137.925781 231.511719 141.847656 235.15625 143.007812 C 237.3125 143.695312 239.453125 143.371094 241.519531 142.074219 C 240.5 142.054688 239.476562 141.898438 238.445312 141.570312 C 233.160156 139.890625 228.980469 134.460938 227.332031 130.128906 C 226.773438 128.65625 226.445312 126.472656 226.066406 123.941406 C 225.277344 118.707031 224.296875 112.191406 220.773438 110.597656 C 218.890625 109.742188 216.304688 110.359375 213.085938 112.425781 C 207.667969 115.90625 207.855469 121.0625 208.023438 125.613281 C 208.140625 128.824219 208.253906 131.855469 206.109375 133.484375 C 203.410156 135.535156 197.675781 134.945312 186.929688 131.519531 C 166.679688 125.0625 160.75 128.296875 159.015625 130.804688 C 156.554688 134.363281 159.210938 140.089844 162.230469 143.914062 C 165.832031 148.464844 171.210938 150.238281 176.414062 151.953125 C 181.574219 153.652344 186.910156 155.414062 190.332031 159.898438 C 200.175781 172.8125 205.945312 178.097656 210.242188 178.148438 C 212.222656 178.171875 213.992188 177.0625 215.914062 174.660156 C 217.707031 172.421875 219.257812 171.359375 220.746094 171.359375 C 220.882812 171.359375 221.019531 171.367188 221.15625 171.386719 C 222.667969 171.585938 223.867188 172.84375 225.03125 174.816406 C 223.625 171.636719 222.363281 169.058594 220.96875 168.875 Z M 256.535156 203.292969 C 259.304688 201.078125 259.265625 196.507812 256.433594 191.066406 C 253.011719 184.476562 252.226562 180.292969 253.894531 177.5 C 255.699219 174.476562 260.25 173.128906 269.105469 172.996094 C 277.171875 172.875 279.550781 170.996094 280.125 169.4375 C 280.820312 167.546875 279.308594 164.71875 276.078125 161.875 C 273.230469 159.371094 267.003906 158.011719 262 156.917969 C 256.214844 155.65625 252.925781 154.851562 252.585938 153.050781 C 252.359375 151.859375 253.535156 150.914062 254.4375 150.308594 C 256.742188 148.765625 257.960938 146.410156 257.789062 143.84375 C 257.640625 141.65625 256.472656 139.769531 254.742188 138.917969 C 252.867188 138 250.511719 138.378906 248.109375 139.992188 C 247.777344 140.214844 247.441406 140.414062 247.105469 140.601562 C 247.488281 140.683594 247.859375 140.800781 248.214844 140.972656 C 249.960938 141.832031 251.132812 143.695312 251.277344 145.84375 C 251.441406 148.265625 250.257812 150.570312 248.109375 152.007812 C 247.113281 152.675781 247.140625 152.984375 247.140625 152.988281 C 247.28125 153.726562 251.140625 154.570312 253.691406 155.125 C 257.996094 156.066406 262.878906 157.132812 265.355469 159.316406 C 268.335938 161.9375 269.621094 164.585938 268.882812 166.582031 C 268.039062 168.871094 264.742188 170.078125 259.085938 170.164062 C 252.617188 170.257812 249.210938 171.179688 248.03125 173.15625 C 246.957031 174.957031 247.605469 178.007812 250.074219 182.753906 C 252.59375 187.59375 252.507812 191.757812 249.847656 193.882812 C 248.804688 194.71875 247.347656 195.210938 245.589844 195.210938 C 242.644531 195.210938 238.855469 193.828125 234.757812 190.363281 C 232.1875 188.195312 230.25 185.40625 228.675781 182.546875 C 231.132812 188.089844 234.230469 194.558594 239.339844 198.871094 C 246.933594 205.285156 253.578125 205.65625 256.535156 203.292969 Z M 151.320312 151.027344 L 151.320312 18.117188 C 151.320312 17.882812 151.441406 17.667969 151.644531 17.550781 C 151.847656 17.4375 152.09375 17.4375 152.296875 17.550781 L 333.601562 122.226562 C 333.804688 122.34375 333.929688 122.558594 333.929688 122.792969 L 333.929688 255.703125 C 333.929688 255.9375 333.804688 256.152344 333.601562 256.269531 C 333.5 256.328125 333.386719 256.355469 333.277344 256.355469 C 333.164062 256.355469 333.050781 256.328125 332.949219 256.269531 L 151.644531 151.59375 C 151.441406 151.476562 151.320312 151.261719 151.320312 151.027344 Z M 252.074219 205.953125 C 254.253906 205.953125 256.058594 205.34375 257.351562 204.3125 C 260.644531 201.679688 260.734375 196.503906 257.59375 190.460938 C 254.441406 184.40625 253.625 180.5 255.015625 178.167969 C 256.539062 175.617188 260.890625 174.425781 269.125 174.300781 C 276.195312 174.195312 280.308594 172.710938 281.347656 169.890625 C 282.253906 167.4375 280.648438 164.160156 276.941406 160.898438 C 273.839844 158.167969 267.699219 156.828125 262.277344 155.644531 C 258.617188 154.84375 254.066406 153.851562 253.867188 152.808594 C 253.824219 152.574219 254.140625 152.082031 255.164062 151.394531 C 257.824219 149.609375 259.292969 146.757812 259.089844 143.757812 C 258.914062 141.105469 257.464844 138.800781 255.316406 137.746094 C 253.003906 136.613281 250.1875 137.027344 247.378906 138.910156 C 244.609375 140.773438 241.734375 141.25 238.839844 140.328125 C 234.183594 138.847656 230.140625 133.84375 228.550781 129.664062 C 228.042969 128.324219 227.707031 126.101562 227.355469 123.75 C 226.519531 118.199219 225.480469 111.296875 221.308594 109.40625 C 218.964844 108.347656 216.046875 108.976562 212.378906 111.328125 C 206.335938 115.210938 206.546875 121.003906 206.71875 125.660156 C 206.828125 128.648438 206.921875 131.226562 205.316406 132.445312 C 203.0625 134.160156 197.34375 133.46875 187.324219 130.273438 C 167.328125 123.898438 160.308594 126.636719 157.941406 130.058594 C 155.074219 134.207031 157.910156 140.550781 161.207031 144.722656 C 165.050781 149.582031 170.621094 151.417969 176.007812 153.191406 C 181.207031 154.90625 186.117188 156.527344 189.292969 160.6875 C 199.546875 174.136719 205.417969 179.398438 210.226562 179.453125 C 212.597656 179.480469 214.742188 178.21875 216.9375 175.476562 C 218.535156 173.476562 219.894531 172.535156 220.988281 172.679688 C 223.039062 172.949219 224.800781 176.96875 226.847656 181.625 C 229.457031 187.574219 232.707031 194.980469 238.5 199.871094 C 243.648438 204.21875 248.394531 205.953125 252.074219 205.953125 Z M 356.082031 325.496094 C 353.570312 331.046875 342.769531 333.671875 327.890625 332.351562 C 311.632812 330.910156 300.84375 332.582031 298.292969 336.941406 C 297.148438 338.894531 297.644531 341.453125 299.761719 344.546875 C 304.011719 350.761719 305.328125 354.734375 303.902344 357.050781 C 301.929688 360.257812 295.304688 359.371094 287.632812 358.34375 C 285.761719 358.09375 283.824219 357.832031 281.917969 357.628906 C 274.988281 356.890625 268.394531 361.566406 262.015625 366.089844 C 255.984375 370.367188 249.761719 374.78125 243.097656 374.78125 C 242.503906 374.78125 241.910156 374.746094 241.308594 374.671875 C 233.410156 373.710938 228.308594 370.894531 226.9375 366.738281 C 226.058594 364.082031 226.351562 359.65625 232.703125 353.636719 C 235.015625 351.449219 236.796875 349.066406 238.015625 346.585938 L 215.828125 359.5 C 213.878906 360.632812 211.6875 361.199219 209.5 361.199219 C 207.324219 361.199219 205.152344 360.640625 203.210938 359.519531 L 21.78125 254.769531 C 19.28125 253.328125 17.726562 250.636719 17.726562 247.75 L 17.726562 232.460938 C 17.726562 229.53125 19.242188 226.90625 21.78125 225.441406 L 142.671875 155.644531 L 142.671875 16.050781 C 142.671875 13.207031 144.105469 10.660156 146.507812 9.171875 C 146.53125 9.15625 146.546875 9.136719 146.570312 9.121094 L 146.644531 9.082031 C 146.671875 9.066406 146.695312 9.046875 146.726562 9.03125 C 146.808594 8.980469 146.898438 8.949219 146.984375 8.902344 L 160.714844 1.558594 C 163.203125 0.226562 166.148438 0.273438 168.589844 1.683594 L 349.523438 106.148438 C 351.457031 107.261719 353.023438 108.855469 354.109375 110.726562 C 354.113281 110.738281 354.125 110.742188 354.128906 110.75 C 354.136719 110.761719 354.136719 110.773438 354.140625 110.78125 C 355.21875 112.660156 355.816406 114.8125 355.816406 117.042969 L 355.816406 256.148438 C 355.816406 260.628906 353.40625 264.804688 349.523438 267.046875 L 342.574219 271.058594 L 342.574219 278.503906 C 342.574219 282.96875 340.179688 287.132812 336.320312 289.378906 L 324.46875 296.273438 C 325.183594 299.691406 325.730469 303.847656 326.109375 309.058594 C 326.535156 314.929688 332.554688 314.773438 339.523438 314.59375 C 344.871094 314.453125 350.402344 314.3125 353.484375 317.25 C 356.335938 319.964844 357.257812 322.894531 356.082031 325.496094 Z M 352.585938 318.195312 C 349.894531 315.632812 344.640625 315.769531 339.558594 315.898438 C 332.558594 316.082031 325.324219 316.269531 324.808594 309.152344 C 323.414062 289.910156 319.828125 285.496094 314.085938 279.890625 C 304.324219 270.347656 286.734375 260 280.269531 264.816406 C 277.390625 266.964844 278.519531 271.125 279.613281 275.148438 C 280.523438 278.492188 281.378906 281.648438 279.90625 283.660156 C 279.058594 284.8125 277.578125 285.414062 275.375 285.5 C 272.082031 285.628906 269.84375 285.035156 268.328125 283.628906 C 265.960938 281.433594 265.828125 277.644531 265.652344 272.847656 C 265.566406 270.4375 265.46875 267.703125 265.0625 264.832031 C 263.417969 253.195312 239.664062 237.308594 228.941406 238.386719 C 226.734375 238.609375 225.367188 239.15625 224.761719 240.0625 C 223.921875 241.320312 224.542969 243.378906 225.199219 245.558594 C 226.113281 248.585938 227.148438 252.019531 224.769531 254.703125 C 222.359375 257.421875 219.941406 257.699219 217.8125 257.945312 C 215.214844 258.246094 212.972656 258.503906 210.542969 262.644531 C 209.113281 265.082031 208.726562 267.339844 209.367188 269.554688 C 210.996094 275.164062 218.984375 279.277344 225.402344 282.578125 C 230.71875 285.316406 234.5625 287.292969 234.355469 289.660156 C 234.222656 291.203125 232.433594 292.429688 228.558594 293.640625 C 217.890625 296.976562 210.4375 289.710938 203.863281 283.300781 C 199.511719 279.058594 195.402344 275.050781 191.117188 275.050781 C 191.058594 275.050781 190.996094 275.054688 190.9375 275.054688 C 188.46875 275.121094 186.023438 276.503906 183.457031 279.289062 C 180.273438 282.742188 179.015625 285.820312 179.609375 288.691406 C 181 295.398438 192.625 300.558594 204.933594 306.027344 C 210.84375 308.652344 216.953125 311.363281 222.554688 314.46875 C 233.675781 320.640625 240.097656 328.183594 241.125 336.28125 C 241.9375 342.714844 239.265625 349.214844 233.601562 354.582031 C 228.964844 358.976562 227.089844 363.035156 228.175781 366.328125 C 229.359375 369.925781 234.207031 372.496094 241.46875 373.378906 C 248.308594 374.210938 254.601562 369.75 261.261719 365.027344 C 267.835938 360.363281 274.636719 355.542969 282.054688 356.332031 C 283.980469 356.539062 285.925781 356.800781 287.804688 357.050781 C 294.726562 357.976562 301.261719 358.855469 302.792969 356.367188 C 303.882812 354.59375 302.5 350.867188 298.683594 345.285156 C 296.257812 341.738281 295.746094 338.710938 297.167969 336.28125 C 300.828125 330.023438 315.960938 329.984375 328.007812 331.054688 C 345.128906 332.574219 353.191406 328.722656 354.890625 324.960938 C 356.085938 322.320312 354.296875 319.824219 352.585938 318.195312 Z M 161.328125 2.710938 L 151.480469 7.976562 C 152.636719 8.082031 153.777344 8.421875 154.832031 9.03125 L 336.285156 113.792969 C 338.03125 114.800781 339.476562 116.203125 340.539062 117.84375 L 352.652344 110.851562 C 351.699219 109.40625 350.417969 108.167969 348.871094 107.277344 L 167.9375 2.816406 C 165.886719 1.632812 163.417969 1.589844 161.328125 2.710938 Z M 181.609375 277.523438 L 132.335938 249.074219 L 108.355469 262.921875 L 132.664062 276.957031 L 157.625 291.367188 Z M 95.710938 270.21875 L 119.691406 284.070312 L 131.03125 277.519531 L 107.046875 263.675781 Z M 121 284.820312 L 144.980469 298.667969 L 156.320312 292.121094 L 132.335938 278.273438 Z M 267.222656 277.40625 C 267.472656 279.710938 267.984375 281.527344 269.214844 282.671875 C 270.441406 283.8125 272.4375 284.308594 275.324219 284.195312 C 277.101562 284.125 278.257812 283.699219 278.851562 282.886719 C 279.957031 281.382812 279.175781 278.519531 278.355469 275.488281 C 278.003906 274.195312 277.636719 272.851562 277.402344 271.53125 Z M 277.210938 270.132812 C 277.117188 269.195312 277.121094 268.277344 277.273438 267.421875 L 270.390625 263.449219 L 264.917969 260.289062 C 265.648438 261.769531 266.15625 263.234375 266.355469 264.648438 C 266.769531 267.589844 266.871094 270.359375 266.957031 272.800781 C 266.996094 273.921875 267.035156 274.980469 267.101562 275.972656 Z M 223.675781 239.339844 C 224.136719 238.648438 224.867188 238.121094 225.859375 237.738281 L 211.472656 229.429688 L 208.9375 230.894531 C 211.636719 233.519531 212.757812 236.5625 212.097656 239.511719 C 211.53125 242.011719 209.738281 244.132812 207.144531 245.46875 L 211.472656 247.964844 L 223.0625 241.273438 C 223.105469 240.578125 223.285156 239.925781 223.675781 239.339844 Z M 223.792969 253.835938 C 225.6875 251.699219 224.804688 248.769531 223.949219 245.9375 C 223.617188 244.828125 223.292969 243.75 223.136719 242.734375 L 212.777344 248.71875 L 223.011719 254.628906 C 223.269531 254.394531 223.53125 254.132812 223.792969 253.835938 Z M 207.78125 267.382812 L 202.574219 264.378906 C 202.902344 265.304688 203.039062 266.265625 203.167969 267.21875 L 203.191406 267.40625 C 203.425781 269.101562 202.519531 270.816406 200.941406 271.675781 C 200.273438 272.035156 199.546875 272.214844 198.792969 272.214844 C 197.414062 272.214844 195.949219 271.613281 194.609375 270.453125 C 192.867188 268.945312 191.382812 268.660156 189.953125 268.382812 C 188.171875 268.035156 186.328125 267.679688 184.546875 264.964844 C 183.394531 263.207031 183.816406 261.941406 184.375 261.183594 C 185.75 259.324219 189.539062 258.605469 193.089844 258.898438 L 185.46875 254.5 L 176.429688 249.28125 L 159.074219 239.261719 L 150.398438 234.25 L 138.707031 227.5 L 124.6875 219.410156 L 108.636719 228.675781 L 187.851562 274.410156 C 188.859375 274 189.875 273.777344 190.902344 273.75 C 195.796875 273.609375 200.160156 277.867188 204.773438 282.363281 C 206.414062 283.964844 208.117188 285.621094 209.90625 287.144531 L 211.46875 288.046875 L 221.71875 282.128906 C 215.816406 278.992188 209.628906 275.140625 208.113281 269.914062 C 207.875 269.085938 207.769531 268.238281 207.78125 267.382812 Z M 219.394531 292.621094 C 222.074219 293.34375 224.980469 293.394531 228.171875 292.394531 C 232.316406 291.101562 233.011719 290.054688 233.054688 289.546875 C 233.183594 288.054688 228.925781 285.863281 224.804688 283.742188 C 224.242188 283.453125 223.664062 283.152344 223.082031 282.851562 L 212.777344 288.800781 Z M 107.332031 227.921875 L 123.382812 218.65625 L 107.332031 209.390625 L 91.28125 218.65625 Z M 108.640625 208.636719 L 124.691406 217.902344 L 134.652344 212.152344 C 134.082031 210.273438 134.421875 208.203125 135.644531 206.433594 C 135.769531 206.253906 135.910156 206.09375 136.046875 205.925781 L 124.691406 199.367188 Z M 125.996094 198.613281 L 136.980469 204.957031 C 138.5625 203.609375 140.644531 202.933594 142.769531 203.148438 C 144.460938 203.320312 146.035156 203.597656 147.421875 203.839844 C 150.445312 204.371094 152.835938 204.792969 154.125 203.710938 C 155.15625 202.84375 155.640625 200.960938 155.640625 197.789062 C 155.640625 197.625 155.632812 197.417969 155.628906 197.191406 L 142.042969 189.347656 Z M 156.929688 197.011719 C 156.9375 197.316406 156.945312 197.578125 156.945312 197.789062 C 156.945312 201.425781 156.335938 203.558594 154.964844 204.710938 C 153.207031 206.183594 150.554688 205.71875 147.199219 205.125 C 145.832031 204.886719 144.28125 204.613281 142.636719 204.445312 C 142.417969 204.421875 142.203125 204.414062 141.984375 204.414062 C 139.894531 204.414062 137.917969 205.433594 136.71875 207.175781 C 135.554688 208.859375 135.359375 210.867188 136.195312 212.546875 C 137.570312 215.300781 141.414062 216.941406 147.019531 217.164062 C 163.53125 217.832031 166.445312 220.648438 180.449219 234.1875 C 181.703125 235.398438 183.046875 236.699219 184.5 238.089844 C 190.984375 244.3125 198.5 246.929688 204.601562 245.089844 C 207.894531 244.101562 210.21875 241.90625 210.820312 239.226562 C 211.410156 236.605469 210.285156 233.847656 207.644531 231.464844 C 194.925781 219.960938 192.082031 210.914062 189.574219 202.929688 C 188.515625 199.554688 187.511719 196.367188 185.847656 193.222656 C 181.84375 185.660156 177.902344 180.019531 166.84375 181.835938 C 156.546875 183.527344 156.824219 193.324219 156.929688 197.011719 Z M 194.113281 199.367188 L 190.480469 201.464844 C 190.59375 201.824219 190.707031 202.179688 190.820312 202.539062 C 192.15625 206.796875 193.59375 211.359375 196.628906 216.453125 L 210.164062 208.636719 Z M 211.472656 209.390625 L 197.3125 217.5625 C 198.066406 218.753906 198.910156 219.972656 199.863281 221.222656 L 211.472656 227.921875 L 227.523438 218.65625 Z M 228.828125 219.410156 L 212.777344 228.675781 L 227.632812 237.257812 C 228.003906 237.1875 228.390625 237.132812 228.8125 237.089844 C 229.308594 237.039062 229.835938 237.035156 230.378906 237.046875 L 244.878906 228.675781 Z M 201.875 267.398438 C 201.480469 264.523438 201.171875 262.253906 195.882812 260.714844 C 194.511719 260.316406 192.996094 260.128906 191.542969 260.128906 C 188.796875 260.128906 186.285156 260.796875 185.425781 261.960938 C 185.253906 262.191406 184.742188 262.882812 185.636719 264.25 C 187.117188 266.503906 188.480469 266.769531 190.203125 267.101562 C 191.726562 267.398438 193.457031 267.730469 195.460938 269.46875 C 197.128906 270.910156 198.898438 271.296875 200.316406 270.527344 C 201.40625 269.9375 202.058594 268.726562 201.898438 267.585938 Z M 138.03125 225.605469 L 142.046875 227.921875 L 156.722656 219.449219 C 154.023438 218.914062 150.894531 218.628906 146.96875 218.46875 C 139.070312 218.152344 136.195312 215.238281 135.15625 213.367188 L 125.996094 218.65625 Z M 153.675781 234.640625 L 159.402344 237.945312 L 173.800781 229.632812 C 170.894531 226.917969 168.492188 224.863281 166.136719 223.300781 L 163.09375 221.542969 C 161.675781 220.851562 160.203125 220.308594 158.585938 219.878906 L 143.351562 228.675781 Z M 187.109375 241.988281 C 185.914062 241.109375 184.738281 240.128906 183.59375 239.03125 C 182.140625 237.636719 180.796875 236.335938 179.539062 235.125 C 177.800781 233.441406 176.234375 231.925781 174.792969 230.566406 L 160.707031 238.699219 L 164.1875 240.707031 L 176.757812 247.964844 Z M 190.101562 255.667969 L 194.113281 257.984375 L 210.164062 248.71875 L 205.660156 246.117188 C 205.4375 246.195312 205.210938 246.269531 204.980469 246.339844 C 203.574219 246.761719 202.105469 246.96875 200.59375 246.96875 C 196.617188 246.96875 192.359375 245.527344 188.289062 242.8125 L 178.0625 248.71875 Z M 202.183594 224.066406 C 203.824219 225.960938 205.722656 227.921875 207.941406 229.960938 L 210.164062 228.675781 Z M 192.808594 198.613281 L 188.660156 196.21875 C 189.179688 197.527344 189.636719 198.851562 190.074219 200.195312 Z M 163.195312 181.515625 L 159.402344 179.328125 L 143.351562 188.59375 L 155.597656 195.667969 C 155.589844 191.765625 156.230469 184.429688 163.195312 181.515625 Z M 207.90625 265.949219 C 208.128906 264.644531 208.632812 263.320312 209.417969 261.984375 C 212.179688 257.285156 214.964844 256.960938 217.660156 256.652344 C 219.09375 256.484375 220.476562 256.324219 221.875 255.476562 L 211.472656 249.472656 L 195.417969 258.738281 L 197.210938 259.773438 C 199.03125 260.40625 200.261719 261.175781 201.105469 262.023438 L 205.746094 264.703125 Z M 232.625 237.257812 C 237.917969 238.089844 244.609375 241.210938 250.644531 245.390625 L 262.234375 238.699219 L 246.183594 229.429688 Z M 251.816406 246.21875 C 256.628906 249.714844 260.910156 253.84375 263.585938 257.960938 L 279.589844 248.71875 L 263.539062 239.449219 Z M 277.640625 266.125 C 278.003906 265.238281 278.59375 264.4375 279.492188 263.769531 C 281.917969 261.960938 285.488281 261.917969 289.542969 263.011719 L 296.945312 258.738281 L 280.894531 249.472656 L 264.84375 258.738281 Z M 143.976562 16.050781 L 143.976562 155.644531 L 341.269531 269.550781 L 341.269531 124.6875 C 341.269531 120.671875 339.109375 116.929688 335.632812 114.921875 L 154.179688 10.160156 C 152.140625 8.984375 149.726562 8.945312 147.65625 10.023438 L 147.292969 10.21875 C 145.214844 11.457031 143.976562 13.628906 143.976562 16.050781 Z M 22.433594 226.570312 C 20.304688 227.800781 19.03125 230.003906 19.03125 232.460938 C 19.03125 234.921875 20.304688 237.125 22.433594 238.351562 L 203.886719 343.117188 C 207.363281 345.121094 211.683594 345.121094 215.160156 343.117188 L 237.753906 330.070312 C 234.976562 324.804688 229.625 319.886719 221.921875 315.613281 C 216.371094 312.535156 210.289062 309.832031 204.402344 307.21875 C 191.234375 301.371094 179.855469 296.320312 178.332031 288.957031 C 177.660156 285.710938 178.960938 282.328125 182.296875 278.632812 L 157.953125 292.6875 L 145.308594 299.988281 C 145.207031 300.046875 145.09375 300.074219 144.980469 300.074219 C 144.867188 300.074219 144.753906 300.046875 144.65625 299.988281 L 94.078125 270.785156 C 93.875 270.667969 93.75 270.453125 93.75 270.222656 C 93.75 269.988281 93.875 269.773438 94.078125 269.65625 L 106.722656 262.355469 L 132.011719 247.757812 C 132.210938 247.640625 132.460938 247.640625 132.664062 247.757812 L 183.242188 276.957031 C 183.390625 277.042969 183.496094 277.183594 183.539062 277.34375 C 184.515625 276.410156 185.480469 275.675781 186.453125 275.109375 L 107.007812 229.242188 L 89.648438 219.222656 C 89.449219 219.105469 89.324219 218.890625 89.324219 218.65625 C 89.324219 218.421875 89.449219 218.207031 89.648438 218.089844 L 107.007812 208.070312 L 159.074219 178.011719 C 159.277344 177.894531 159.527344 177.894531 159.726562 178.011719 L 164.824219 180.953125 C 165.394531 180.792969 165.992188 180.65625 166.632812 180.550781 C 178.523438 178.597656 182.894531 184.855469 187.003906 192.613281 C 187.285156 193.144531 187.539062 193.679688 187.789062 194.210938 L 194.441406 198.050781 L 211.796875 208.070312 L 229.152344 218.09375 L 246.511719 228.113281 L 263.867188 238.132812 L 281.222656 248.15625 L 298.578125 258.175781 C 298.78125 258.292969 298.90625 258.507812 298.90625 258.742188 C 298.90625 258.972656 298.78125 259.1875 298.578125 259.304688 L 291.261719 263.53125 C 299.230469 266.207031 308.652344 272.753906 315 278.957031 C 316.433594 280.355469 317.738281 281.707031 318.910156 283.214844 L 340.617188 270.683594 L 143.324219 156.773438 Z M 22.433594 226.570312 " fill-opacity="1" fill-rule="nonzero"/></g></svg>