<svg xmlns="http://www.w3.org/2000/svg" xmlns:xlink="http://www.w3.org/1999/xlink" width="500" zoomAndPan="magnify" viewBox="0 0 375 374.999991" height="500" preserveAspectRatio="xMidYMid meet" version="1.0"><defs><clipPath id="110ed23a48"><path d="M 12.0625 0 L 362.933594 0 L 362.933594 375 L 12.0625 375 Z M 12.0625 0 " clip-rule="nonzero"/></clipPath><clipPath id="01566cdfb0"><path d="M 12.0625 0 L 362.933594 0 L 362.933594 375 L 12.0625 375 Z M 12.0625 0 " clip-rule="nonzero"/></clipPath></defs><g clip-path="url(#110ed23a48)"><path fill="#232136" d="M 11.953125 121.363281 L 11.953125 265.851562 C 11.953125 270.496094 14.453125 274.824219 18.472656 277.144531 L 25.707031 281.320312 L 25.707031 289.070312 C 25.707031 293.695312 28.1875 298.015625 32.1875 300.339844 L 157.339844 373.171875 C 159.363281 374.347656 161.628906 374.933594 163.898438 374.933594 C 166.152344 374.933594 168.40625 374.355469 170.417969 373.191406 L 358.863281 264.394531 C 361.453125 262.902344 363.0625 260.113281 363.0625 257.125 L 363.0625 241.246094 C 363.0625 238.210938 361.492188 235.492188 358.863281 233.972656 L 233.285156 161.472656 L 233.285156 16.46875 C 233.285156 13.523438 231.800781 10.886719 229.3125 9.347656 C 229.289062 9.332031 229.273438 9.308594 229.25 9.296875 L 229.171875 9.253906 C 229.144531 9.238281 229.117188 9.214844 229.089844 9.199219 C 229 9.148438 228.90625 9.113281 228.816406 9.0625 L 214.5625 1.4375 C 211.984375 0.0585938 208.933594 0.109375 206.402344 1.570312 L 18.476562 110.070312 C 16.472656 111.226562 14.851562 112.878906 13.722656 114.820312 C 13.71875 114.828125 13.707031 114.832031 13.699219 114.84375 C 13.695312 114.855469 13.695312 114.867188 13.691406 114.875 C 12.570312 116.824219 11.953125 119.054688 11.953125 121.363281 Z M 11.953125 121.363281 " fill-opacity="1" fill-rule="nonzero"/></g><path fill="#6e6a86" d="M 60.414062 306.25 C 59.917969 306.535156 59.644531 307.191406 59.640625 308.097656 C 59.636719 310.230469 61.199219 312.9375 63.058594 314.011719 L 103.132812 337.148438 C 103.917969 337.601562 104.648438 337.699219 105.144531 337.414062 C 105.640625 337.128906 105.917969 336.472656 105.917969 335.566406 C 105.925781 333.433594 104.359375 330.722656 102.503906 329.652344 L 62.425781 306.515625 C 61.644531 306.0625 60.910156 305.964844 60.414062 306.25 Z M 231.980469 16.46875 C 231.980469 13.945312 230.6875 11.679688 228.527344 10.390625 L 228.144531 10.1875 C 225.988281 9.0625 223.472656 9.101562 221.347656 10.328125 L 32.878906 119.140625 C 29.261719 121.230469 27.011719 125.125 27.011719 129.304688 L 27.011719 279.8125 L 231.980469 161.472656 Z M 228.46875 120.515625 C 228.46875 120.75 228.347656 120.964844 228.144531 121.082031 L 224.304688 123.296875 L 224.304688 156.664062 C 224.304688 156.898438 224.179688 157.113281 223.976562 157.230469 L 35.664062 265.953125 C 35.5625 266.011719 35.453125 266.039062 35.339844 266.039062 C 35.226562 266.039062 35.113281 266.011719 35.011719 265.953125 C 34.808594 265.835938 34.683594 265.621094 34.683594 265.386719 L 34.683594 127.335938 C 34.683594 127.105469 34.808594 126.890625 35.011719 126.773438 L 37.214844 125.5 L 37.214844 119.367188 C 37.214844 119.132812 37.339844 118.917969 37.539062 118.800781 L 146.632812 55.816406 C 146.835938 55.699219 147.082031 55.699219 147.285156 55.816406 L 152.601562 58.882812 L 223.324219 18.050781 C 223.527344 17.933594 223.777344 17.933594 223.976562 18.050781 C 224.179688 18.167969 224.304688 18.382812 224.304688 18.617188 L 224.304688 64.285156 L 228.144531 66.5 C 228.347656 66.617188 228.472656 66.832031 228.472656 67.066406 L 228.472656 120.515625 Z M 358.210938 235.105469 L 232.632812 162.605469 L 27.664062 280.941406 L 158.007812 356.199219 C 161.625 358.289062 166.125 358.289062 169.742188 356.199219 L 358.210938 247.386719 C 360.429688 246.105469 361.753906 243.808594 361.753906 241.246094 C 361.753906 238.683594 360.429688 236.386719 358.210938 235.105469 Z M 190.859375 288.046875 C 190.859375 287.8125 190.984375 287.597656 191.1875 287.480469 L 243.71875 257.152344 C 243.921875 257.035156 244.167969 257.035156 244.371094 257.152344 L 283.769531 279.898438 C 283.972656 280.015625 284.097656 280.230469 284.097656 280.464844 C 284.097656 280.699219 283.972656 280.914062 283.769531 281.03125 L 231.238281 311.359375 C 231.136719 311.417969 231.023438 311.449219 230.910156 311.449219 C 230.800781 311.449219 230.6875 311.417969 230.585938 311.359375 L 191.1875 288.613281 C 190.984375 288.496094 190.859375 288.28125 190.859375 288.046875 Z M 288.695312 226.90625 C 288.695312 227.140625 288.570312 227.355469 288.371094 227.472656 L 270.34375 237.878906 L 162.179688 300.328125 L 144.152344 310.738281 C 144.050781 310.796875 143.9375 310.824219 143.824219 310.824219 C 143.710938 310.824219 143.597656 310.796875 143.5 310.738281 L 125.472656 300.328125 L 89.417969 279.511719 L 71.390625 269.105469 C 71.1875 268.988281 71.0625 268.773438 71.0625 268.539062 C 71.0625 268.304688 71.1875 268.089844 71.390625 267.972656 L 89.417969 257.566406 L 107.445312 247.15625 L 125.472656 236.75 L 143.5 226.339844 L 161.527344 215.933594 L 179.550781 205.523438 L 215.605469 184.710938 C 215.808594 184.59375 216.058594 184.59375 216.261719 184.710938 L 234.289062 195.117188 L 252.3125 205.523438 L 270.339844 215.933594 L 288.367188 226.339844 C 288.570312 226.457031 288.695312 226.675781 288.695312 226.90625 Z M 88.453125 211.546875 C 88.003906 211.402344 87.777344 210.898438 87.777344 210.042969 C 87.773438 209.167969 87.996094 208.40625 88.441406 207.753906 C 88.886719 207.101562 89.609375 206.484375 90.609375 205.910156 L 93.941406 203.984375 L 93.953125 208.96875 L 90.621094 210.894531 C 89.625 211.472656 88.898438 211.691406 88.453125 211.546875 Z M 121.175781 192.652344 C 120.726562 192.507812 120.5 192.007812 120.5 191.148438 C 120.496094 190.277344 120.714844 189.515625 121.164062 188.859375 C 121.609375 188.210938 122.332031 187.59375 123.332031 187.015625 L 126.664062 185.09375 L 126.679688 190.078125 L 123.34375 192.003906 C 122.347656 192.578125 121.621094 192.796875 121.175781 192.652344 Z M 107.507812 208.355469 C 106.195312 209.113281 105.160156 209.179688 104.40625 208.550781 C 103.648438 207.921875 103.269531 206.605469 103.261719 204.601562 C 103.257812 202.597656 103.625 200.851562 104.367188 199.367188 C 105.109375 197.882812 106.144531 196.757812 107.472656 195.992188 C 108.800781 195.226562 109.835938 195.15625 110.574219 195.785156 C 111.316406 196.410156 111.691406 197.726562 111.695312 199.734375 C 111.703125 201.738281 111.332031 203.488281 110.589844 204.980469 C 109.847656 206.472656 108.820312 207.597656 107.507812 208.355469 Z M 136.628906 183.730469 C 136.183594 183.585938 135.957031 183.082031 135.953125 182.226562 C 135.953125 181.351562 136.171875 180.589844 136.621094 179.9375 C 137.066406 179.285156 137.789062 178.671875 138.789062 178.09375 L 142.121094 176.167969 L 142.132812 181.15625 L 138.800781 183.078125 C 137.800781 183.65625 137.078125 183.875 136.628906 183.730469 Z M 164.996094 155.078125 C 164.996094 155.078125 164.992188 155.074219 164.992188 155.074219 C 164.8125 154.972656 164.621094 154.894531 164.417969 154.84375 C 164.40625 154.839844 164.394531 154.835938 164.382812 154.835938 C 164.191406 154.789062 163.988281 154.765625 163.777344 154.761719 C 163.753906 154.761719 163.734375 154.761719 163.707031 154.761719 L 163.675781 154.761719 C 163.5 154.765625 163.320312 154.78125 163.132812 154.816406 L 163.113281 154.820312 C 162.957031 154.847656 162.800781 154.886719 162.640625 154.933594 C 162.605469 154.945312 162.570312 154.953125 162.53125 154.964844 C 162.402344 155.007812 162.265625 155.0625 162.132812 155.117188 C 162.070312 155.144531 162.011719 155.164062 161.949219 155.191406 C 161.75 155.28125 161.546875 155.382812 161.34375 155.503906 L 76.316406 204.59375 C 76.128906 204.703125 75.941406 204.820312 75.757812 204.949219 L 75.667969 205.015625 C 75.566406 205.085938 75.464844 205.167969 75.363281 205.246094 L 73.914062 206.597656 C 73.890625 206.625 73.867188 206.652344 73.84375 206.679688 C 73.761719 206.769531 73.6875 206.859375 73.574219 206.996094 L 73.375 207.242188 C 73.292969 207.34375 73.214844 207.449219 73.132812 207.5625 C 73.019531 207.71875 72.910156 207.875 72.78125 208.0625 L 72.3125 208.804688 C 72.226562 208.957031 72.144531 209.105469 72.066406 209.246094 L 71.726562 209.921875 C 71.675781 210.027344 71.628906 210.132812 71.582031 210.242188 C 71.578125 210.253906 71.570312 210.257812 71.5625 210.269531 C 71.558594 210.277344 71.554688 210.289062 71.550781 210.296875 C 71.546875 210.308594 71.550781 210.320312 71.542969 210.328125 L 71.441406 210.570312 C 71.425781 210.605469 71.414062 210.644531 71.398438 210.679688 L 71.304688 210.921875 L 71.300781 210.917969 C 71.289062 210.949219 71.277344 210.980469 71.269531 211.011719 L 71.273438 211.015625 C 71.242188 211.097656 71.207031 211.191406 71.171875 211.292969 C 71.164062 211.324219 71.152344 211.355469 71.140625 211.386719 C 71.109375 211.480469 71.078125 211.578125 71.050781 211.671875 L 71.046875 211.671875 C 71.035156 211.707031 71.027344 211.746094 71.015625 211.78125 L 71.019531 211.78125 L 70.789062 212.734375 C 70.769531 212.828125 70.746094 212.921875 70.734375 213.015625 C 70.726562 213.050781 70.71875 213.085938 70.714844 213.132812 C 70.710938 213.152344 70.707031 213.167969 70.703125 213.1875 C 70.683594 213.320312 70.671875 213.449219 70.65625 213.578125 L 70.621094 214.035156 C 70.613281 214.1875 70.601562 214.339844 70.601562 214.488281 C 70.601562 214.488281 70.601562 214.492188 70.601562 214.496094 L 70.628906 223.625 L 70.65625 233.085938 C 70.65625 233.269531 70.664062 233.441406 70.679688 233.613281 L 70.683594 233.683594 L 70.933594 234.875 C 70.957031 234.949219 70.984375 235.027344 71.015625 235.097656 C 71.027344 235.128906 71.042969 235.164062 71.058594 235.203125 C 71.105469 235.304688 71.15625 235.398438 71.207031 235.492188 C 71.226562 235.527344 71.25 235.5625 71.277344 235.601562 C 71.335938 235.695312 71.398438 235.785156 71.464844 235.867188 C 71.476562 235.882812 71.496094 235.902344 71.515625 235.925781 C 71.589844 236.011719 71.671875 236.089844 71.757812 236.164062 C 71.769531 236.175781 71.785156 236.1875 71.800781 236.203125 C 71.898438 236.28125 72 236.355469 72.109375 236.417969 C 73.046875 236.957031 74.34375 236.804688 75.757812 235.988281 L 160.785156 186.898438 C 163.945312 185.074219 166.511719 180.632812 166.5 177 L 166.449219 158.410156 C 166.441406 156.796875 165.925781 155.613281 164.996094 155.078125 Z M 155.171875 172.933594 L 155.160156 168.691406 L 149.007812 172.242188 C 147.90625 172.878906 147.351562 172.675781 147.347656 171.632812 C 147.34375 170.605469 147.894531 169.769531 149 169.132812 L 156.917969 164.5625 C 157.441406 164.261719 157.84375 164.191406 158.125 164.355469 C 158.410156 164.515625 158.554688 164.898438 158.554688 165.496094 L 158.597656 179.863281 C 158.597656 180.464844 158.457031 181.007812 158.175781 181.496094 C 157.894531 181.984375 157.492188 182.378906 156.96875 182.679688 L 149.050781 187.253906 C 147.949219 187.890625 147.394531 187.695312 147.390625 186.667969 C 147.386719 185.621094 147.9375 184.78125 149.042969 184.144531 L 155.195312 180.59375 L 155.179688 176.042969 L 149.476562 179.335938 C 148.375 179.972656 147.820312 179.777344 147.816406 178.75 C 147.816406 177.703125 148.367188 176.863281 149.46875 176.226562 Z M 78.679688 225.824219 C 78.679688 225.1875 78.855469 224.558594 79.210938 223.933594 C 79.566406 223.308594 80.023438 222.832031 80.574219 222.515625 C 81.128906 222.195312 81.582031 222.144531 81.941406 222.359375 C 82.300781 222.570312 82.480469 222.992188 82.484375 223.628906 C 82.484375 224.261719 82.304688 224.890625 81.949219 225.519531 C 81.59375 226.144531 81.140625 226.617188 80.585938 226.9375 C 80.035156 227.253906 79.582031 227.304688 79.222656 227.09375 C 78.863281 226.878906 78.683594 226.457031 78.679688 225.824219 Z M 82.578125 209.441406 C 82.578125 209.59375 82.570312 209.71875 82.554688 209.8125 L 81.597656 219.378906 C 81.554688 219.796875 81.4375 220.164062 81.253906 220.476562 C 81.066406 220.789062 80.839844 221.023438 80.570312 221.179688 C 80.304688 221.335938 80.074219 221.363281 79.890625 221.265625 C 79.703125 221.164062 79.59375 220.929688 79.5625 220.550781 L 78.53125 212.164062 C 78.4375 211.460938 78.589844 210.773438 78.984375 210.101562 C 79.378906 209.425781 79.894531 208.902344 80.535156 208.535156 C 81.117188 208.199219 81.601562 208.105469 81.992188 208.261719 C 82.378906 208.414062 82.574219 208.804688 82.578125 209.441406 Z M 97.378906 215.234375 C 97.382812 215.851562 97.226562 216.429688 96.914062 216.96875 C 96.601562 217.511719 96.179688 217.933594 95.640625 218.246094 C 95.121094 218.546875 94.703125 218.605469 94.398438 218.421875 C 94.089844 218.238281 93.9375 217.839844 93.933594 217.222656 L 93.921875 212.03125 L 92.109375 213.078125 C 91.675781 213.324219 91.320312 213.632812 91.035156 213.992188 C 90.753906 214.351562 90.488281 214.828125 90.234375 215.421875 L 87.296875 222.164062 C 87.117188 222.59375 86.894531 222.960938 86.625 223.269531 C 86.359375 223.578125 86.082031 223.816406 85.800781 223.980469 C 85.351562 224.238281 84.960938 224.308594 84.625 224.195312 C 84.289062 224.082031 84.121094 223.78125 84.117188 223.304688 C 84.117188 222.941406 84.226562 222.511719 84.449219 222.003906 L 86.140625 218.09375 C 86.46875 217.339844 86.804688 216.710938 87.15625 216.207031 C 87.503906 215.707031 87.902344 215.273438 88.351562 214.914062 C 87.128906 215.328125 86.179688 215.265625 85.503906 214.726562 C 84.828125 214.191406 84.492188 213.226562 84.488281 211.839844 C 84.484375 210.074219 84.953125 208.453125 85.898438 206.972656 C 86.839844 205.492188 88.238281 204.21875 90.085938 203.148438 L 95.699219 199.90625 C 96.222656 199.605469 96.625 199.539062 96.910156 199.699219 C 97.195312 199.859375 97.335938 200.242188 97.339844 200.839844 Z M 115.183594 197.71875 C 115.191406 199.605469 114.882812 201.425781 114.257812 203.183594 C 113.636719 204.941406 112.75 206.535156 111.597656 207.964844 C 110.441406 209.394531 109.082031 210.5625 107.519531 211.464844 C 105.953125 212.371094 104.589844 212.773438 103.433594 212.679688 C 102.273438 212.582031 101.378906 212.019531 100.75 210.980469 C 100.121094 209.949219 99.800781 208.488281 99.796875 206.601562 C 99.792969 204.71875 100.101562 202.898438 100.722656 201.140625 C 101.34375 199.382812 102.234375 197.792969 103.386719 196.371094 C 104.539062 194.949219 105.898438 193.785156 107.464844 192.882812 C 109.03125 191.976562 110.390625 191.570312 111.550781 191.65625 C 112.707031 191.742188 113.601562 192.304688 114.230469 193.339844 C 114.863281 194.375 115.179688 195.835938 115.183594 197.71875 Z M 130.101562 196.339844 C 130.101562 196.957031 129.949219 197.535156 129.636719 198.078125 C 129.324219 198.617188 128.898438 199.042969 128.363281 199.355469 C 127.84375 199.652344 127.425781 199.710938 127.121094 199.53125 C 126.8125 199.34375 126.660156 198.945312 126.65625 198.328125 L 126.644531 193.136719 L 124.832031 194.183594 C 124.398438 194.433594 124.042969 194.738281 123.757812 195.101562 C 123.476562 195.457031 123.210938 195.9375 122.957031 196.527344 L 120.019531 203.269531 C 119.839844 203.699219 119.617188 204.066406 119.347656 204.378906 C 119.082031 204.6875 118.804688 204.921875 118.523438 205.085938 C 118.074219 205.34375 117.683594 205.417969 117.347656 205.300781 C 117.011719 205.1875 116.84375 204.890625 116.839844 204.410156 C 116.839844 204.050781 116.949219 203.617188 117.171875 203.109375 L 118.863281 199.199219 C 119.191406 198.445312 119.527344 197.816406 119.878906 197.3125 C 120.226562 196.8125 120.625 196.382812 121.074219 196.019531 C 119.847656 196.433594 118.898438 196.371094 118.226562 195.835938 C 117.550781 195.296875 117.214844 194.332031 117.210938 192.945312 C 117.207031 191.179688 117.675781 189.558594 118.617188 188.078125 C 119.5625 186.597656 120.960938 185.324219 122.808594 184.257812 L 128.421875 181.015625 C 128.945312 180.714844 129.347656 180.644531 129.632812 180.804688 C 129.917969 180.96875 130.058594 181.347656 130.0625 181.949219 Z M 138.265625 175.332031 L 143.878906 172.089844 C 144.398438 171.789062 144.804688 171.71875 145.085938 171.882812 C 145.371094 172.042969 145.515625 172.425781 145.515625 173.023438 L 145.554688 187.417969 C 145.558594 188.035156 145.402344 188.613281 145.089844 189.152344 C 144.777344 189.691406 144.355469 190.117188 143.816406 190.429688 C 143.296875 190.730469 142.882812 190.789062 142.574219 190.605469 C 142.265625 190.421875 142.113281 190.023438 142.113281 189.40625 L 142.097656 184.214844 L 140.285156 185.257812 C 139.855469 185.507812 139.496094 185.816406 139.214844 186.175781 C 138.929688 186.535156 138.664062 187.011719 138.410156 187.605469 L 135.472656 194.347656 C 135.292969 194.777344 135.070312 195.144531 134.804688 195.453125 C 134.535156 195.761719 134.257812 196 133.976562 196.164062 C 133.527344 196.421875 133.136719 196.492188 132.800781 196.378906 C 132.464844 196.265625 132.292969 195.964844 132.292969 195.488281 C 132.292969 195.128906 132.402344 194.695312 132.625 194.1875 L 134.316406 190.277344 C 134.644531 189.523438 134.984375 188.894531 135.332031 188.390625 C 135.683594 187.890625 136.078125 187.457031 136.527344 187.097656 C 135.304688 187.511719 134.355469 187.449219 133.679688 186.910156 C 133.007812 186.375 132.667969 185.410156 132.664062 184.023438 C 132.660156 182.257812 133.128906 180.636719 134.074219 179.15625 C 135.019531 177.675781 136.414062 176.402344 138.265625 175.332031 Z M 138.265625 175.332031 " fill-opacity="1" fill-rule="nonzero"/><path fill="#ea9a97" d="M 224.25 8.101562 L 213.945312 2.589844 C 211.769531 1.425781 209.191406 1.46875 207.054688 2.703125 L 19.125 111.203125 C 17.511719 112.132812 16.171875 113.429688 15.179688 114.945312 L 27.800781 122.230469 C 28.90625 120.519531 30.410156 119.058594 32.226562 118.011719 L 220.691406 9.199219 C 221.8125 8.554688 223.023438 8.199219 224.25 8.101562 Z M 60.578125 205.761719 Z M 60.382812 229.113281 Z M 223 63.53125 L 218.886719 61.15625 C 218.683594 61.039062 218.433594 61.039062 218.230469 61.15625 L 159.734375 94.929688 L 159.734375 63.378906 C 159.734375 63.320312 159.726562 63.261719 159.710938 63.207031 C 159.667969 63.042969 159.558594 62.898438 159.40625 62.8125 L 153.90625 59.636719 L 223 19.746094 Z M 123.257812 154.796875 L 134.585938 148.257812 L 134.585938 158.039062 L 111.75 171.222656 Z M 37.214844 189.347656 C 37.214844 189.578125 37.339844 189.796875 37.542969 189.914062 L 49.664062 196.910156 C 49.761719 196.96875 49.875 196.996094 49.988281 196.996094 C 50.101562 196.996094 50.214844 196.96875 50.316406 196.910156 L 85.699219 176.480469 L 85.699219 182.039062 C 85.699219 182.273438 85.824219 182.488281 86.027344 182.605469 L 89.03125 184.339844 L 65.820312 197.738281 C 65.671875 197.828125 65.589844 197.878906 65.503906 197.929688 C 65.503906 197.929688 65.503906 197.929688 65.503906 197.933594 C 65.492188 197.9375 65.484375 197.941406 65.476562 197.949219 C 65.382812 198.007812 65.292969 198.066406 65.207031 198.128906 C 65.191406 198.136719 65.175781 198.148438 65.164062 198.15625 L 65.101562 198.203125 L 65.410156 198.78125 L 65.035156 198.25 L 64.636719 198.546875 C 64.628906 198.550781 64.582031 198.589844 64.578125 198.59375 L 64.347656 198.785156 L 64.695312 199.34375 L 64.273438 198.847656 L 64.140625 198.964844 C 64.136719 198.96875 64.066406 199.03125 64.0625 199.03125 C 64.0625 199.035156 63.972656 199.117188 63.96875 199.117188 L 63.839844 199.238281 L 64.238281 199.761719 L 63.785156 199.292969 C 63.78125 199.292969 63.730469 199.34375 63.730469 199.347656 L 63.132812 199.960938 L 63.546875 200.480469 L 63.261719 200.226562 L 63.261719 200.15625 C 63.238281 200.15625 63.214844 200.160156 63.191406 200.160156 L 63.058594 200.046875 C 63.054688 200.050781 63.046875 200.0625 63.035156 200.074219 C 63.015625 200.09375 62.992188 200.121094 62.976562 200.144531 C 62.925781 200.195312 62.851562 200.285156 62.773438 200.375 C 62.765625 200.386719 62.753906 200.398438 62.742188 200.410156 C 62.65625 200.519531 62.585938 200.605469 62.515625 200.695312 C 62.503906 200.707031 62.496094 200.722656 62.484375 200.734375 C 62.417969 200.824219 62.328125 200.9375 62.242188 201.054688 C 62.234375 201.066406 62.226562 201.074219 62.21875 201.082031 L 62.222656 201.085938 C 62.082031 201.273438 61.976562 201.421875 61.875 201.574219 C 61.871094 201.578125 61.828125 201.640625 61.828125 201.644531 L 61.441406 202.257812 C 61.4375 202.257812 61.367188 202.378906 61.363281 202.382812 C 61.355469 202.394531 61.328125 202.449219 61.320312 202.464844 C 61.246094 202.585938 61.15625 202.75 61.066406 202.914062 L 60.742188 203.554688 C 60.730469 203.574219 60.714844 203.609375 60.699219 203.648438 C 60.648438 203.75 60.601562 203.855469 60.554688 203.960938 C 60.554688 203.964844 60.523438 204.03125 60.523438 204.035156 L 60.5625 204.0625 C 60.535156 204.089844 60.515625 204.128906 60.496094 204.164062 L 60.472656 204.152344 L 60.425781 204.265625 C 60.425781 204.265625 60.425781 204.265625 60.425781 204.269531 L 60.261719 204.675781 L 60.441406 204.78125 C 60.457031 204.816406 60.476562 204.847656 60.5 204.878906 L 60.226562 204.773438 C 60.21875 204.789062 60.195312 204.855469 60.1875 204.871094 L 60.085938 205.167969 C 60.078125 205.183594 60.074219 205.199219 60.066406 205.214844 L 59.867188 205.871094 C 59.867188 205.871094 59.847656 205.941406 59.847656 205.945312 L 59.8125 206.078125 C 59.8125 206.082031 59.777344 206.210938 59.777344 206.214844 C 59.777344 206.214844 59.753906 206.320312 59.753906 206.320312 C 59.75 206.328125 59.71875 206.464844 59.71875 206.46875 C 59.6875 206.59375 59.679688 206.652344 59.667969 206.707031 C 59.664062 206.714844 59.636719 206.847656 59.636719 206.855469 L 59.585938 207.160156 C 59.585938 207.160156 59.582031 207.164062 59.582031 207.164062 C 59.582031 207.179688 59.578125 207.191406 59.574219 207.207031 C 59.558594 207.3125 59.542969 207.421875 59.53125 207.53125 L 59.496094 207.84375 C 59.496094 207.84375 59.488281 207.921875 59.488281 207.925781 C 59.488281 207.929688 59.476562 208.054688 59.476562 208.0625 C 59.476562 208.0625 59.46875 208.167969 59.46875 208.167969 C 59.46875 208.171875 59.464844 208.242188 59.464844 208.246094 L 60.113281 208.335938 L 59.460938 208.359375 C 59.460938 208.371094 59.457031 208.4375 59.457031 208.445312 C 59.449219 208.578125 59.449219 208.675781 59.449219 208.773438 L 59.503906 227.363281 C 59.503906 227.386719 59.503906 227.417969 59.507812 227.441406 C 59.503906 227.484375 59.507812 227.589844 59.511719 227.695312 C 59.511719 227.707031 59.511719 227.726562 59.515625 227.746094 C 59.515625 227.773438 59.519531 227.820312 59.519531 227.824219 L 59.550781 228.207031 L 60.210938 228.25 L 59.5625 228.316406 C 59.5625 228.324219 59.570312 228.382812 59.574219 228.390625 L 59.675781 228.980469 C 59.679688 228.984375 59.695312 229.058594 59.699219 229.0625 L 59.746094 229.242188 C 59.746094 229.253906 59.773438 229.339844 59.773438 229.351562 C 59.808594 229.460938 59.835938 229.535156 59.859375 229.605469 L 59.941406 229.828125 C 59.960938 229.878906 59.996094 229.953125 60.027344 230.027344 C 60.03125 230.035156 60.058594 230.09375 60.0625 230.101562 C 60.097656 230.179688 60.140625 230.261719 60.183594 230.34375 C 60.226562 230.421875 60.277344 230.503906 60.328125 230.582031 C 60.410156 230.703125 60.449219 230.761719 60.492188 230.820312 C 60.5 230.824219 60.546875 230.890625 60.550781 230.894531 L 60.667969 231.035156 C 60.671875 231.042969 60.71875 231.097656 60.722656 231.101562 C 60.777344 231.160156 60.839844 231.226562 60.902344 231.289062 C 60.984375 231.363281 61.039062 231.414062 61.097656 231.464844 C 61.101562 231.464844 61.15625 231.507812 61.15625 231.511719 C 61.210938 231.554688 61.261719 231.59375 61.316406 231.632812 C 61.328125 231.640625 61.390625 231.683594 61.402344 231.691406 C 61.445312 231.722656 61.519531 231.769531 61.59375 231.8125 L 71.441406 237.535156 C 71.445312 237.539062 71.445312 237.539062 71.449219 237.539062 C 71.449219 237.539062 71.453125 237.542969 71.457031 237.542969 C 72.027344 237.871094 72.671875 238.035156 73.363281 238.035156 C 74.3125 238.035156 75.347656 237.726562 76.410156 237.113281 L 161.4375 188.023438 C 164.960938 185.988281 167.816406 181.039062 167.804688 176.988281 L 167.753906 158.398438 C 167.75 157.558594 167.625 156.808594 167.394531 156.152344 L 181.527344 147.992188 L 199.71875 158.492188 C 199.917969 158.609375 200.167969 158.609375 200.367188 158.492188 C 200.570312 158.375 200.695312 158.160156 200.695312 157.929688 L 200.761719 136.886719 L 223 124.050781 L 223 156.289062 L 35.992188 264.257812 L 35.992188 127.714844 L 37.214844 127.007812 Z M 60.175781 207.648438 Z M 60.125 208.15625 Z M 106.464844 268.539062 L 102.320312 270.929688 L 89.746094 278.191406 L 73.023438 268.539062 L 89.746094 258.886719 Z M 143.824219 290.109375 L 160.546875 299.761719 L 143.824219 309.417969 L 127.105469 299.761719 Z M 219.085938 303.210938 L 244.046875 288.800781 L 255.871094 295.628906 L 230.910156 310.039062 Z M 244.046875 258.472656 L 269.003906 272.882812 L 243.71875 287.480469 L 217.777344 302.457031 L 192.820312 288.046875 Z M 245.351562 288.046875 L 270.3125 273.636719 L 282.136719 280.464844 L 257.179688 294.875 Z M 215.933594 246.96875 L 199.214844 237.316406 L 215.933594 227.660156 L 232.65625 237.316406 Z M 107.769531 267.785156 L 91.050781 258.132812 L 107.769531 248.476562 L 124.492188 258.132812 Z M 160.546875 278.945312 L 143.824219 288.601562 L 127.105469 278.945312 L 143.824219 269.292969 Z M 178.574219 247.722656 L 161.851562 257.375 L 145.128906 247.722656 L 161.851562 238.070312 Z M 179.878906 226.152344 L 163.160156 216.5 L 179.878906 206.84375 L 196.601562 216.5 Z M 161.851562 278.191406 L 145.128906 268.539062 L 161.851562 258.886719 L 178.574219 268.539062 Z M 253.292969 226.90625 L 270.015625 217.253906 L 286.738281 226.90625 L 270.015625 236.5625 Z M 118.457031 263.125 L 125.796875 258.886719 L 142.519531 268.539062 L 125.472656 278.378906 C 125.269531 278.496094 125.144531 278.714844 125.144531 278.945312 C 125.144531 279.179688 125.269531 279.394531 125.472656 279.511719 L 142.519531 289.355469 L 125.796875 299.007812 L 91.050781 278.945312 Z M 143.824219 246.96875 L 127.105469 237.316406 L 143.824219 227.660156 L 160.546875 237.316406 Z M 197.90625 215.746094 L 181.1875 206.089844 L 197.90625 196.4375 L 214.628906 206.089844 Z M 214.628906 226.90625 L 197.90625 236.5625 L 181.1875 226.90625 L 197.90625 217.253906 Z M 143.824219 248.476562 L 160.546875 258.132812 L 143.824219 267.785156 L 127.105469 258.132812 Z M 179.878906 267.785156 L 163.160156 258.132812 L 179.878906 248.476562 L 196.601562 258.132812 Z M 215.933594 205.335938 L 199.214844 195.683594 L 215.933594 186.03125 L 232.65625 195.683594 Z M 197.90625 257.375 L 181.183594 247.722656 L 197.90625 238.070312 L 214.628906 247.722656 Z M 161.851562 236.5625 L 145.128906 226.90625 L 161.851562 217.253906 L 178.574219 226.90625 Z M 196.601562 237.316406 L 179.878906 246.96875 L 163.15625 237.316406 L 179.878906 227.660156 Z M 251.988281 226.152344 L 235.265625 216.5 L 243.996094 211.460938 L 251.988281 206.84375 L 268.710938 216.5 Z M 250.683594 226.90625 L 233.960938 236.5625 L 217.238281 226.90625 L 225.351562 222.222656 L 233.960938 217.253906 Z M 145.132812 289.355469 L 162.179688 279.511719 L 180.207031 269.105469 L 198.234375 258.695312 L 216.261719 248.289062 L 234.289062 237.878906 L 251.988281 227.660156 L 268.710938 237.316406 L 161.851562 299.007812 Z M 242.070312 211.0625 L 223.277344 221.914062 L 215.933594 226.152344 L 199.210938 216.5 L 207.824219 211.527344 L 226.621094 200.675781 L 233.960938 196.4375 L 250.683594 206.089844 Z M 125.796875 257.378906 L 109.078125 247.722656 L 125.796875 238.070312 L 142.519531 247.722656 Z M 158.429688 95.683594 L 158.429688 64.507812 L 77.589844 111.183594 L 50.640625 126.738281 L 50.640625 195.214844 L 98.144531 167.785156 C 98.246094 167.726562 98.359375 167.699219 98.472656 167.699219 C 98.585938 167.699219 98.699219 167.726562 98.800781 167.785156 C 99 167.902344 99.125 168.117188 99.125 168.351562 L 99.125 178.511719 L 109.074219 172.765625 L 122.269531 153.929688 C 122.324219 153.851562 122.394531 153.785156 122.476562 153.738281 L 134.585938 146.746094 L 134.585938 109.828125 C 134.585938 109.59375 134.710938 109.378906 134.914062 109.261719 Z M 131.984375 135.433594 C 131.320312 138.503906 129.300781 141.402344 126.839844 142.824219 L 87.039062 165.800781 C 86.070312 166.363281 85.089844 166.640625 84.183594 166.640625 C 83.234375 166.640625 82.363281 166.335938 81.652344 165.730469 C 79.917969 164.242188 79.589844 161.382812 80.796875 158.265625 L 100.585938 107.171875 C 101.535156 104.722656 103.269531 102.585938 105.226562 101.457031 C 107.585938 100.09375 109.957031 100.40625 111.265625 102.246094 L 131.28125 130.367188 C 132.171875 131.621094 132.425781 133.421875 131.984375 135.433594 Z M 226.511719 67.066406 L 144.496094 114.417969 L 136.546875 109.828125 L 218.558594 62.476562 Z M 61.332031 203.839844 L 61.878906 204.101562 L 61.570312 204.015625 Z M 64.75 200.179688 L 64.8125 200.121094 C 64.8125 200.117188 64.863281 200.070312 64.867188 200.070312 L 64.457031 199.558594 L 64.945312 199.996094 C 64.949219 199.992188 65.003906 199.945312 65.007812 199.941406 L 65.121094 199.839844 C 65.125 199.839844 65.199219 199.773438 65.203125 199.773438 L 64.855469 199.210938 L 65.273438 199.714844 L 65.382812 199.628906 C 65.382812 199.625 65.441406 199.574219 65.445312 199.574219 L 65.511719 199.523438 C 65.511719 199.523438 65.570312 199.476562 65.574219 199.476562 L 65.785156 199.320312 C 65.789062 199.320312 65.863281 199.265625 65.863281 199.265625 C 65.867188 199.261719 65.925781 199.222656 65.929688 199.21875 C 66.023438 199.152344 66.101562 199.101562 66.179688 199.050781 L 66.421875 198.902344 L 151.679688 149.683594 L 151.441406 149.070312 L 151.75 149.648438 L 151.824219 149.609375 C 151.828125 149.605469 151.910156 149.566406 151.914062 149.5625 L 151.984375 149.527344 C 151.992188 149.527344 152.109375 149.46875 152.117188 149.464844 C 152.203125 149.425781 152.277344 149.398438 152.347656 149.367188 C 152.417969 149.339844 152.492188 149.3125 152.5625 149.285156 L 152.429688 148.644531 L 152.679688 149.246094 C 152.691406 149.242188 152.796875 149.210938 152.808594 149.207031 L 152.902344 149.179688 C 152.90625 149.179688 152.980469 149.160156 152.988281 149.15625 L 152.929688 148.5 L 153.078125 149.136719 L 153.160156 149.121094 L 153.105469 148.464844 L 153.246094 149.101562 C 153.253906 149.101562 153.339844 149.085938 153.347656 149.085938 C 153.355469 149.082031 153.453125 149.066406 153.460938 149.066406 C 153.472656 149.066406 153.53125 149.058594 153.542969 149.058594 L 153.636719 149.050781 L 153.683594 148.394531 L 153.734375 149.042969 L 153.867188 149.039062 C 153.953125 149.039062 153.996094 149.039062 154.035156 149.042969 L 154.167969 149.050781 L 154.304688 148.410156 L 154.285156 149.066406 C 154.332031 149.070312 154.390625 149.082031 154.441406 149.089844 C 154.449219 149.09375 154.457031 149.09375 154.460938 149.09375 C 154.542969 149.113281 154.585938 149.125 154.628906 149.136719 L 154.890625 148.535156 L 154.742188 149.171875 L 154.886719 149.226562 L 155.214844 148.65625 L 154.960938 149.257812 C 155.046875 149.296875 155.101562 149.324219 155.15625 149.355469 L 162.492188 153.621094 C 162.472656 153.625 162.453125 153.628906 162.433594 153.632812 L 162.3125 153.667969 C 162.246094 153.6875 162.175781 153.707031 162.101562 153.734375 L 162.003906 153.765625 C 161.808594 153.832031 161.605469 153.914062 161.398438 154.007812 C 161.390625 154.011719 161.328125 154.039062 161.324219 154.042969 C 161.234375 154.085938 161.160156 154.121094 161.085938 154.160156 C 161.085938 154.160156 161.019531 154.195312 161.019531 154.195312 C 160.886719 154.265625 160.789062 154.316406 160.695312 154.371094 L 75.667969 203.460938 C 75.558594 203.527344 75.453125 203.589844 75.351562 203.652344 C 75.226562 203.730469 75.125 203.800781 75.023438 203.871094 L 74.917969 203.945312 C 74.851562 203.988281 74.785156 204.039062 74.714844 204.089844 C 74.714844 204.089844 74.597656 204.179688 74.597656 204.183594 L 73.183594 205.464844 C 73.070312 205.585938 73.003906 205.65625 72.941406 205.726562 L 72.855469 205.828125 C 72.777344 205.910156 72.691406 206.011719 72.605469 206.117188 L 72.355469 206.429688 C 72.261719 206.546875 72.171875 206.664062 72.082031 206.785156 C 71.957031 206.953125 71.839844 207.125 71.722656 207.296875 L 71.324219 207.917969 C 71.320312 207.921875 71.28125 207.992188 71.277344 207.992188 L 71.210938 208.105469 C 71.09375 208.308594 71.003906 208.46875 70.914062 208.628906 L 70.6875 209.074219 L 61.867188 204.230469 C 61.871094 204.226562 61.871094 204.222656 61.875 204.21875 C 61.890625 204.183594 61.902344 204.148438 61.914062 204.117188 L 61.921875 204.121094 L 62.175781 203.613281 C 62.179688 203.605469 62.21875 203.539062 62.222656 203.53125 C 62.300781 203.382812 62.382812 203.234375 62.46875 203.089844 L 62.890625 202.414062 L 62.398438 201.972656 L 62.96875 202.296875 C 63.066406 202.152344 63.175781 201.996094 63.289062 201.84375 C 63.289062 201.839844 63.289062 201.839844 63.289062 201.839844 C 63.371094 201.730469 63.453125 201.625 63.535156 201.519531 C 63.605469 201.425781 63.667969 201.351562 63.730469 201.277344 C 63.730469 201.273438 63.75 201.25 63.765625 201.234375 C 63.765625 201.234375 63.765625 201.230469 63.765625 201.230469 L 63.992188 200.964844 L 63.917969 200.867188 C 63.917969 200.847656 63.917969 200.832031 63.917969 200.8125 L 63.871094 200.8125 L 63.585938 200.445312 L 64.070312 200.878906 L 64.605469 200.320312 L 64.238281 199.761719 L 64.683594 200.242188 C 64.6875 200.238281 64.746094 200.183594 64.75 200.179688 Z M 154.839844 148.519531 Z M 75.109375 204.613281 Z M 163.15625 154.148438 Z M 161.378906 154.742188 Z M 161.378906 154.742188 " fill-opacity="1" fill-rule="nonzero"/><path fill="#eb6f92" d="M 146.960938 57.132812 L 39.175781 119.367188 L 49.988281 125.609375 L 157.773438 63.378906 Z M 128.910156 134.765625 C 129.148438 133.664062 129.078125 132.699219 128.714844 132.191406 L 108.703125 104.074219 C 108.539062 103.84375 108.304688 103.761719 108.046875 103.761719 C 107.617188 103.761719 107.125 103.992188 106.800781 104.183594 C 105.464844 104.953125 104.207031 106.53125 103.523438 108.308594 L 83.734375 159.40625 C 82.886719 161.585938 83.25 162.953125 83.703125 163.339844 C 84.191406 163.757812 85.175781 163.242188 85.464844 163.074219 L 125.265625 140.09375 C 126.9375 139.128906 128.4375 136.9375 128.910156 134.765625 Z M 110.089844 132.996094 C 110.09375 134.675781 108.914062 136.722656 107.453125 137.566406 C 105.988281 138.410156 104.800781 137.734375 104.792969 136.054688 L 104.738281 116.75 C 104.734375 115.070312 105.917969 113.023438 107.378906 112.179688 C 108.84375 111.335938 110.03125 112.011719 110.035156 113.691406 Z M 110.117188 142.027344 C 110.121094 143.707031 108.9375 145.753906 107.476562 146.597656 C 106.015625 147.441406 104.824219 146.765625 104.820312 145.085938 C 104.816406 143.402344 105.996094 141.355469 107.460938 140.511719 C 108.921875 139.667969 110.113281 140.34375 110.117188 142.027344 Z M 154.300781 148.410156 Z M 153.105469 148.464844 Z M 153.683594 148.394531 Z M 152.230469 148.019531 L 152.425781 148.644531 L 152.304688 147.996094 L 152.371094 147.976562 C 152.382812 147.972656 152.457031 147.949219 152.46875 147.945312 L 152.597656 147.910156 C 152.597656 147.910156 152.675781 147.886719 152.675781 147.886719 C 152.679688 147.886719 152.769531 147.867188 152.773438 147.867188 L 152.949219 147.828125 C 152.957031 147.824219 153.101562 147.800781 153.109375 147.800781 L 153.683594 147.738281 C 153.746094 147.734375 153.804688 147.734375 153.90625 147.734375 C 153.976562 147.734375 154.046875 147.734375 154.074219 147.738281 C 154.089844 147.738281 154.109375 147.738281 154.128906 147.738281 L 154.277344 147.75 C 154.277344 147.75 154.355469 147.757812 154.359375 147.757812 C 154.367188 147.761719 154.433594 147.765625 154.441406 147.769531 C 154.527344 147.78125 154.609375 147.792969 154.691406 147.808594 C 154.691406 147.808594 154.695312 147.808594 154.703125 147.8125 C 154.710938 147.8125 154.722656 147.816406 154.734375 147.816406 C 154.75 147.824219 154.769531 147.828125 154.773438 147.828125 C 154.84375 147.84375 154.914062 147.859375 155.039062 147.898438 L 154.839844 148.519531 L 155.113281 147.921875 L 155.246094 147.964844 C 155.292969 147.980469 155.34375 148.003906 155.433594 148.039062 C 155.441406 148.042969 155.523438 148.078125 155.53125 148.082031 C 155.628906 148.128906 155.726562 148.175781 155.816406 148.230469 L 165.660156 153.949219 C 165.664062 153.953125 165.664062 153.957031 165.667969 153.957031 C 166.113281 154.21875 166.484375 154.570312 166.792969 154.996094 L 181.203125 146.675781 C 181.304688 146.617188 181.414062 146.585938 181.527344 146.585938 C 181.640625 146.585938 181.753906 146.617188 181.855469 146.675781 L 199.394531 156.800781 L 199.457031 136.507812 C 199.460938 136.277344 199.582031 136.0625 199.785156 135.945312 L 227.164062 120.136719 L 227.164062 68.195312 L 165.65625 103.710938 L 145.152344 115.546875 L 145.152344 151.9375 L 150.847656 148.652344 L 151.050781 148.535156 C 151.054688 148.535156 151.128906 148.496094 151.128906 148.496094 L 151.59375 148.269531 C 151.679688 148.226562 151.769531 148.191406 151.863281 148.152344 C 151.953125 148.117188 152.042969 148.082031 152.15625 148.042969 C 152.164062 148.042969 152.222656 148.023438 152.230469 148.019531 Z M 184.355469 121.457031 L 173.058594 115.019531 C 172.070312 114.457031 172.066406 112.621094 173.046875 110.917969 C 173.539062 110.070312 174.183594 109.414062 174.828125 109.039062 C 175.476562 108.667969 176.121094 108.578125 176.617188 108.859375 L 187.910156 115.296875 L 199.132812 95.859375 C 199.625 95.007812 200.269531 94.351562 200.914062 93.980469 C 201.558594 93.605469 202.207031 93.519531 202.699219 93.800781 C 203.691406 94.363281 203.695312 96.199219 202.710938 97.898438 L 191.492188 117.335938 L 202.785156 123.773438 C 203.773438 124.335938 203.78125 126.171875 202.796875 127.871094 C 202.308594 128.722656 201.660156 129.378906 201.015625 129.75 C 200.371094 130.125 199.722656 130.214844 199.230469 129.929688 L 187.933594 123.496094 L 176.714844 142.933594 C 176.222656 143.78125 175.578125 144.4375 174.933594 144.8125 C 174.285156 145.183594 173.640625 145.273438 173.144531 144.992188 C 172.15625 144.429688 172.152344 142.59375 173.132812 140.890625 Z M 152.425781 148.644531 Z M 155.214844 148.65625 Z M 149.007812 172.246094 C 147.90625 172.882812 147.351562 172.679688 147.347656 171.632812 C 147.34375 170.605469 147.894531 169.773438 149 169.136719 L 156.917969 164.5625 C 157.441406 164.261719 157.84375 164.191406 158.125 164.355469 C 158.410156 164.515625 158.554688 164.898438 158.554688 165.496094 L 158.597656 179.863281 C 158.597656 180.464844 158.457031 181.007812 158.175781 181.496094 C 157.894531 181.984375 157.492188 182.378906 156.96875 182.683594 L 149.050781 187.253906 C 147.949219 187.890625 147.394531 187.695312 147.390625 186.667969 C 147.386719 185.625 147.9375 184.78125 149.042969 184.144531 L 155.195312 180.59375 L 155.179688 176.042969 L 149.476562 179.335938 C 148.375 179.972656 147.820312 179.777344 147.816406 178.75 C 147.816406 177.707031 148.367188 176.863281 149.46875 176.226562 L 155.171875 172.933594 L 155.160156 168.691406 Z M 143.878906 172.089844 L 138.265625 175.332031 C 136.414062 176.402344 135.019531 177.675781 134.074219 179.15625 C 133.128906 180.636719 132.660156 182.257812 132.664062 184.023438 C 132.667969 185.410156 133.007812 186.375 133.679688 186.910156 C 134.355469 187.449219 135.304688 187.511719 136.527344 187.097656 C 136.078125 187.457031 135.679688 187.890625 135.332031 188.390625 C 134.984375 188.894531 134.644531 189.523438 134.316406 190.277344 L 132.625 194.1875 C 132.402344 194.695312 132.292969 195.128906 132.292969 195.488281 C 132.292969 195.964844 132.464844 196.265625 132.800781 196.378906 C 133.136719 196.492188 133.527344 196.421875 133.976562 196.164062 C 134.257812 196 134.535156 195.761719 134.804688 195.453125 C 135.070312 195.144531 135.292969 194.777344 135.472656 194.347656 L 138.410156 187.605469 C 138.664062 187.011719 138.929688 186.535156 139.214844 186.175781 C 139.496094 185.816406 139.855469 185.511719 140.285156 185.257812 L 142.097656 184.214844 L 142.113281 189.40625 C 142.113281 190.023438 142.269531 190.421875 142.574219 190.605469 C 142.882812 190.789062 143.296875 190.730469 143.816406 190.429688 C 144.355469 190.117188 144.777344 189.691406 145.089844 189.152344 C 145.402344 188.613281 145.558594 188.035156 145.554688 187.417969 L 145.515625 173.023438 C 145.515625 172.425781 145.371094 172.042969 145.085938 171.882812 C 144.804688 171.722656 144.398438 171.789062 143.878906 172.089844 Z M 142.132812 181.15625 L 138.800781 183.082031 C 137.800781 183.65625 137.078125 183.875 136.628906 183.730469 C 136.179688 183.585938 135.957031 183.085938 135.953125 182.226562 C 135.953125 181.355469 136.171875 180.59375 136.621094 179.9375 C 137.066406 179.285156 137.789062 178.671875 138.785156 178.09375 L 142.121094 176.171875 Z M 129.636719 198.078125 C 129.949219 197.535156 130.105469 196.957031 130.101562 196.339844 L 130.058594 181.949219 C 130.058594 181.347656 129.914062 180.96875 129.632812 180.804688 C 129.347656 180.644531 128.945312 180.714844 128.421875 181.015625 L 122.808594 184.257812 C 120.960938 185.324219 119.5625 186.597656 118.617188 188.078125 C 117.675781 189.558594 117.207031 191.179688 117.210938 192.945312 C 117.214844 194.332031 117.550781 195.296875 118.226562 195.835938 C 118.898438 196.375 119.847656 196.433594 121.070312 196.019531 C 120.625 196.382812 120.226562 196.8125 119.878906 197.3125 C 119.527344 197.816406 119.191406 198.445312 118.863281 199.199219 L 117.171875 203.109375 C 116.949219 203.617188 116.839844 204.050781 116.839844 204.410156 C 116.839844 204.886719 117.007812 205.1875 117.347656 205.300781 C 117.683594 205.417969 118.074219 205.34375 118.523438 205.085938 C 118.804688 204.925781 119.082031 204.6875 119.347656 204.378906 C 119.617188 204.066406 119.839844 203.699219 120.019531 203.269531 L 122.957031 196.527344 C 123.207031 195.9375 123.476562 195.457031 123.757812 195.101562 C 124.039062 194.738281 124.398438 194.433594 124.832031 194.183594 L 126.644531 193.136719 L 126.65625 198.328125 C 126.660156 198.945312 126.8125 199.34375 127.117188 199.53125 C 127.425781 199.710938 127.839844 199.652344 128.363281 199.355469 C 128.898438 199.042969 129.324219 198.617188 129.636719 198.078125 Z M 126.679688 190.078125 L 123.347656 192.003906 C 122.347656 192.582031 121.621094 192.796875 121.175781 192.652344 C 120.726562 192.511719 120.5 192.007812 120.5 191.152344 C 120.496094 190.277344 120.71875 189.515625 121.164062 188.863281 C 121.609375 188.210938 122.332031 187.59375 123.332031 187.019531 L 126.664062 185.09375 Z M 114.257812 203.183594 C 114.882812 201.425781 115.191406 199.605469 115.183594 197.71875 C 115.179688 195.835938 114.863281 194.375 114.230469 193.339844 C 113.601562 192.304688 112.707031 191.742188 111.550781 191.65625 C 110.390625 191.570312 109.03125 191.980469 107.464844 192.882812 C 105.898438 193.785156 104.539062 194.949219 103.386719 196.371094 C 102.230469 197.792969 101.34375 199.382812 100.722656 201.140625 C 100.101562 202.898438 99.789062 204.71875 99.796875 206.605469 C 99.800781 208.488281 100.121094 209.949219 100.75 210.984375 C 101.378906 212.019531 102.273438 212.582031 103.429688 212.679688 C 104.589844 212.773438 105.949219 212.371094 107.515625 211.464844 C 109.082031 210.5625 110.441406 209.394531 111.597656 207.964844 C 112.75 206.535156 113.636719 204.941406 114.257812 203.183594 Z M 111.695312 199.734375 C 111.703125 201.738281 111.332031 203.488281 110.589844 204.980469 C 109.847656 206.472656 108.820312 207.597656 107.507812 208.355469 C 106.195312 209.113281 105.164062 209.179688 104.40625 208.550781 C 103.652344 207.921875 103.269531 206.605469 103.261719 204.601562 C 103.257812 202.597656 103.628906 200.851562 104.367188 199.367188 C 105.113281 197.882812 106.148438 196.757812 107.472656 195.992188 C 108.800781 195.226562 109.835938 195.15625 110.578125 195.785156 C 111.316406 196.414062 111.691406 197.726562 111.695312 199.734375 Z M 96.914062 216.96875 C 97.226562 216.429688 97.382812 215.851562 97.378906 215.234375 L 97.335938 200.839844 C 97.335938 200.242188 97.191406 199.859375 96.910156 199.699219 C 96.625 199.535156 96.222656 199.605469 95.699219 199.90625 L 90.085938 203.148438 C 88.238281 204.21875 86.839844 205.488281 85.894531 206.972656 C 84.953125 208.453125 84.484375 210.074219 84.488281 211.839844 C 84.492188 213.226562 84.828125 214.191406 85.503906 214.726562 C 86.175781 215.265625 87.125 215.328125 88.347656 214.914062 C 87.902344 215.273438 87.503906 215.707031 87.152344 216.207031 C 86.804688 216.710938 86.464844 217.339844 86.140625 218.09375 L 84.449219 222.003906 C 84.226562 222.511719 84.117188 222.941406 84.117188 223.304688 C 84.117188 223.78125 84.285156 224.082031 84.625 224.195312 C 84.960938 224.308594 85.351562 224.238281 85.800781 223.980469 C 86.082031 223.816406 86.355469 223.578125 86.625 223.269531 C 86.894531 222.960938 87.117188 222.59375 87.296875 222.164062 L 90.234375 215.421875 C 90.484375 214.828125 90.753906 214.351562 91.035156 213.992188 C 91.316406 213.632812 91.675781 213.328125 92.109375 213.078125 L 93.917969 212.03125 L 93.933594 217.222656 C 93.9375 217.839844 94.089844 218.238281 94.394531 218.421875 C 94.703125 218.605469 95.117188 218.546875 95.640625 218.246094 C 96.175781 217.933594 96.601562 217.511719 96.914062 216.96875 Z M 93.957031 208.972656 L 90.625 210.894531 C 89.625 211.472656 88.898438 211.691406 88.453125 211.546875 C 88.003906 211.402344 87.777344 210.898438 87.777344 210.042969 C 87.773438 209.167969 87.996094 208.40625 88.441406 207.753906 C 88.886719 207.101562 89.609375 206.484375 90.609375 205.910156 L 93.941406 203.984375 Z M 80.574219 222.515625 C 81.128906 222.195312 81.582031 222.144531 81.941406 222.359375 C 82.300781 222.570312 82.480469 222.992188 82.484375 223.628906 C 82.484375 224.261719 82.308594 224.890625 81.949219 225.519531 C 81.59375 226.144531 81.140625 226.617188 80.589844 226.9375 C 80.035156 227.253906 79.582031 227.304688 79.222656 227.09375 C 78.863281 226.878906 78.683594 226.457031 78.679688 225.824219 C 78.679688 225.1875 78.855469 224.558594 79.210938 223.933594 C 79.570312 223.308594 80.023438 222.832031 80.574219 222.515625 Z M 81.597656 219.378906 C 81.550781 219.796875 81.4375 220.164062 81.253906 220.476562 C 81.066406 220.789062 80.839844 221.023438 80.570312 221.179688 C 80.304688 221.335938 80.074219 221.363281 79.886719 221.265625 C 79.699219 221.164062 79.59375 220.929688 79.5625 220.550781 L 78.53125 212.164062 C 78.4375 211.460938 78.589844 210.773438 78.984375 210.101562 C 79.378906 209.425781 79.894531 208.902344 80.535156 208.535156 C 81.117188 208.199219 81.601562 208.105469 81.988281 208.261719 C 82.378906 208.414062 82.574219 208.808594 82.578125 209.441406 C 82.578125 209.59375 82.570312 209.71875 82.554688 209.8125 Z M 81.597656 219.378906 " fill-opacity="1" fill-rule="nonzero"/><g clip-path="url(#01566cdfb0)"><path fill="#232136" d="M 288.371094 227.472656 L 270.34375 237.878906 L 162.179688 300.328125 L 144.152344 310.738281 C 144.050781 310.796875 143.9375 310.824219 143.824219 310.824219 C 143.710938 310.824219 143.597656 310.796875 143.5 310.738281 L 125.472656 300.328125 L 89.417969 279.511719 L 71.390625 269.105469 C 71.1875 268.988281 71.0625 268.773438 71.0625 268.539062 C 71.0625 268.304688 71.1875 268.089844 71.390625 267.972656 L 89.417969 257.566406 L 107.445312 247.15625 L 125.472656 236.75 L 143.5 226.339844 L 161.527344 215.933594 L 179.550781 205.523438 L 215.605469 184.710938 C 215.808594 184.59375 216.058594 184.59375 216.261719 184.710938 L 234.289062 195.117188 L 252.3125 205.523438 L 270.339844 215.933594 L 288.367188 226.339844 C 288.570312 226.457031 288.695312 226.675781 288.695312 226.90625 C 288.695312 227.140625 288.570312 227.355469 288.371094 227.472656 Z M 251.988281 206.84375 L 243.996094 211.460938 L 235.269531 216.5 L 251.988281 226.152344 L 268.710938 216.5 Z M 233.960938 196.4375 L 226.621094 200.675781 L 207.824219 211.527344 L 199.214844 216.5 L 215.933594 226.152344 L 223.277344 221.914062 L 242.070312 211.0625 L 250.683594 206.089844 Z M 181.1875 206.089844 L 197.90625 215.746094 L 214.628906 206.089844 L 197.90625 196.4375 Z M 163.160156 216.5 L 179.878906 226.152344 L 196.601562 216.5 L 179.878906 206.84375 Z M 145.132812 226.90625 L 161.851562 236.5625 L 178.574219 226.90625 L 161.851562 217.253906 Z M 127.105469 237.316406 L 143.824219 246.96875 L 160.546875 237.316406 L 143.824219 227.660156 Z M 109.078125 247.722656 L 125.796875 257.375 L 142.519531 247.722656 L 125.796875 238.070312 Z M 91.050781 258.132812 L 107.769531 267.785156 L 124.492188 258.132812 L 107.769531 248.476562 Z M 199.214844 237.316406 L 215.933594 246.96875 L 232.65625 237.316406 L 215.933594 227.660156 Z M 181.1875 247.722656 L 197.90625 257.375 L 214.628906 247.722656 L 197.90625 238.070312 Z M 163.160156 258.132812 L 179.878906 267.785156 L 196.601562 258.132812 L 179.878906 248.476562 Z M 145.132812 268.539062 L 161.851562 278.191406 L 178.574219 268.539062 L 161.851562 258.886719 Z M 160.546875 258.132812 L 143.824219 248.476562 L 127.105469 258.132812 L 143.824219 267.785156 Z M 161.851562 257.378906 L 178.574219 247.722656 L 161.851562 238.070312 L 145.128906 247.722656 Z M 179.878906 246.96875 L 196.601562 237.316406 L 179.878906 227.660156 L 163.160156 237.316406 Z M 197.90625 236.5625 L 214.628906 226.90625 L 197.90625 217.253906 L 181.1875 226.90625 Z M 217.242188 226.90625 L 233.960938 236.5625 L 250.683594 226.90625 L 233.960938 217.253906 L 225.355469 222.222656 Z M 143.824219 288.601562 L 160.546875 278.945312 L 143.824219 269.292969 L 127.105469 278.945312 Z M 251.988281 227.660156 L 234.289062 237.878906 L 216.261719 248.289062 L 198.234375 258.695312 L 180.207031 269.105469 L 162.179688 279.511719 L 145.132812 289.355469 L 161.855469 299.007812 L 268.710938 237.316406 Z M 160.546875 299.761719 L 143.824219 290.109375 L 127.105469 299.761719 L 143.824219 309.417969 Z M 125.796875 299.007812 L 142.519531 289.355469 L 125.472656 279.511719 C 125.269531 279.394531 125.144531 279.179688 125.144531 278.945312 C 125.144531 278.714844 125.269531 278.5 125.472656 278.382812 L 142.519531 268.539062 L 125.796875 258.886719 L 118.457031 263.125 L 91.050781 278.949219 Z M 89.742188 278.191406 L 102.320312 270.929688 L 106.464844 268.539062 L 89.742188 258.886719 L 73.019531 268.539062 Z M 199.214844 195.683594 L 215.933594 205.335938 L 232.65625 195.683594 L 215.933594 186.027344 Z M 270.015625 217.253906 L 253.292969 226.90625 L 270.015625 236.5625 L 286.738281 226.90625 Z M 191.1875 287.480469 L 243.71875 257.152344 C 243.921875 257.035156 244.167969 257.035156 244.371094 257.152344 L 283.769531 279.898438 C 283.972656 280.015625 284.097656 280.230469 284.097656 280.464844 C 284.097656 280.699219 283.972656 280.914062 283.769531 281.03125 L 231.238281 311.359375 C 231.136719 311.417969 231.023438 311.449219 230.910156 311.449219 C 230.800781 311.449219 230.6875 311.417969 230.585938 311.359375 L 191.1875 288.613281 C 190.984375 288.496094 190.859375 288.28125 190.859375 288.046875 C 190.859375 287.8125 190.984375 287.597656 191.1875 287.480469 Z M 270.3125 273.636719 L 245.351562 288.046875 L 257.179688 294.875 L 282.140625 280.464844 Z M 244.046875 288.800781 L 219.085938 303.210938 L 230.910156 310.039062 L 255.871094 295.628906 Z M 217.777344 302.457031 L 243.71875 287.480469 L 269.003906 272.882812 L 244.046875 258.472656 L 192.820312 288.046875 Z M 13.6875 114.875 C 13.695312 114.867188 13.695312 114.855469 13.699219 114.84375 C 13.703125 114.835938 13.714844 114.828125 13.722656 114.820312 C 14.847656 112.878906 16.472656 111.226562 18.472656 110.070312 L 206.402344 1.570312 C 208.933594 0.109375 211.984375 0.0585938 214.558594 1.4375 L 228.816406 9.066406 C 228.90625 9.113281 229 9.148438 229.089844 9.199219 C 229.117188 9.214844 229.144531 9.238281 229.171875 9.253906 L 229.246094 9.296875 C 229.273438 9.308594 229.289062 9.332031 229.308594 9.347656 C 231.800781 10.890625 233.285156 13.527344 233.285156 16.472656 L 233.285156 161.472656 L 358.863281 233.976562 C 361.492188 235.492188 363.0625 238.210938 363.0625 241.246094 L 363.0625 257.125 C 363.0625 260.113281 361.453125 262.902344 358.863281 264.394531 L 170.421875 373.195312 C 168.40625 374.355469 166.152344 374.9375 163.898438 374.9375 C 161.628906 374.9375 159.359375 374.347656 157.339844 373.171875 L 32.1875 300.34375 C 28.1875 298.015625 25.703125 293.695312 25.707031 289.070312 L 25.707031 281.320312 L 18.472656 277.144531 C 14.453125 274.824219 11.953125 270.496094 11.953125 265.851562 L 11.953125 121.363281 C 11.953125 119.054688 12.570312 116.824219 13.6875 114.875 Z M 207.054688 2.703125 L 19.125 111.203125 C 17.511719 112.132812 16.171875 113.429688 15.179688 114.945312 L 27.800781 122.230469 C 28.90625 120.519531 30.410156 119.058594 32.226562 118.011719 L 220.691406 9.199219 C 221.8125 8.550781 223.023438 8.199219 224.25 8.101562 L 213.941406 2.589844 C 211.765625 1.425781 209.191406 1.46875 207.054688 2.703125 Z M 59.640625 308.097656 C 59.632812 310.230469 61.199219 312.9375 63.054688 314.011719 L 103.132812 337.148438 C 103.914062 337.601562 104.648438 337.699219 105.144531 337.414062 C 105.640625 337.128906 105.914062 336.472656 105.917969 335.566406 C 105.925781 333.433594 104.359375 330.726562 102.503906 329.652344 L 62.425781 306.515625 C 61.644531 306.0625 60.910156 305.964844 60.414062 306.25 C 59.917969 306.535156 59.644531 307.191406 59.640625 308.097656 Z M 228.523438 10.390625 L 228.144531 10.1875 C 225.988281 9.0625 223.472656 9.101562 221.34375 10.328125 L 32.878906 119.140625 C 29.257812 121.230469 27.011719 125.125 27.011719 129.304688 L 27.011719 279.8125 L 231.980469 161.472656 L 231.980469 16.46875 C 231.980469 13.945312 230.6875 11.679688 228.523438 10.390625 Z M 232.632812 162.605469 L 27.664062 280.941406 L 158.007812 356.199219 C 161.625 358.289062 166.125 358.289062 169.742188 356.199219 L 358.210938 247.386719 C 360.429688 246.105469 361.753906 243.808594 361.753906 241.246094 C 361.753906 238.683594 360.429688 236.386719 358.210938 235.105469 Z M 126.839844 142.824219 L 87.039062 165.800781 C 86.066406 166.363281 85.089844 166.640625 84.179688 166.640625 C 83.234375 166.640625 82.363281 166.335938 81.652344 165.730469 C 79.917969 164.242188 79.589844 161.382812 80.796875 158.265625 L 100.585938 107.171875 C 101.535156 104.722656 103.269531 102.585938 105.222656 101.457031 C 107.582031 100.09375 109.957031 100.40625 111.265625 102.246094 L 131.277344 130.367188 C 132.171875 131.621094 132.425781 133.421875 131.984375 135.433594 C 131.316406 138.503906 129.296875 141.402344 126.839844 142.824219 Z M 128.714844 132.191406 L 108.703125 104.074219 C 108.539062 103.84375 108.304688 103.761719 108.046875 103.761719 C 107.617188 103.761719 107.125 103.996094 106.796875 104.183594 C 105.464844 104.953125 104.207031 106.535156 103.519531 108.308594 L 83.734375 159.40625 C 82.886719 161.585938 83.25 162.953125 83.703125 163.339844 C 84.191406 163.757812 85.175781 163.242188 85.464844 163.074219 L 125.265625 140.097656 C 126.9375 139.132812 128.4375 136.9375 128.910156 134.765625 C 129.148438 133.664062 129.074219 132.699219 128.714844 132.191406 Z M 82.257812 158.851562 C 80.515625 163.367188 82.730469 166.472656 86.253906 164.4375 C 82.730469 166.472656 80.515625 163.367188 82.257812 158.851562 C 82.261719 158.84375 82.261719 158.839844 82.265625 158.835938 C 82.261719 158.839844 82.261719 158.84375 82.257812 158.851562 Z M 109.984375 103.160156 C 109.984375 103.160156 109.980469 103.160156 109.980469 103.15625 C 109.09375 101.917969 107.550781 101.929688 106.011719 102.820312 C 106.007812 102.820312 106.007812 102.820312 106.007812 102.820312 C 106.007812 102.820312 106.007812 102.820312 106.011719 102.820312 C 107.550781 101.929688 109.09375 101.914062 109.980469 103.15625 C 109.980469 103.160156 109.984375 103.160156 109.984375 103.160156 Z M 126.0625 141.453125 C 129.582031 139.414062 131.765625 133.765625 129.996094 131.277344 C 131.765625 133.765625 129.582031 139.414062 126.0625 141.453125 Z M 110.089844 132.996094 L 110.035156 113.691406 C 110.03125 112.011719 108.839844 111.335938 107.378906 112.179688 C 105.914062 113.023438 104.734375 115.070312 104.738281 116.75 L 104.792969 136.054688 C 104.796875 137.734375 105.988281 138.410156 107.449219 137.566406 C 108.914062 136.722656 110.097656 134.675781 110.089844 132.996094 Z M 110.117188 142.027344 C 110.113281 140.34375 108.921875 139.667969 107.460938 140.511719 C 105.996094 141.355469 104.816406 143.402344 104.820312 145.085938 C 104.824219 146.765625 106.015625 147.441406 107.476562 146.597656 C 108.9375 145.753906 110.121094 143.707031 110.117188 142.027344 Z M 228.144531 121.082031 L 224.304688 123.296875 L 224.304688 156.664062 C 224.304688 156.898438 224.179688 157.113281 223.976562 157.230469 L 35.664062 265.953125 C 35.5625 266.011719 35.453125 266.039062 35.339844 266.039062 C 35.226562 266.039062 35.113281 266.011719 35.011719 265.953125 C 34.808594 265.835938 34.683594 265.621094 34.683594 265.386719 L 34.683594 127.335938 C 34.683594 127.105469 34.808594 126.890625 35.011719 126.773438 L 37.214844 125.5 L 37.214844 119.367188 C 37.214844 119.132812 37.339844 118.917969 37.539062 118.800781 L 146.632812 55.816406 C 146.835938 55.699219 147.082031 55.699219 147.285156 55.816406 L 152.601562 58.882812 L 223.324219 18.050781 C 223.527344 17.933594 223.777344 17.933594 223.976562 18.050781 C 224.179688 18.167969 224.304688 18.382812 224.304688 18.617188 L 224.304688 64.285156 L 228.144531 66.5 C 228.347656 66.617188 228.472656 66.832031 228.472656 67.066406 L 228.472656 120.515625 C 228.46875 120.75 228.347656 120.964844 228.144531 121.082031 Z M 35.992188 264.253906 L 223 156.289062 L 223 124.050781 L 200.761719 136.890625 L 200.695312 157.933594 C 200.695312 158.167969 200.570312 158.382812 200.371094 158.496094 C 200.167969 158.613281 199.917969 158.613281 199.71875 158.496094 L 181.527344 147.996094 L 167.394531 156.15625 C 167.625 156.8125 167.75 157.5625 167.753906 158.402344 L 167.808594 176.992188 C 167.820312 181.042969 164.960938 185.996094 161.4375 188.03125 L 76.410156 237.117188 C 75.351562 237.730469 74.3125 238.042969 73.363281 238.042969 C 72.671875 238.042969 72.027344 237.878906 71.457031 237.546875 C 71.453125 237.546875 71.453125 237.542969 71.449219 237.542969 C 71.445312 237.542969 71.445312 237.542969 71.441406 237.542969 L 61.59375 231.820312 C 61.519531 231.773438 61.445312 231.726562 61.402344 231.695312 C 61.390625 231.6875 61.328125 231.644531 61.316406 231.636719 C 61.261719 231.597656 61.210938 231.558594 61.15625 231.515625 C 61.15625 231.515625 61.101562 231.472656 61.097656 231.46875 C 61.042969 231.421875 60.984375 231.367188 60.902344 231.292969 C 60.839844 231.230469 60.777344 231.164062 60.726562 231.105469 C 60.71875 231.101562 60.671875 231.046875 60.667969 231.039062 L 60.550781 230.898438 C 60.546875 230.894531 60.5 230.832031 60.496094 230.824219 C 60.449219 230.765625 60.410156 230.707031 60.328125 230.585938 C 60.277344 230.507812 60.230469 230.425781 60.1875 230.347656 C 60.140625 230.265625 60.097656 230.183594 60.0625 230.105469 C 60.058594 230.097656 60.03125 230.039062 60.027344 230.03125 C 59.996094 229.960938 59.960938 229.882812 59.945312 229.832031 L 59.859375 229.609375 C 59.835938 229.539062 59.808594 229.464844 59.773438 229.355469 C 59.773438 229.34375 59.75 229.257812 59.746094 229.246094 L 59.699219 229.066406 C 59.699219 229.0625 59.679688 228.992188 59.679688 228.984375 L 59.574219 228.398438 C 59.570312 228.386719 59.5625 228.328125 59.5625 228.320312 L 60.210938 228.253906 L 59.550781 228.210938 L 59.519531 227.828125 C 59.519531 227.824219 59.515625 227.777344 59.515625 227.75 C 59.511719 227.730469 59.511719 227.710938 59.511719 227.699219 C 59.507812 227.597656 59.503906 227.492188 59.507812 227.445312 C 59.503906 227.421875 59.503906 227.390625 59.503906 227.367188 L 59.449219 208.777344 C 59.449219 208.679688 59.453125 208.582031 59.457031 208.449219 C 59.457031 208.441406 59.460938 208.375 59.460938 208.363281 L 60.117188 208.339844 L 59.464844 208.25 C 59.464844 208.246094 59.46875 208.175781 59.46875 208.171875 C 59.46875 208.171875 59.476562 208.066406 59.476562 208.066406 C 59.476562 208.058594 59.488281 207.9375 59.488281 207.929688 C 59.488281 207.929688 59.496094 207.847656 59.496094 207.847656 L 59.53125 207.535156 C 59.542969 207.429688 59.558594 207.320312 59.574219 207.210938 C 59.578125 207.195312 59.582031 207.183594 59.585938 207.171875 C 59.585938 207.167969 59.585938 207.167969 59.585938 207.164062 L 59.636719 206.859375 C 59.640625 206.851562 59.664062 206.722656 59.667969 206.710938 C 59.679688 206.65625 59.691406 206.597656 59.71875 206.472656 C 59.71875 206.46875 59.753906 206.332031 59.753906 206.324219 C 59.753906 206.324219 59.777344 206.21875 59.777344 206.21875 C 59.777344 206.214844 59.8125 206.085938 59.8125 206.082031 L 59.847656 205.949219 C 59.847656 205.945312 59.867188 205.878906 59.867188 205.875 L 60.070312 205.222656 C 60.074219 205.207031 60.082031 205.1875 60.085938 205.171875 L 60.191406 204.875 C 60.195312 204.859375 60.21875 204.792969 60.226562 204.777344 L 60.5 204.882812 C 60.476562 204.851562 60.457031 204.820312 60.441406 204.785156 L 60.261719 204.679688 L 60.425781 204.273438 C 60.425781 204.273438 60.425781 204.273438 60.425781 204.269531 L 60.472656 204.15625 L 60.496094 204.164062 C 60.515625 204.132812 60.535156 204.09375 60.5625 204.066406 L 60.519531 204.039062 C 60.523438 204.035156 60.550781 203.96875 60.554688 203.964844 C 60.601562 203.859375 60.648438 203.753906 60.695312 203.652344 L 60.699219 203.652344 C 60.714844 203.613281 60.730469 203.578125 60.742188 203.558594 L 61.066406 202.917969 C 61.15625 202.75 61.246094 202.585938 61.320312 202.46875 C 61.324219 202.453125 61.355469 202.398438 61.363281 202.386719 C 61.363281 202.382812 61.4375 202.261719 61.441406 202.257812 L 61.828125 201.648438 C 61.828125 201.644531 61.871094 201.582031 61.875 201.578125 C 61.976562 201.425781 62.082031 201.273438 62.222656 201.089844 L 62.21875 201.085938 C 62.226562 201.078125 62.234375 201.066406 62.238281 201.058594 C 62.328125 200.941406 62.414062 200.824219 62.484375 200.738281 C 62.492188 200.726562 62.503906 200.710938 62.515625 200.695312 C 62.585938 200.609375 62.652344 200.523438 62.742188 200.414062 C 62.753906 200.402344 62.761719 200.390625 62.773438 200.378906 C 62.851562 200.285156 62.925781 200.199219 62.972656 200.148438 C 62.992188 200.125 63.015625 200.097656 63.035156 200.074219 C 63.046875 200.0625 63.054688 200.054688 63.058594 200.046875 L 63.191406 200.164062 C 63.214844 200.164062 63.238281 200.160156 63.261719 200.160156 L 63.261719 200.226562 L 63.546875 200.484375 L 63.132812 199.964844 L 63.726562 199.347656 C 63.730469 199.347656 63.78125 199.296875 63.785156 199.292969 L 64.238281 199.765625 L 64.601562 200.320312 L 64.066406 200.878906 L 63.582031 200.445312 L 63.871094 200.8125 L 63.914062 200.8125 C 63.914062 200.832031 63.914062 200.851562 63.914062 200.867188 L 63.992188 200.96875 L 63.765625 201.230469 C 63.761719 201.234375 63.761719 201.234375 63.761719 201.234375 C 63.746094 201.25 63.730469 201.273438 63.726562 201.277344 C 63.664062 201.351562 63.601562 201.429688 63.53125 201.519531 C 63.449219 201.625 63.367188 201.730469 63.289062 201.839844 C 63.285156 201.839844 63.285156 201.839844 63.285156 201.84375 C 63.171875 201.996094 63.0625 202.152344 62.964844 202.296875 L 62.394531 201.972656 L 62.886719 202.414062 L 62.464844 203.089844 C 62.378906 203.238281 62.296875 203.382812 62.21875 203.53125 C 62.214844 203.539062 62.179688 203.609375 62.175781 203.613281 L 61.917969 204.121094 L 61.910156 204.117188 C 61.902344 204.152344 61.886719 204.183594 61.871094 204.21875 C 61.871094 204.222656 61.867188 204.226562 61.863281 204.230469 L 70.6875 209.074219 L 70.914062 208.632812 C 71 208.46875 71.089844 208.308594 71.207031 208.105469 L 71.273438 207.996094 C 71.277344 207.992188 71.316406 207.925781 71.320312 207.921875 L 71.71875 207.300781 C 71.835938 207.125 71.953125 206.953125 72.082031 206.785156 C 72.167969 206.664062 72.257812 206.546875 72.351562 206.429688 L 72.601562 206.117188 C 72.6875 206.011719 72.777344 205.910156 72.851562 205.828125 L 72.9375 205.726562 C 73.003906 205.65625 73.066406 205.585938 73.179688 205.46875 L 74.59375 204.183594 C 74.59375 204.179688 74.710938 204.09375 74.714844 204.089844 C 74.78125 204.039062 74.847656 203.992188 74.914062 203.945312 L 75.019531 203.871094 C 75.121094 203.800781 75.222656 203.730469 75.347656 203.652344 C 75.449219 203.589844 75.554688 203.527344 75.664062 203.460938 L 160.691406 154.371094 C 160.789062 154.316406 160.882812 154.265625 161.015625 154.195312 C 161.015625 154.195312 161.082031 154.160156 161.085938 154.160156 C 161.160156 154.121094 161.234375 154.085938 161.320312 154.046875 C 161.328125 154.042969 161.390625 154.011719 161.394531 154.007812 C 161.601562 153.914062 161.808594 153.832031 162 153.765625 L 162.097656 153.734375 C 162.171875 153.710938 162.242188 153.6875 162.3125 153.667969 L 162.429688 153.636719 C 162.449219 153.628906 162.46875 153.625 162.488281 153.621094 L 155.152344 149.355469 C 155.097656 149.324219 155.042969 149.296875 154.957031 149.257812 L 155.214844 148.65625 L 154.882812 149.226562 L 154.742188 149.171875 L 154.886719 148.535156 L 154.625 149.136719 C 154.582031 149.125 154.539062 149.113281 154.457031 149.097656 C 154.453125 149.09375 154.445312 149.09375 154.441406 149.09375 C 154.386719 149.082031 154.332031 149.070312 154.285156 149.066406 L 154.300781 148.410156 L 154.164062 149.050781 L 154.03125 149.042969 C 153.992188 149.039062 153.949219 149.039062 153.863281 149.039062 L 153.734375 149.046875 L 153.679688 148.394531 L 153.636719 149.050781 L 153.539062 149.058594 C 153.527344 149.058594 153.46875 149.066406 153.457031 149.066406 C 153.449219 149.066406 153.351562 149.082031 153.34375 149.085938 C 153.335938 149.085938 153.25 149.101562 153.242188 149.101562 L 153.105469 148.464844 L 153.15625 149.121094 L 153.074219 149.136719 L 152.925781 148.503906 L 152.984375 149.15625 C 152.980469 149.160156 152.90625 149.179688 152.898438 149.183594 L 152.804688 149.207031 C 152.792969 149.210938 152.691406 149.246094 152.675781 149.246094 L 152.425781 148.644531 L 152.304688 147.996094 L 152.371094 147.976562 C 152.382812 147.972656 152.453125 147.949219 152.464844 147.945312 L 152.597656 147.910156 C 152.597656 147.910156 152.675781 147.890625 152.675781 147.886719 C 152.679688 147.886719 152.769531 147.867188 152.773438 147.867188 L 152.949219 147.828125 C 152.957031 147.828125 153.101562 147.800781 153.109375 147.800781 L 153.683594 147.738281 C 153.742188 147.738281 153.804688 147.734375 153.90625 147.734375 C 153.976562 147.734375 154.046875 147.734375 154.074219 147.738281 C 154.089844 147.738281 154.109375 147.738281 154.128906 147.742188 L 154.277344 147.75 C 154.277344 147.75 154.355469 147.757812 154.355469 147.757812 C 154.367188 147.761719 154.433594 147.769531 154.441406 147.769531 C 154.527344 147.78125 154.609375 147.792969 154.6875 147.808594 C 154.691406 147.8125 154.691406 147.808594 154.703125 147.8125 C 154.710938 147.8125 154.722656 147.816406 154.730469 147.820312 C 154.75 147.824219 154.769531 147.828125 154.773438 147.828125 C 154.84375 147.84375 154.914062 147.859375 155.039062 147.898438 L 154.839844 148.519531 L 155.113281 147.921875 L 155.242188 147.964844 C 155.292969 147.980469 155.34375 148.003906 155.429688 148.039062 C 155.4375 148.042969 155.523438 148.082031 155.53125 148.085938 C 155.628906 148.128906 155.722656 148.175781 155.8125 148.230469 L 165.65625 153.949219 C 165.65625 153.949219 165.660156 153.949219 165.660156 153.949219 C 165.664062 153.953125 165.664062 153.957031 165.667969 153.957031 C 166.113281 154.21875 166.484375 154.570312 166.792969 154.996094 L 181.199219 146.675781 C 181.300781 146.617188 181.414062 146.585938 181.527344 146.585938 C 181.640625 146.585938 181.753906 146.617188 181.855469 146.675781 L 199.394531 156.800781 L 199.457031 136.511719 C 199.457031 136.277344 199.582031 136.0625 199.785156 135.945312 L 227.164062 120.140625 L 227.164062 68.195312 L 165.652344 103.710938 L 145.148438 115.546875 L 145.148438 151.9375 L 150.84375 148.652344 L 151.050781 148.535156 C 151.054688 148.535156 151.128906 148.496094 151.128906 148.496094 L 151.589844 148.269531 C 151.679688 148.226562 151.769531 148.191406 151.859375 148.152344 C 151.953125 148.117188 152.042969 148.082031 152.152344 148.042969 C 152.164062 148.042969 152.222656 148.023438 152.230469 148.019531 L 152.425781 148.640625 L 152.558594 149.285156 C 152.488281 149.3125 152.414062 149.339844 152.347656 149.367188 C 152.273438 149.394531 152.199219 149.425781 152.113281 149.464844 C 152.109375 149.46875 151.988281 149.523438 151.980469 149.527344 L 151.914062 149.5625 C 151.90625 149.5625 151.824219 149.605469 151.820312 149.609375 L 151.746094 149.648438 L 151.4375 149.070312 L 151.675781 149.683594 L 66.417969 198.902344 L 66.179688 199.050781 C 66.179688 199.050781 66.175781 199.050781 66.175781 199.050781 C 66.097656 199.101562 66.023438 199.152344 65.925781 199.21875 C 65.921875 199.21875 65.867188 199.261719 65.863281 199.261719 C 65.859375 199.265625 65.785156 199.316406 65.78125 199.320312 L 65.570312 199.476562 C 65.570312 199.476562 65.507812 199.523438 65.507812 199.523438 L 65.441406 199.574219 C 65.441406 199.574219 65.378906 199.625 65.378906 199.628906 L 65.273438 199.714844 L 64.855469 199.210938 L 65.199219 199.773438 C 65.199219 199.773438 65.121094 199.839844 65.121094 199.839844 L 65.003906 199.941406 C 65 199.945312 64.945312 199.992188 64.941406 199.996094 L 64.453125 199.558594 L 64.863281 200.070312 C 64.863281 200.070312 64.808594 200.117188 64.808594 200.121094 L 64.746094 200.175781 C 64.742188 200.179688 64.683594 200.234375 64.679688 200.238281 L 64.234375 199.761719 L 63.835938 199.238281 L 63.96875 199.117188 C 63.96875 199.117188 64.058594 199.035156 64.058594 199.03125 C 64.0625 199.027344 64.132812 198.96875 64.136719 198.964844 L 64.269531 198.847656 L 64.695312 199.34375 L 64.34375 198.785156 L 64.574219 198.59375 C 64.578125 198.589844 64.625 198.550781 64.632812 198.546875 L 65.03125 198.25 L 65.40625 198.78125 L 65.097656 198.203125 L 65.160156 198.15625 C 65.171875 198.148438 65.1875 198.136719 65.203125 198.128906 C 65.292969 198.066406 65.382812 198.007812 65.472656 197.949219 C 65.480469 197.941406 65.488281 197.9375 65.5 197.933594 C 65.5 197.929688 65.5 197.929688 65.5 197.929688 C 65.585938 197.878906 65.667969 197.828125 65.816406 197.738281 L 89.027344 184.339844 L 86.023438 182.605469 C 85.820312 182.488281 85.699219 182.273438 85.699219 182.039062 L 85.699219 176.480469 L 50.3125 196.910156 C 50.210938 196.96875 50.097656 196.996094 49.984375 196.996094 C 49.871094 196.996094 49.761719 196.96875 49.660156 196.910156 L 37.539062 189.914062 C 37.335938 189.796875 37.210938 189.578125 37.210938 189.347656 L 37.210938 127.007812 L 35.988281 127.714844 L 35.988281 264.253906 Z M 61.332031 203.839844 L 61.570312 204.015625 L 61.878906 204.101562 Z M 60.382812 229.113281 Z M 163.15625 154.148438 Z M 164.996094 155.078125 C 164.996094 155.078125 164.992188 155.074219 164.992188 155.074219 C 164.8125 154.972656 164.621094 154.894531 164.417969 154.84375 C 164.40625 154.839844 164.394531 154.835938 164.382812 154.835938 C 164.191406 154.789062 163.988281 154.765625 163.777344 154.761719 C 163.753906 154.761719 163.734375 154.761719 163.707031 154.761719 L 163.675781 154.761719 C 163.5 154.765625 163.320312 154.78125 163.132812 154.816406 L 163.113281 154.820312 C 162.957031 154.847656 162.800781 154.886719 162.640625 154.933594 C 162.605469 154.945312 162.570312 154.953125 162.53125 154.964844 C 162.402344 155.007812 162.265625 155.0625 162.132812 155.117188 C 162.070312 155.144531 162.011719 155.164062 161.949219 155.191406 C 161.75 155.28125 161.546875 155.382812 161.34375 155.503906 L 76.316406 204.59375 C 76.128906 204.703125 75.941406 204.820312 75.757812 204.949219 L 75.667969 205.015625 C 75.566406 205.085938 75.464844 205.167969 75.363281 205.246094 L 73.914062 206.597656 C 73.890625 206.625 73.867188 206.652344 73.84375 206.679688 C 73.761719 206.769531 73.6875 206.859375 73.574219 206.996094 L 73.375 207.242188 C 73.292969 207.34375 73.214844 207.449219 73.132812 207.5625 C 73.019531 207.71875 72.910156 207.875 72.78125 208.0625 L 72.3125 208.804688 C 72.226562 208.957031 72.144531 209.105469 72.066406 209.246094 L 71.726562 209.921875 C 71.675781 210.027344 71.628906 210.132812 71.582031 210.242188 C 71.578125 210.253906 71.570312 210.257812 71.5625 210.269531 C 71.558594 210.277344 71.554688 210.289062 71.550781 210.296875 C 71.546875 210.308594 71.550781 210.320312 71.542969 210.328125 L 71.441406 210.570312 C 71.425781 210.605469 71.414062 210.644531 71.398438 210.679688 L 71.304688 210.921875 L 71.300781 210.917969 C 71.289062 210.949219 71.277344 210.980469 71.269531 211.011719 L 71.273438 211.015625 C 71.242188 211.097656 71.207031 211.191406 71.171875 211.292969 C 71.164062 211.324219 71.152344 211.355469 71.140625 211.386719 C 71.109375 211.480469 71.078125 211.578125 71.050781 211.671875 L 71.046875 211.671875 C 71.035156 211.707031 71.027344 211.746094 71.015625 211.78125 L 71.019531 211.78125 L 70.789062 212.734375 C 70.769531 212.828125 70.746094 212.921875 70.734375 213.015625 C 70.726562 213.050781 70.71875 213.085938 70.714844 213.132812 C 70.710938 213.152344 70.707031 213.167969 70.703125 213.1875 C 70.683594 213.320312 70.671875 213.449219 70.65625 213.578125 L 70.621094 214.035156 C 70.613281 214.1875 70.601562 214.339844 70.601562 214.488281 C 70.601562 214.488281 70.601562 214.492188 70.601562 214.496094 L 70.628906 223.625 L 70.65625 233.085938 C 70.65625 233.269531 70.664062 233.441406 70.679688 233.613281 L 70.683594 233.683594 L 70.933594 234.875 C 70.957031 234.949219 70.984375 235.027344 71.015625 235.097656 C 71.027344 235.128906 71.042969 235.164062 71.058594 235.203125 C 71.105469 235.304688 71.15625 235.398438 71.207031 235.492188 C 71.226562 235.527344 71.25 235.5625 71.277344 235.601562 C 71.335938 235.695312 71.398438 235.785156 71.464844 235.867188 C 71.476562 235.882812 71.496094 235.902344 71.515625 235.925781 C 71.589844 236.011719 71.671875 236.089844 71.757812 236.164062 C 71.769531 236.175781 71.785156 236.1875 71.800781 236.203125 C 71.898438 236.28125 72 236.355469 72.109375 236.417969 C 73.046875 236.957031 74.34375 236.804688 75.757812 235.988281 L 160.785156 186.898438 C 163.945312 185.074219 166.511719 180.632812 166.5 177 L 166.449219 158.410156 C 166.441406 156.796875 165.925781 155.613281 164.996094 155.078125 Z M 60.578125 205.761719 Z M 60.125 208.15625 Z M 60.175781 207.648438 Z M 75.109375 204.613281 Z M 161.378906 154.742188 Z M 77.589844 111.183594 L 50.640625 126.738281 L 50.640625 195.214844 L 98.148438 167.785156 C 98.25 167.726562 98.363281 167.699219 98.472656 167.699219 C 98.585938 167.699219 98.699219 167.726562 98.800781 167.785156 C 99.003906 167.902344 99.125 168.117188 99.125 168.351562 L 99.128906 178.511719 L 109.074219 172.765625 L 122.269531 153.929688 C 122.324219 153.851562 122.394531 153.785156 122.476562 153.738281 L 134.585938 146.746094 L 134.585938 109.828125 C 134.585938 109.59375 134.710938 109.378906 134.914062 109.261719 L 158.429688 95.683594 L 158.429688 64.507812 Z M 134.585938 148.257812 L 123.257812 154.796875 L 111.75 171.222656 L 134.585938 158.039062 Z M 39.175781 119.367188 L 49.988281 125.609375 L 157.773438 63.378906 L 146.957031 57.132812 Z M 159.40625 62.8125 C 159.558594 62.898438 159.667969 63.042969 159.710938 63.207031 C 159.726562 63.261719 159.734375 63.320312 159.734375 63.378906 L 159.734375 94.929688 L 218.230469 61.15625 C 218.433594 61.039062 218.683594 61.039062 218.886719 61.15625 L 223 63.53125 L 223 19.746094 L 153.90625 59.636719 Z M 218.558594 62.476562 L 136.546875 109.828125 L 144.496094 114.417969 L 226.511719 67.066406 Z M 173.058594 115.019531 L 184.355469 121.457031 L 173.132812 140.894531 C 172.152344 142.59375 172.15625 144.429688 173.144531 144.992188 C 173.640625 145.273438 174.285156 145.183594 174.933594 144.8125 C 175.578125 144.441406 176.222656 143.785156 176.714844 142.933594 L 187.933594 123.496094 L 199.230469 129.933594 C 199.722656 130.214844 200.371094 130.125 201.015625 129.753906 C 201.660156 129.378906 202.308594 128.722656 202.796875 127.875 C 203.78125 126.171875 203.773438 124.335938 202.785156 123.773438 L 191.492188 117.335938 L 202.710938 97.902344 C 203.695312 96.199219 203.691406 94.363281 202.699219 93.800781 C 202.207031 93.519531 201.558594 93.609375 200.914062 93.980469 C 200.269531 94.355469 199.625 95.011719 199.132812 95.859375 L 187.910156 115.296875 L 176.617188 108.859375 C 176.121094 108.578125 175.476562 108.667969 174.828125 109.042969 C 174.183594 109.414062 173.539062 110.070312 173.046875 110.921875 C 172.066406 112.621094 172.070312 114.457031 173.058594 115.019531 Z M 173.058594 115.019531 " fill-opacity="1" fill-rule="nonzero"/></g></svg>