<svg xmlns="http://www.w3.org/2000/svg" xmlns:xlink="http://www.w3.org/1999/xlink" width="500" zoomAndPan="magnify" viewBox="0 0 375 374.999991" height="500" preserveAspectRatio="xMidYMid meet" version="1.0"><defs><clipPath id="0ef2a5bbea"><path d="M 0 37.5 L 375 37.5 L 375 336 L 0 336 Z M 0 37.5 " clip-rule="nonzero"/></clipPath></defs><path fill="#6e6a86" d="M 172.269531 125.742188 L 168.105469 128.148438 L 194.324219 143.285156 L 198.488281 140.882812 Z M 373.425781 252.140625 C 372.707031 255.777344 370.476562 258.921875 367.164062 260.835938 L 330.074219 282.25 L 271.117188 316.289062 C 260.769531 322.261719 247.910156 322.261719 237.558594 316.289062 L 7.835938 183.65625 C 4.871094 181.945312 2.78125 179.246094 1.855469 176.09375 C 1.507812 174.910156 1.320312 173.660156 1.320312 172.371094 C 1.320312 168.320312 3.128906 164.636719 6.226562 162.183594 C 6.730469 161.785156 7.265625 161.414062 7.835938 161.085938 L 45.410156 139.394531 L 45.410156 145.351562 C 45.277344 145.246094 45.15625 145.140625 45.0625 145.027344 C 44.960938 144.90625 44.824219 144.832031 44.675781 144.804688 C 44.601562 144.792969 44.527344 144.789062 44.453125 144.804688 C 44.425781 144.808594 44.402344 144.824219 44.375 144.832031 C 44.328125 144.84375 44.277344 144.855469 44.234375 144.882812 L 9.917969 164.691406 C 8.183594 165.695312 6.886719 167.191406 6.15625 168.957031 C 5.71875 170.015625 5.488281 171.167969 5.488281 172.371094 C 5.488281 175.574219 7.144531 178.445312 9.917969 180.046875 L 239.644531 312.679688 C 244.105469 315.253906 249.1875 316.617188 254.339844 316.617188 C 259.492188 316.617188 264.574219 315.253906 269.035156 312.679688 L 365.078125 257.226562 C 367.855469 255.625 369.511719 252.753906 369.511719 249.550781 C 369.511719 246.347656 367.855469 243.476562 365.078125 241.871094 L 288.011719 197.378906 L 292.175781 194.972656 L 367.164062 238.265625 C 370.113281 239.96875 372.199219 242.652344 373.128906 245.789062 C 373.484375 246.988281 373.679688 248.25 373.679688 249.550781 C 373.679688 250.433594 373.59375 251.300781 373.425781 252.140625 Z M 329.625 286.625 C 331.570312 285.5 333.152344 286.402344 333.15625 288.636719 C 333.164062 290.871094 331.59375 293.59375 329.648438 294.714844 L 309.824219 306.160156 C 307.878906 307.285156 306.296875 306.382812 306.289062 304.148438 C 306.285156 301.914062 307.855469 299.191406 309.800781 298.070312 Z M 329.625 286.625 " fill-opacity="1" fill-rule="nonzero"/><path fill="#eb6f92" d="M 318.304688 239.511719 L 240.578125 284.386719 L 202.371094 262.324219 L 255.8125 231.472656 L 268.402344 238.742188 C 268.605469 238.855469 268.855469 238.859375 269.058594 238.742188 C 269.261719 238.625 269.382812 238.410156 269.386719 238.175781 L 269.429688 223.609375 L 280.140625 217.425781 Z M 283.238281 249.808594 C 283.359375 250.015625 283.578125 250.132812 283.804688 250.132812 C 283.917969 250.132812 284.027344 250.105469 284.132812 250.046875 L 302.941406 239.183594 C 303.253906 239.003906 303.363281 238.605469 303.179688 238.292969 C 303 237.980469 302.601562 237.871094 302.289062 238.054688 L 283.476562 248.914062 C 283.164062 249.09375 283.058594 249.496094 283.238281 249.808594 Z M 263.773438 252.890625 C 263.894531 253.101562 264.113281 253.21875 264.339844 253.21875 C 264.449219 253.21875 264.5625 253.191406 264.664062 253.132812 L 295.882812 235.109375 C 296.195312 234.925781 296.300781 234.527344 296.121094 234.214844 C 295.941406 233.902344 295.539062 233.792969 295.226562 233.976562 L 264.011719 252 C 263.699219 252.179688 263.589844 252.578125 263.773438 252.890625 Z M 242.058594 256.519531 C 241.746094 256.699219 241.640625 257.097656 241.820312 257.410156 C 241.941406 257.621094 242.164062 257.738281 242.386719 257.738281 C 242.5 257.738281 242.613281 257.710938 242.714844 257.652344 L 288.820312 231.03125 C 289.132812 230.851562 289.238281 230.453125 289.058594 230.140625 C 288.878906 229.824219 288.480469 229.71875 288.167969 229.898438 Z M 175.875 218.875 L 156.207031 230.230469 L 175.875 241.585938 Z M 102.449219 189.371094 C 102.269531 189.058594 102.375 188.660156 102.6875 188.480469 L 131.460938 171.867188 L 125.347656 168.335938 L 71.90625 199.191406 L 110.113281 221.25 L 130.585938 209.429688 L 130.585938 182.039062 L 125.292969 185.09375 C 125.1875 185.152344 125.078125 185.183594 124.964844 185.183594 C 124.738281 185.183594 124.519531 185.066406 124.398438 184.855469 C 124.21875 184.542969 124.324219 184.140625 124.636719 183.960938 L 130.585938 180.527344 L 130.585938 180.464844 C 130.585938 180.230469 130.710938 180.015625 130.914062 179.898438 L 138.207031 175.6875 C 138.113281 175.679688 138.019531 175.65625 137.9375 175.609375 L 132.769531 172.625 L 103.339844 189.613281 C 103.238281 189.671875 103.125 189.703125 103.015625 189.703125 C 102.789062 189.699219 102.570312 189.582031 102.449219 189.371094 Z M 138.855469 175.3125 L 162.457031 161.683594 L 149.675781 154.289062 L 138.964844 160.472656 L 138.945312 167.546875 L 148.792969 161.859375 C 149.105469 161.679688 149.507812 161.785156 149.6875 162.097656 C 149.867188 162.410156 149.761719 162.8125 149.449219 162.992188 L 138.9375 169.058594 L 138.921875 175.042969 C 138.917969 175.136719 138.894531 175.226562 138.855469 175.3125 Z M 176.199219 169.164062 C 176 169.28125 175.875 169.5 175.875 169.730469 L 175.875 182.988281 C 175.683594 183.082031 175.5 183.167969 175.304688 183.28125 C 173.953125 184.0625 172.78125 185.0625 171.789062 186.289062 C 170.796875 187.511719 170.027344 188.882812 169.496094 190.394531 C 168.957031 191.910156 168.691406 193.480469 168.695312 195.101562 C 168.699219 196.726562 168.976562 197.984375 169.519531 198.875 C 170.0625 199.769531 170.832031 200.253906 171.828125 200.335938 C 172.828125 200.417969 174 200.070312 175.347656 199.292969 C 175.53125 199.1875 175.699219 199.066406 175.875 198.953125 L 175.875 217.367188 L 141.050781 237.472656 L 141.050781 186.125 L 222.136719 139.308594 L 222.136719 142.644531 Z M 153.78125 209.769531 C 153.777344 209.226562 153.621094 208.859375 153.3125 208.675781 C 153.003906 208.492188 152.613281 208.535156 152.136719 208.8125 C 151.660156 209.085938 151.269531 209.496094 150.960938 210.035156 C 150.65625 210.574219 150.503906 211.117188 150.503906 211.660156 C 150.507812 212.207031 150.660156 212.574219 150.972656 212.757812 C 151.28125 212.941406 151.671875 212.894531 152.148438 212.621094 C 152.625 212.347656 153.015625 211.9375 153.320312 211.402344 C 153.628906 210.859375 153.78125 210.316406 153.78125 209.769531 Z M 150.765625 198.117188 C 150.425781 198.695312 150.296875 199.289062 150.375 199.894531 L 151.261719 207.121094 C 151.289062 207.445312 151.382812 207.648438 151.542969 207.734375 C 151.707031 207.820312 151.902344 207.796875 152.132812 207.660156 C 152.363281 207.527344 152.5625 207.324219 152.71875 207.054688 C 152.878906 206.785156 152.976562 206.472656 153.015625 206.109375 L 153.84375 197.871094 C 153.855469 197.789062 153.863281 197.679688 153.859375 197.546875 C 153.859375 197.003906 153.691406 196.664062 153.355469 196.53125 C 153.019531 196.398438 152.601562 196.476562 152.101562 196.765625 C 151.550781 197.085938 151.105469 197.535156 150.765625 198.117188 Z M 160.332031 192.128906 C 158.738281 193.046875 157.535156 194.144531 156.71875 195.421875 C 155.90625 196.695312 155.503906 198.09375 155.507812 199.613281 C 155.511719 200.808594 155.804688 201.640625 156.382812 202.101562 C 156.964844 202.566406 157.78125 202.617188 158.835938 202.261719 C 158.449219 202.574219 158.105469 202.945312 157.804688 203.375 C 157.503906 203.808594 157.214844 204.351562 156.933594 205 L 155.476562 208.371094 C 155.28125 208.808594 155.1875 209.179688 155.1875 209.492188 C 155.191406 209.902344 155.335938 210.160156 155.625 210.257812 C 155.914062 210.359375 156.253906 210.296875 156.636719 210.074219 C 156.882812 209.933594 157.117188 209.726562 157.351562 209.460938 C 157.582031 209.195312 157.773438 208.878906 157.925781 208.507812 L 160.457031 202.699219 C 160.675781 202.191406 160.90625 201.78125 161.148438 201.46875 C 161.390625 201.160156 161.699219 200.894531 162.074219 200.679688 L 163.632812 199.78125 L 163.644531 204.253906 C 163.648438 204.785156 163.78125 205.128906 164.042969 205.289062 C 164.308594 205.445312 164.667969 205.394531 165.113281 205.136719 C 165.578125 204.867188 165.945312 204.5 166.210938 204.035156 C 166.480469 203.570312 166.613281 203.070312 166.613281 202.539062 L 166.578125 190.140625 C 166.578125 189.621094 166.453125 189.292969 166.210938 189.152344 C 165.964844 189.015625 165.617188 189.074219 165.167969 189.335938 Z M 175.339844 196.613281 C 175.527344 196.503906 175.699219 196.375 175.875 196.246094 L 175.875 185.683594 C 175.691406 185.761719 175.507812 185.847656 175.308594 185.960938 C 174.167969 186.621094 173.277344 187.59375 172.636719 188.871094 C 171.996094 190.148438 171.675781 191.652344 171.683594 193.378906 C 171.6875 195.105469 172.015625 196.242188 172.667969 196.78125 C 173.320312 197.320312 174.210938 197.265625 175.339844 196.613281 Z M 158.914062 196.09375 C 158.527344 196.65625 158.339844 197.3125 158.339844 198.066406 C 158.34375 198.804688 158.535156 199.238281 158.921875 199.359375 C 159.308594 199.484375 159.933594 199.296875 160.792969 198.800781 L 163.664062 197.144531 L 163.652344 192.847656 L 160.78125 194.507812 C 159.921875 195.003906 159.296875 195.535156 158.914062 196.09375 Z M 273.777344 164.414062 L 277.691406 162.152344 L 277.675781 156.292969 L 273.757812 158.554688 C 272.585938 159.230469 271.734375 159.957031 271.210938 160.722656 C 270.6875 161.488281 270.425781 162.386719 270.429688 163.414062 C 270.429688 164.421875 270.695312 165.007812 271.222656 165.179688 C 271.75 165.347656 272.601562 165.09375 273.777344 164.414062 Z M 268.5 207.132812 C 268.296875 207.25 268.171875 207.464844 268.171875 207.695312 L 268.082031 237.042969 L 242.714844 222.398438 C 242.613281 222.339844 242.5 222.3125 242.386719 222.3125 C 242.273438 222.3125 242.160156 222.339844 242.058594 222.398438 L 190.351562 252.25 L 190.351562 177.714844 L 307.59375 110.023438 L 307.59375 184.5625 Z M 244.921875 188.050781 C 245.652344 185.984375 246.015625 183.84375 246.011719 181.625 C 246.003906 179.410156 245.628906 177.695312 244.890625 176.476562 C 244.148438 175.261719 243.097656 174.601562 241.738281 174.5 C 240.375 174.398438 238.773438 174.878906 236.933594 175.941406 C 235.089844 177.003906 233.496094 178.367188 232.136719 180.039062 C 230.78125 181.710938 229.738281 183.582031 229.007812 185.648438 C 228.273438 187.710938 227.914062 189.855469 227.917969 192.070312 C 227.925781 194.289062 228.300781 196.003906 229.039062 197.21875 C 229.78125 198.4375 230.832031 199.101562 232.191406 199.214844 C 233.554688 199.324219 235.152344 198.847656 236.996094 197.785156 C 238.835938 196.722656 240.433594 195.351562 241.792969 193.671875 C 243.148438 191.992188 244.191406 190.117188 244.921875 188.050781 Z M 207.648438 195.84375 C 207.667969 195.734375 207.675781 195.585938 207.675781 195.40625 C 207.671875 194.660156 207.441406 194.199219 206.984375 194.019531 C 206.53125 193.835938 205.957031 193.945312 205.273438 194.339844 C 204.523438 194.773438 203.914062 195.386719 203.449219 196.183594 C 202.988281 196.972656 202.808594 197.78125 202.917969 198.605469 L 204.128906 208.46875 C 204.167969 208.914062 204.292969 209.191406 204.515625 209.308594 C 204.734375 209.421875 205.003906 209.386719 205.316406 209.207031 C 205.632812 209.023438 205.898438 208.75 206.117188 208.378906 C 206.335938 208.011719 206.46875 207.582031 206.523438 207.089844 Z M 206.925781 210.59375 C 206.507812 210.339844 205.96875 210.402344 205.320312 210.777344 C 204.671875 211.152344 204.140625 211.707031 203.71875 212.445312 C 203.300781 213.179688 203.089844 213.921875 203.09375 214.664062 C 203.097656 215.414062 203.308594 215.910156 203.730469 216.160156 C 204.152344 216.410156 204.6875 216.351562 205.335938 215.976562 C 205.984375 215.601562 206.519531 215.042969 206.9375 214.308594 C 207.355469 213.574219 207.566406 212.832031 207.5625 212.085938 C 207.5625 211.339844 207.347656 210.84375 206.925781 210.59375 Z M 209.921875 198.222656 C 209.925781 199.855469 210.324219 200.988281 211.117188 201.621094 C 211.90625 202.253906 213.023438 202.324219 214.460938 201.839844 C 213.933594 202.261719 213.46875 202.769531 213.058594 203.359375 C 212.644531 203.949219 212.246094 204.6875 211.867188 205.578125 L 209.875 210.175781 C 209.613281 210.769531 209.484375 211.277344 209.484375 211.703125 C 209.488281 212.265625 209.683594 212.617188 210.082031 212.75 C 210.476562 212.886719 210.9375 212.800781 211.464844 212.496094 C 211.796875 212.304688 212.121094 212.027344 212.433594 211.664062 C 212.75 211.300781 213.011719 210.867188 213.222656 210.359375 L 216.675781 202.4375 C 216.972656 201.738281 217.285156 201.179688 217.617188 200.757812 C 217.949219 200.332031 218.371094 199.972656 218.878906 199.679688 L 221.011719 198.449219 L 221.027344 204.554688 C 221.03125 205.277344 221.210938 205.75 221.570312 205.964844 C 221.929688 206.179688 222.417969 206.113281 223.03125 205.757812 C 223.664062 205.394531 224.164062 204.894531 224.527344 204.257812 C 224.894531 203.621094 225.078125 202.941406 225.074219 202.21875 L 225.027344 185.296875 C 225.027344 184.589844 224.859375 184.144531 224.523438 183.953125 C 224.1875 183.761719 223.714844 183.84375 223.101562 184.199219 L 216.5 188.007812 C 214.328125 189.265625 212.6875 190.761719 211.574219 192.503906 C 210.46875 194.242188 209.914062 196.148438 209.921875 198.222656 Z M 262.996094 161.742188 C 262.660156 161.550781 262.1875 161.632812 261.574219 161.988281 L 254.972656 165.796875 C 252.800781 167.054688 251.160156 168.550781 250.046875 170.292969 C 248.9375 172.03125 248.386719 173.9375 248.390625 176.015625 C 248.394531 177.644531 248.792969 178.777344 249.585938 179.410156 C 250.378906 180.042969 251.492188 180.113281 252.929688 179.628906 C 252.40625 180.054688 251.9375 180.558594 251.527344 181.148438 C 251.117188 181.738281 250.71875 182.476562 250.335938 183.367188 L 248.34375 187.964844 C 248.082031 188.558594 247.953125 189.066406 247.957031 189.492188 C 247.957031 190.054688 248.152344 190.40625 248.550781 190.539062 C 248.945312 190.675781 249.40625 190.589844 249.933594 190.285156 C 250.265625 190.09375 250.589844 189.816406 250.902344 189.453125 C 251.21875 189.089844 251.480469 188.65625 251.691406 188.152344 L 255.144531 180.226562 C 255.441406 179.53125 255.753906 178.96875 256.085938 178.546875 C 256.421875 178.121094 256.839844 177.761719 257.347656 177.46875 L 259.480469 176.238281 L 259.496094 182.34375 C 259.5 183.070312 259.683594 183.539062 260.042969 183.753906 C 260.402344 183.96875 260.890625 183.902344 261.503906 183.546875 C 262.132812 183.183594 262.632812 182.683594 263 182.046875 C 263.367188 181.410156 263.550781 180.730469 263.546875 180.007812 L 263.5 163.085938 C 263.496094 162.378906 263.328125 161.933594 262.996094 161.742188 Z M 281.667969 152.59375 C 281.667969 151.890625 281.5 151.441406 281.164062 151.25 C 280.832031 151.0625 280.355469 151.140625 279.742188 151.496094 L 273.144531 155.308594 C 270.96875 156.5625 269.328125 158.058594 268.21875 159.800781 C 267.109375 161.542969 266.554688 163.449219 266.5625 165.523438 C 266.566406 167.15625 266.964844 168.289062 267.753906 168.921875 C 268.550781 169.554688 269.664062 169.625 271.101562 169.136719 C 270.574219 169.5625 270.105469 170.070312 269.695312 170.660156 C 269.285156 171.25 268.886719 171.988281 268.503906 172.878906 L 266.515625 177.476562 C 266.253906 178.070312 266.125 178.578125 266.125 179.003906 C 266.125 179.566406 266.324219 179.917969 266.71875 180.050781 C 267.117188 180.1875 267.578125 180.101562 268.101562 179.796875 C 268.433594 179.605469 268.757812 179.328125 269.074219 178.964844 C 269.390625 178.601562 269.652344 178.167969 269.859375 177.664062 L 273.316406 169.738281 C 273.613281 169.039062 273.925781 168.480469 274.257812 168.058594 C 274.589844 167.632812 275.011719 167.273438 275.519531 166.980469 L 277.648438 165.75 L 277.667969 171.855469 C 277.667969 172.578125 277.847656 173.050781 278.210938 173.265625 C 278.570312 173.480469 279.058594 173.414062 279.671875 173.058594 C 280.304688 172.695312 280.800781 172.195312 281.167969 171.558594 C 281.535156 170.921875 281.71875 170.242188 281.714844 169.519531 Z M 296.550781 162.554688 C 296.882812 161.980469 297.050781 161.339844 297.046875 160.632812 L 297 143.742188 C 296.996094 143.039062 296.828125 142.589844 296.492188 142.398438 C 296.160156 142.210938 295.6875 142.292969 295.074219 142.644531 L 285.765625 148.019531 C 284.46875 148.769531 283.820312 149.75 283.824219 150.957031 C 283.828125 152.1875 284.476562 152.425781 285.773438 151.675781 L 293.003906 147.5 L 293.019531 152.488281 L 286.316406 156.359375 C 285.019531 157.105469 284.371094 158.097656 284.375 159.324219 C 284.378906 160.535156 285.027344 160.765625 286.324219 160.015625 L 293.03125 156.144531 L 293.042969 161.492188 L 285.8125 165.667969 C 284.515625 166.414062 283.867188 167.40625 283.871094 168.632812 C 283.875 169.84375 284.527344 170.070312 285.824219 169.324219 L 295.132812 163.949219 C 295.75 163.59375 296.21875 163.128906 296.550781 162.554688 Z M 259.523438 172.644531 L 259.507812 166.78125 L 255.589844 169.042969 C 254.414062 169.722656 253.5625 170.445312 253.039062 171.210938 C 252.515625 171.980469 252.253906 172.875 252.257812 173.902344 C 252.261719 174.910156 252.523438 175.5 253.054688 175.667969 C 253.578125 175.839844 254.429688 175.585938 255.605469 174.90625 Z M 241.90625 183.996094 C 241.902344 181.636719 241.464844 180.089844 240.589844 179.351562 C 239.71875 178.617188 238.503906 178.695312 236.945312 179.597656 C 235.382812 180.5 234.167969 181.820312 233.292969 183.566406 C 232.421875 185.308594 231.988281 187.359375 231.992188 189.71875 C 232 192.074219 232.449219 193.621094 233.335938 194.359375 C 234.226562 195.097656 235.441406 195.023438 236.984375 194.132812 C 238.527344 193.238281 239.734375 191.917969 240.609375 190.164062 C 241.480469 188.40625 241.914062 186.351562 241.90625 183.996094 Z M 214.570312 193.421875 C 214.046875 194.191406 213.785156 195.085938 213.789062 196.113281 C 213.789062 197.121094 214.054688 197.710938 214.582031 197.878906 C 215.109375 198.050781 215.960938 197.792969 217.136719 197.117188 L 221.054688 194.855469 L 221.035156 188.992188 L 217.121094 191.253906 C 215.945312 191.933594 215.09375 192.65625 214.570312 193.421875 Z M 138.035156 144 C 137.832031 144.117188 137.707031 144.332031 137.707031 144.5625 L 137.617188 173.910156 L 112.25 159.265625 C 112.148438 159.207031 112.035156 159.175781 111.921875 159.175781 C 111.808594 159.175781 111.695312 159.207031 111.59375 159.265625 L 59.886719 189.117188 L 59.886719 114.582031 L 177.128906 46.890625 L 177.128906 121.429688 Z M 119.257812 87.136719 C 117.132812 88.363281 115.246094 90.683594 114.214844 93.347656 L 92.714844 148.871094 C 91.402344 152.257812 91.757812 155.367188 93.644531 156.980469 C 94.414062 157.640625 95.363281 157.972656 96.390625 157.972656 C 97.378906 157.972656 98.441406 157.667969 99.496094 157.058594 L 142.746094 132.085938 C 145.417969 130.546875 147.613281 127.394531 148.339844 124.058594 C 148.816406 121.871094 148.542969 119.917969 147.570312 118.550781 L 125.824219 87.996094 C 124.398438 85.996094 121.820312 85.65625 119.257812 87.136719 Z M 119.257812 87.136719 " fill-opacity="1" fill-rule="nonzero"/><path fill="#ea9a97" d="M 163.761719 160.929688 L 193.015625 144.042969 L 166.796875 128.902344 L 139.015625 144.945312 L 138.972656 158.960938 L 149.351562 152.96875 C 149.554688 152.851562 149.804688 152.851562 150.003906 152.96875 Z M 286.703125 198.132812 L 364.425781 243.003906 C 366.792969 244.371094 368.203125 246.820312 368.203125 249.550781 C 368.203125 252.28125 366.792969 254.730469 364.425781 256.09375 L 268.382812 311.546875 C 264.117188 314.007812 259.261719 315.308594 254.339844 315.308594 C 249.417969 315.308594 244.5625 314.007812 240.296875 311.546875 L 10.574219 178.914062 C 8.207031 177.550781 6.796875 175.101562 6.796875 172.371094 C 6.796875 170.324219 7.589844 168.433594 8.984375 167.042969 C 9.449219 166.578125 9.980469 166.167969 10.574219 165.828125 L 44.457031 146.265625 C 44.648438 146.433594 44.871094 146.589844 45.117188 146.730469 C 45.207031 146.785156 45.3125 146.824219 45.410156 146.871094 L 45.410156 182.644531 C 45.410156 182.878906 45.535156 183.09375 45.738281 183.210938 L 58.90625 190.816406 C 59.007812 190.875 59.121094 190.902344 59.234375 190.902344 C 59.347656 190.902344 59.460938 190.875 59.5625 190.816406 L 111.921875 160.585938 L 124.039062 167.582031 L 70.273438 198.625 C 70.070312 198.742188 69.945312 198.957031 69.945312 199.191406 C 69.945312 199.425781 70.070312 199.640625 70.273438 199.757812 L 109.789062 222.570312 C 109.890625 222.628906 110 222.660156 110.113281 222.660156 C 110.226562 222.660156 110.339844 222.628906 110.441406 222.570312 L 130.589844 210.941406 L 130.589844 233.320312 C 130.589844 233.550781 130.710938 233.769531 130.914062 233.886719 L 140.070312 239.171875 C 140.171875 239.230469 140.285156 239.257812 140.398438 239.257812 C 140.511719 239.257812 140.621094 239.230469 140.722656 239.171875 L 154.898438 230.988281 L 175.875 243.097656 L 175.875 245.777344 C 175.875 246.011719 176 246.226562 176.203125 246.34375 L 189.371094 253.949219 C 189.472656 254.007812 189.585938 254.039062 189.699219 254.039062 C 189.8125 254.039062 189.925781 254.007812 190.027344 253.949219 L 242.386719 223.71875 L 254.503906 230.714844 L 200.738281 261.757812 C 200.535156 261.875 200.410156 262.089844 200.410156 262.324219 C 200.410156 262.558594 200.535156 262.773438 200.738281 262.890625 L 240.253906 285.703125 C 240.351562 285.761719 240.464844 285.792969 240.578125 285.792969 C 240.691406 285.792969 240.804688 285.761719 240.90625 285.703125 L 319.9375 240.078125 C 320.140625 239.960938 320.265625 239.746094 320.265625 239.511719 C 320.265625 239.277344 320.140625 239.0625 319.9375 238.945312 L 280.46875 216.101562 C 280.269531 215.984375 280.019531 215.984375 279.816406 216.101562 L 269.433594 222.09375 L 269.480469 208.078125 Z M 213.636719 133.648438 L 221.484375 138.179688 L 140.394531 184.996094 L 132.550781 180.464844 Z M 295.074219 102.042969 L 306.9375 108.894531 L 189.699219 176.582031 L 177.835938 169.730469 Z M 176.472656 45.757812 L 59.234375 113.445312 L 47.371094 106.597656 L 164.609375 38.910156 Z M 123.035156 89.980469 C 122.859375 89.730469 122.601562 89.640625 122.324219 89.640625 C 121.859375 89.640625 121.324219 89.894531 120.96875 90.101562 C 119.519531 90.9375 118.152344 92.65625 117.40625 94.582031 L 95.90625 150.109375 C 94.984375 152.480469 95.382812 153.964844 95.871094 154.382812 C 96.398438 154.835938 97.472656 154.277344 97.785156 154.097656 L 141.035156 129.125 C 142.855469 128.078125 144.480469 125.695312 144.996094 123.332031 C 145.257812 122.132812 145.175781 121.089844 144.78125 120.535156 Z M 118.816406 134.546875 C 118.8125 132.71875 120.097656 130.496094 121.6875 129.578125 C 123.277344 128.660156 124.570312 129.398438 124.574219 131.222656 C 124.578125 133.050781 123.296875 135.273438 121.707031 136.191406 C 120.117188 137.109375 118.824219 136.371094 118.816406 134.546875 Z M 124.488281 100.433594 L 124.546875 121.410156 C 124.550781 123.234375 123.265625 125.460938 121.675781 126.378906 C 120.089844 127.296875 118.796875 126.558594 118.789062 124.730469 L 118.730469 103.757812 C 118.726562 101.929688 120.007812 99.707031 121.597656 98.789062 C 123.1875 97.871094 124.480469 98.609375 124.488281 100.433594 Z M 124.488281 100.433594 " fill-opacity="1" fill-rule="nonzero"/><g clip-path="url(#0ef2a5bbea)"><path fill="#232136" d="M 0.0117188 172.371094 C 0.0117188 168.019531 1.90625 164.054688 5.167969 161.359375 C 5.792969 160.84375 6.460938 160.367188 7.183594 159.953125 L 45.410156 137.882812 L 45.410156 106.597656 C 45.410156 106.363281 45.535156 106.148438 45.734375 106.03125 L 164.28125 37.585938 C 164.484375 37.472656 164.734375 37.472656 164.9375 37.585938 L 178.109375 45.191406 C 178.3125 45.308594 178.4375 45.523438 178.4375 45.757812 L 178.4375 121.808594 C 178.4375 122.042969 178.3125 122.257812 178.109375 122.375 L 173.578125 124.988281 L 199.796875 140.125 L 213.308594 132.328125 C 213.511719 132.210938 213.757812 132.210938 213.960938 132.328125 L 223.117188 137.613281 C 223.269531 137.699219 223.375 137.84375 223.421875 138.007812 C 223.4375 138.0625 223.445312 138.121094 223.445312 138.179688 L 223.445312 141.890625 L 294.746094 100.722656 C 294.949219 100.605469 295.199219 100.605469 295.398438 100.722656 L 308.574219 108.328125 C 308.777344 108.445312 308.898438 108.660156 308.898438 108.894531 L 308.898438 184.941406 C 308.898438 185.175781 308.777344 185.390625 308.574219 185.507812 L 293.484375 194.21875 L 367.816406 237.132812 C 371.011719 238.976562 373.28125 241.859375 374.332031 245.238281 C 374.757812 246.605469 374.988281 248.054688 374.988281 249.550781 C 374.988281 249.550781 374.988281 249.554688 374.988281 249.554688 L 374.988281 263.582031 C 374.988281 268.6875 372.238281 273.449219 367.816406 276 L 271.773438 331.453125 C 266.394531 334.554688 260.367188 336.109375 254.339844 336.109375 C 248.3125 336.109375 242.28125 334.554688 236.90625 331.453125 L 7.183594 198.820312 C 2.761719 196.265625 0.0117188 191.511719 0.0117188 186.402344 Z M 306.289062 304.148438 C 306.296875 306.382812 307.878906 307.285156 309.824219 306.160156 L 329.648438 294.71875 C 331.59375 293.59375 333.164062 290.871094 333.15625 288.636719 C 333.152344 286.402344 331.570312 285.5 329.625 286.625 L 309.800781 298.070312 C 307.855469 299.191406 306.285156 301.914062 306.289062 304.148438 Z M 269.382812 238.175781 C 269.382812 238.410156 269.257812 238.625 269.058594 238.742188 C 268.855469 238.859375 268.605469 238.859375 268.402344 238.742188 L 255.8125 231.472656 L 202.371094 262.324219 L 240.578125 284.386719 L 318.300781 239.511719 L 280.140625 217.425781 L 269.429688 223.609375 Z M 279.816406 216.101562 C 280.015625 215.984375 280.265625 215.984375 280.46875 216.101562 L 319.9375 238.945312 C 320.140625 239.0625 320.261719 239.277344 320.261719 239.511719 C 320.261719 239.742188 320.136719 239.960938 319.9375 240.078125 L 240.90625 285.707031 C 240.804688 285.765625 240.691406 285.792969 240.578125 285.792969 C 240.464844 285.792969 240.351562 285.765625 240.25 285.707031 L 200.734375 262.890625 C 200.535156 262.773438 200.410156 262.558594 200.410156 262.324219 C 200.410156 262.089844 200.535156 261.875 200.734375 261.757812 L 254.503906 230.714844 L 242.386719 223.71875 L 190.027344 253.949219 C 189.925781 254.007812 189.8125 254.039062 189.699219 254.039062 C 189.585938 254.039062 189.472656 254.007812 189.371094 253.949219 L 176.199219 246.347656 C 176 246.230469 175.875 246.011719 175.875 245.78125 L 175.875 243.097656 L 154.898438 230.988281 L 140.722656 239.171875 C 140.621094 239.230469 140.507812 239.257812 140.394531 239.257812 C 140.28125 239.257812 140.171875 239.230469 140.070312 239.171875 L 130.914062 233.886719 C 130.710938 233.769531 130.585938 233.550781 130.585938 233.320312 L 130.585938 210.941406 L 110.441406 222.570312 C 110.339844 222.628906 110.226562 222.660156 110.113281 222.660156 C 110 222.660156 109.886719 222.628906 109.785156 222.570312 L 70.269531 199.757812 C 70.070312 199.640625 69.945312 199.425781 69.945312 199.191406 C 69.945312 198.957031 70.070312 198.742188 70.269531 198.625 L 124.039062 167.582031 L 111.921875 160.585938 L 59.5625 190.816406 C 59.460938 190.875 59.347656 190.90625 59.234375 190.90625 C 59.121094 190.90625 59.007812 190.875 58.90625 190.816406 L 45.734375 183.210938 C 45.535156 183.09375 45.410156 182.878906 45.410156 182.644531 L 45.410156 146.871094 C 45.3125 146.824219 45.207031 146.785156 45.117188 146.734375 C 44.871094 146.589844 44.648438 146.433594 44.453125 146.265625 L 10.574219 165.828125 C 9.980469 166.167969 9.449219 166.578125 8.984375 167.042969 C 7.589844 168.433594 6.796875 170.324219 6.796875 172.371094 C 6.796875 175.105469 8.207031 177.550781 10.574219 178.917969 L 240.296875 311.546875 C 244.5625 314.007812 249.417969 315.308594 254.339844 315.308594 C 259.261719 315.308594 264.117188 314.007812 268.382812 311.546875 L 364.425781 256.09375 C 366.792969 254.730469 368.203125 252.28125 368.203125 249.550781 C 368.203125 246.820312 366.792969 244.371094 364.425781 243.003906 L 286.703125 198.132812 L 269.480469 208.078125 L 269.433594 222.09375 Z M 175.875 241.585938 L 175.875 218.875 L 156.207031 230.230469 Z M 194.324219 143.285156 L 198.488281 140.882812 L 172.269531 125.742188 L 168.105469 128.148438 Z M 166.796875 128.902344 L 139.015625 144.945312 L 138.972656 158.960938 L 149.351562 152.96875 C 149.554688 152.851562 149.804688 152.851562 150.003906 152.96875 L 163.765625 160.929688 L 193.015625 144.042969 Z M 149.675781 154.289062 L 138.964844 160.472656 L 138.945312 167.546875 L 148.792969 161.859375 C 149.105469 161.679688 149.507812 161.789062 149.6875 162.101562 C 149.867188 162.414062 149.761719 162.8125 149.449219 162.992188 L 138.941406 169.058594 L 138.921875 175.042969 C 138.921875 175.136719 138.894531 175.226562 138.855469 175.3125 L 162.457031 161.683594 Z M 102.6875 188.480469 L 131.460938 171.867188 L 125.347656 168.335938 L 71.90625 199.191406 L 110.113281 221.25 L 130.585938 209.429688 L 130.585938 182.039062 L 125.292969 185.09375 C 125.1875 185.152344 125.078125 185.183594 124.964844 185.183594 C 124.738281 185.183594 124.519531 185.066406 124.398438 184.855469 C 124.21875 184.542969 124.324219 184.140625 124.636719 183.960938 L 130.585938 180.527344 L 130.585938 180.464844 C 130.585938 180.230469 130.710938 180.015625 130.914062 179.898438 L 138.207031 175.6875 C 138.113281 175.679688 138.019531 175.65625 137.9375 175.609375 L 132.769531 172.625 L 103.339844 189.613281 C 103.238281 189.671875 103.125 189.703125 103.015625 189.703125 C 102.789062 189.703125 102.570312 189.585938 102.445312 189.375 C 102.269531 189.058594 102.375 188.660156 102.6875 188.480469 Z M 175.875 185.683594 C 175.691406 185.761719 175.507812 185.847656 175.308594 185.960938 C 174.167969 186.621094 173.277344 187.59375 172.636719 188.871094 C 171.996094 190.148438 171.675781 191.652344 171.683594 193.378906 C 171.6875 195.105469 172.015625 196.242188 172.667969 196.78125 C 173.320312 197.320312 174.210938 197.265625 175.339844 196.613281 C 175.53125 196.503906 175.699219 196.375 175.875 196.246094 Z M 367.164062 238.265625 L 292.179688 194.972656 L 288.011719 197.378906 L 365.082031 241.875 C 367.855469 243.476562 369.511719 246.347656 369.511719 249.550781 C 369.511719 252.753906 367.855469 255.625 365.082031 257.226562 L 269.035156 312.679688 C 264.574219 315.257812 259.492188 316.617188 254.339844 316.617188 C 249.1875 316.617188 244.105469 315.257812 239.644531 312.679688 L 9.921875 180.050781 C 7.144531 178.445312 5.488281 175.578125 5.488281 172.371094 C 5.488281 171.167969 5.722656 170.015625 6.160156 168.957031 C 6.890625 167.191406 8.1875 165.695312 9.921875 164.695312 L 44.234375 144.882812 C 44.28125 144.855469 44.328125 144.847656 44.375 144.832031 C 44.402344 144.824219 44.425781 144.808594 44.453125 144.804688 C 44.453125 144.804688 44.453125 144.804688 44.457031 144.804688 C 44.53125 144.792969 44.605469 144.792969 44.675781 144.804688 C 44.824219 144.832031 44.960938 144.90625 45.066406 145.027344 C 45.160156 145.140625 45.277344 145.25 45.410156 145.351562 L 45.410156 139.394531 L 7.839844 161.085938 C 7.265625 161.414062 6.734375 161.785156 6.230469 162.183594 C 3.128906 164.636719 1.324219 168.320312 1.324219 172.371094 C 1.324219 173.660156 1.511719 174.910156 1.859375 176.09375 C 2.785156 179.25 4.875 181.945312 7.839844 183.65625 L 237.5625 316.289062 C 247.910156 322.265625 260.769531 322.265625 271.121094 316.289062 L 330.074219 282.25 L 367.164062 260.835938 C 370.476562 258.917969 372.707031 255.777344 373.425781 252.136719 C 373.59375 251.296875 373.679688 250.433594 373.679688 249.550781 C 373.679688 248.246094 373.484375 246.988281 373.128906 245.789062 C 372.199219 242.652344 370.117188 239.96875 367.164062 238.265625 Z M 47.371094 106.597656 L 59.234375 113.445312 L 176.472656 45.757812 L 164.609375 38.910156 Z M 177.128906 46.890625 L 59.886719 114.582031 L 59.886719 189.117188 L 111.59375 159.265625 C 111.695312 159.207031 111.808594 159.175781 111.921875 159.175781 C 112.035156 159.175781 112.148438 159.207031 112.25 159.265625 L 137.617188 173.910156 L 137.707031 144.5625 C 137.707031 144.328125 137.832031 144.117188 138.035156 144 L 177.128906 121.429688 Z M 132.550781 180.464844 L 140.394531 184.996094 L 221.484375 138.179688 L 213.636719 133.648438 Z M 141.050781 186.125 L 141.050781 237.472656 L 175.875 217.367188 L 175.875 198.957031 C 175.699219 199.066406 175.53125 199.1875 175.347656 199.292969 C 173.996094 200.070312 172.824219 200.417969 171.828125 200.335938 C 170.832031 200.253906 170.058594 199.769531 169.519531 198.875 C 168.976562 197.984375 168.699219 196.726562 168.695312 195.105469 C 168.691406 193.480469 168.957031 191.910156 169.496094 190.394531 C 170.03125 188.882812 170.796875 187.511719 171.789062 186.289062 C 172.78125 185.0625 173.953125 184.0625 175.304688 183.28125 C 175.5 183.167969 175.683594 183.085938 175.875 182.988281 L 175.875 169.734375 C 175.875 169.5 176 169.285156 176.199219 169.167969 L 222.136719 142.644531 L 222.136719 139.3125 Z M 177.835938 169.730469 L 189.699219 176.582031 L 306.9375 108.894531 L 295.074219 102.042969 Z M 307.59375 110.023438 L 190.351562 177.714844 L 190.351562 252.25 L 242.058594 222.398438 C 242.160156 222.339844 242.273438 222.3125 242.386719 222.3125 C 242.5 222.3125 242.613281 222.339844 242.714844 222.398438 L 268.082031 237.042969 L 268.171875 207.695312 C 268.171875 207.464844 268.296875 207.25 268.5 207.132812 L 307.59375 184.5625 Z M 288.167969 229.898438 L 242.058594 256.519531 C 241.746094 256.699219 241.640625 257.097656 241.820312 257.410156 C 241.941406 257.621094 242.164062 257.738281 242.386719 257.738281 C 242.5 257.738281 242.613281 257.710938 242.714844 257.652344 L 288.820312 231.03125 C 289.132812 230.851562 289.238281 230.453125 289.058594 230.140625 C 288.878906 229.824219 288.480469 229.71875 288.167969 229.898438 Z M 263.773438 252.890625 C 263.894531 253.101562 264.113281 253.21875 264.339844 253.21875 C 264.449219 253.21875 264.5625 253.191406 264.664062 253.132812 L 295.882812 235.109375 C 296.195312 234.925781 296.300781 234.527344 296.121094 234.214844 C 295.941406 233.902344 295.539062 233.792969 295.226562 233.976562 L 264.011719 252 C 263.699219 252.179688 263.589844 252.578125 263.773438 252.890625 Z M 283.238281 249.808594 C 283.359375 250.015625 283.578125 250.132812 283.804688 250.132812 C 283.917969 250.132812 284.027344 250.105469 284.132812 250.046875 L 302.941406 239.183594 C 303.253906 239.003906 303.363281 238.605469 303.179688 238.292969 C 303 237.980469 302.601562 237.871094 302.289062 238.054688 L 283.476562 248.914062 C 283.164062 249.09375 283.058594 249.496094 283.238281 249.808594 Z M 166.210938 189.152344 C 166.453125 189.292969 166.578125 189.621094 166.578125 190.140625 L 166.613281 202.539062 C 166.617188 203.070312 166.480469 203.566406 166.210938 204.035156 C 165.945312 204.5 165.578125 204.867188 165.117188 205.136719 C 164.667969 205.394531 164.308594 205.445312 164.046875 205.289062 C 163.78125 205.128906 163.648438 204.785156 163.648438 204.253906 L 163.632812 199.78125 L 162.074219 200.679688 C 161.699219 200.894531 161.394531 201.160156 161.148438 201.46875 C 160.90625 201.78125 160.675781 202.191406 160.457031 202.699219 L 157.925781 208.507812 C 157.773438 208.878906 157.582031 209.195312 157.351562 209.460938 C 157.121094 209.726562 156.882812 209.933594 156.640625 210.074219 C 156.253906 210.296875 155.914062 210.359375 155.625 210.257812 C 155.335938 210.160156 155.191406 209.902344 155.191406 209.492188 C 155.1875 209.179688 155.285156 208.808594 155.476562 208.371094 L 156.933594 205 C 157.214844 204.351562 157.503906 203.808594 157.804688 203.375 C 158.105469 202.945312 158.449219 202.574219 158.835938 202.261719 C 157.78125 202.617188 156.964844 202.566406 156.382812 202.101562 C 155.804688 201.640625 155.511719 200.808594 155.507812 199.613281 C 155.503906 198.09375 155.910156 196.695312 156.722656 195.421875 C 157.535156 194.144531 158.738281 193.046875 160.332031 192.128906 L 165.167969 189.335938 C 165.617188 189.074219 165.964844 189.015625 166.210938 189.152344 Z M 158.921875 199.359375 C 159.308594 199.484375 159.933594 199.296875 160.792969 198.800781 L 163.664062 197.144531 L 163.652344 192.847656 L 160.78125 194.507812 C 159.921875 195.003906 159.296875 195.535156 158.914062 196.09375 C 158.53125 196.65625 158.339844 197.3125 158.339844 198.066406 C 158.34375 198.804688 158.535156 199.238281 158.921875 199.359375 Z M 153.320312 211.402344 C 153.628906 210.859375 153.78125 210.316406 153.78125 209.769531 C 153.777344 209.226562 153.621094 208.859375 153.3125 208.675781 C 153.003906 208.492188 152.613281 208.535156 152.136719 208.8125 C 151.660156 209.085938 151.269531 209.496094 150.960938 210.035156 C 150.65625 210.574219 150.503906 211.117188 150.503906 211.660156 C 150.507812 212.207031 150.660156 212.574219 150.972656 212.757812 C 151.28125 212.941406 151.671875 212.894531 152.148438 212.621094 C 152.621094 212.347656 153.015625 211.9375 153.320312 211.402344 Z M 152.101562 196.765625 C 151.550781 197.085938 151.105469 197.535156 150.765625 198.117188 C 150.425781 198.695312 150.296875 199.289062 150.375 199.894531 L 151.261719 207.121094 C 151.289062 207.445312 151.382812 207.648438 151.542969 207.734375 C 151.707031 207.820312 151.902344 207.796875 152.132812 207.660156 C 152.363281 207.527344 152.5625 207.324219 152.71875 207.054688 C 152.878906 206.785156 152.976562 206.472656 153.015625 206.109375 L 153.84375 197.871094 C 153.855469 197.789062 153.863281 197.679688 153.859375 197.546875 C 153.859375 197.003906 153.691406 196.664062 153.355469 196.53125 C 153.023438 196.398438 152.601562 196.476562 152.101562 196.765625 Z M 147.570312 118.550781 C 148.542969 119.917969 148.8125 121.871094 148.339844 124.058594 C 147.613281 127.394531 145.417969 130.546875 142.746094 132.085938 L 99.496094 157.058594 C 98.441406 157.667969 97.378906 157.972656 96.390625 157.972656 C 95.363281 157.972656 94.414062 157.640625 93.644531 156.980469 C 91.757812 155.367188 91.402344 152.257812 92.714844 148.871094 L 114.214844 93.347656 C 115.246094 90.683594 117.132812 88.363281 119.257812 87.136719 C 121.820312 85.65625 124.398438 85.996094 125.824219 87.996094 Z M 122.324219 89.640625 C 121.859375 89.640625 121.324219 89.894531 120.96875 90.101562 C 119.519531 90.9375 118.152344 92.65625 117.40625 94.582031 L 95.90625 150.109375 C 94.984375 152.480469 95.382812 153.964844 95.871094 154.382812 C 96.398438 154.835938 97.472656 154.277344 97.785156 154.097656 L 141.035156 129.125 C 142.855469 128.078125 144.480469 125.695312 144.996094 123.332031 C 145.257812 122.132812 145.175781 121.089844 144.78125 120.535156 L 123.035156 89.980469 C 122.859375 89.730469 122.601562 89.640625 122.324219 89.640625 Z M 146.175781 119.542969 C 148.101562 122.246094 145.726562 128.382812 141.902344 130.601562 C 145.726562 128.382812 148.101562 122.246094 146.175781 119.542969 Z M 94.300781 149.503906 C 92.410156 154.414062 94.816406 157.785156 98.640625 155.578125 C 94.816406 157.785156 92.410156 154.414062 94.300781 149.503906 C 94.304688 149.5 94.304688 149.496094 94.308594 149.488281 C 94.308594 149.496094 94.304688 149.5 94.300781 149.503906 Z M 124.425781 88.984375 C 123.460938 87.636719 121.785156 87.652344 120.113281 88.617188 C 120.109375 88.621094 120.109375 88.621094 120.109375 88.621094 C 120.109375 88.621094 120.109375 88.621094 120.113281 88.617188 C 121.785156 87.652344 123.460938 87.636719 124.425781 88.984375 C 124.425781 88.988281 124.429688 88.988281 124.429688 88.988281 C 124.429688 88.988281 124.425781 88.988281 124.425781 88.984375 Z M 121.597656 98.789062 C 120.011719 99.707031 118.726562 101.929688 118.730469 103.757812 L 118.789062 124.730469 C 118.796875 126.558594 120.085938 127.292969 121.675781 126.378906 C 123.265625 125.460938 124.550781 123.234375 124.546875 121.410156 L 124.488281 100.433594 C 124.480469 98.609375 123.1875 97.871094 121.597656 98.789062 Z M 118.816406 134.546875 C 118.824219 136.371094 120.117188 137.109375 121.707031 136.191406 C 123.296875 135.273438 124.578125 133.050781 124.574219 131.222656 C 124.570312 129.398438 123.277344 128.660156 121.6875 129.578125 C 120.097656 130.496094 118.8125 132.71875 118.816406 134.546875 Z M 285.824219 169.320312 L 295.132812 163.945312 C 295.75 163.59375 296.21875 163.128906 296.550781 162.554688 C 296.882812 161.980469 297.050781 161.339844 297.046875 160.632812 L 297 143.742188 C 296.996094 143.039062 296.828125 142.589844 296.492188 142.398438 C 296.160156 142.210938 295.6875 142.292969 295.074219 142.644531 L 285.765625 148.019531 C 284.46875 148.769531 283.820312 149.75 283.824219 150.957031 C 283.828125 152.1875 284.476562 152.425781 285.773438 151.675781 L 293.003906 147.5 L 293.019531 152.488281 L 286.316406 156.359375 C 285.019531 157.105469 284.371094 158.097656 284.375 159.324219 C 284.378906 160.535156 285.027344 160.765625 286.324219 160.015625 L 293.03125 156.144531 L 293.042969 161.492188 L 285.8125 165.667969 C 284.515625 166.414062 283.867188 167.40625 283.871094 168.632812 C 283.878906 169.84375 284.527344 170.070312 285.824219 169.320312 Z M 279.671875 173.058594 C 279.058594 173.410156 278.574219 173.480469 278.210938 173.265625 C 277.851562 173.046875 277.667969 172.578125 277.667969 171.851562 L 277.648438 165.75 L 275.519531 166.976562 C 275.011719 167.273438 274.59375 167.628906 274.257812 168.054688 C 273.925781 168.476562 273.613281 169.039062 273.316406 169.734375 L 269.863281 177.660156 C 269.652344 178.164062 269.390625 178.597656 269.074219 178.960938 C 268.761719 179.324219 268.4375 179.605469 268.105469 179.796875 C 267.578125 180.101562 267.117188 180.183594 266.722656 180.050781 C 266.324219 179.914062 266.128906 179.566406 266.125 179 C 266.125 178.578125 266.253906 178.070312 266.515625 177.472656 L 268.503906 172.875 C 268.890625 171.988281 269.289062 171.25 269.699219 170.65625 C 270.109375 170.066406 270.578125 169.5625 271.101562 169.136719 C 269.664062 169.621094 268.550781 169.550781 267.757812 168.917969 C 266.964844 168.285156 266.570312 167.152344 266.5625 165.519531 C 266.558594 163.445312 267.109375 161.539062 268.21875 159.800781 C 269.332031 158.058594 270.972656 156.5625 273.144531 155.304688 L 279.746094 151.496094 C 280.359375 151.140625 280.832031 151.058594 281.167969 151.25 C 281.5 151.441406 281.667969 151.886719 281.671875 152.59375 L 281.71875 169.515625 C 281.722656 170.238281 281.539062 170.917969 281.171875 171.554688 C 280.804688 172.191406 280.304688 172.691406 279.671875 173.058594 Z M 277.675781 156.292969 L 273.757812 158.554688 C 272.582031 159.230469 271.734375 159.957031 271.210938 160.722656 C 270.683594 161.488281 270.425781 162.386719 270.425781 163.414062 C 270.429688 164.421875 270.695312 165.007812 271.222656 165.179688 C 271.75 165.347656 272.601562 165.09375 273.777344 164.414062 L 277.691406 162.152344 Z M 263.546875 180.007812 C 263.550781 180.730469 263.367188 181.410156 263 182.046875 C 262.632812 182.683594 262.132812 183.183594 261.503906 183.546875 C 260.890625 183.902344 260.402344 183.96875 260.042969 183.753906 C 259.683594 183.539062 259.5 183.070312 259.496094 182.34375 L 259.480469 176.238281 L 257.351562 177.46875 C 256.84375 177.761719 256.421875 178.121094 256.089844 178.546875 C 255.757812 178.96875 255.445312 179.53125 255.148438 180.226562 L 251.691406 188.152344 C 251.484375 188.65625 251.222656 189.089844 250.90625 189.453125 C 250.589844 189.816406 250.265625 190.09375 249.933594 190.285156 C 249.40625 190.589844 248.949219 190.675781 248.550781 190.539062 C 248.15625 190.40625 247.960938 190.054688 247.957031 189.492188 C 247.957031 189.066406 248.085938 188.558594 248.347656 187.964844 L 250.335938 183.367188 C 250.722656 182.476562 251.117188 181.742188 251.527344 181.148438 C 251.941406 180.558594 252.40625 180.054688 252.933594 179.628906 C 251.496094 180.113281 250.378906 180.042969 249.589844 179.410156 C 248.796875 178.777344 248.398438 177.644531 248.394531 176.015625 C 248.386719 173.9375 248.9375 172.03125 250.050781 170.292969 C 251.160156 168.550781 252.800781 167.054688 254.976562 165.796875 L 261.574219 161.988281 C 262.1875 161.632812 262.664062 161.550781 262.996094 161.742188 C 263.332031 161.933594 263.5 162.378906 263.5 163.085938 Z M 259.503906 166.78125 L 255.585938 169.042969 C 254.414062 169.722656 253.5625 170.445312 253.039062 171.210938 C 252.515625 171.980469 252.253906 172.875 252.257812 173.902344 C 252.261719 174.910156 252.523438 175.5 253.050781 175.667969 C 253.578125 175.839844 254.429688 175.585938 255.605469 174.90625 L 259.523438 172.644531 Z M 241.792969 193.671875 C 240.433594 195.351562 238.835938 196.722656 236.996094 197.785156 C 235.152344 198.851562 233.554688 199.324219 232.191406 199.214844 C 230.832031 199.101562 229.78125 198.4375 229.039062 197.21875 C 228.300781 196.003906 227.925781 194.289062 227.917969 192.070312 C 227.914062 189.855469 228.273438 187.714844 229.007812 185.648438 C 229.738281 183.582031 230.78125 181.710938 232.136719 180.039062 C 233.496094 178.371094 235.09375 177.003906 236.933594 175.941406 C 238.773438 174.878906 240.375 174.398438 241.738281 174.5 C 243.097656 174.601562 244.148438 175.261719 244.890625 176.480469 C 245.628906 177.695312 246.003906 179.410156 246.011719 181.625 C 246.015625 183.84375 245.652344 185.984375 244.921875 188.050781 C 244.191406 190.117188 243.148438 191.992188 241.792969 193.671875 Z M 241.90625 183.996094 C 241.902344 181.636719 241.464844 180.089844 240.589844 179.351562 C 239.71875 178.617188 238.503906 178.695312 236.945312 179.597656 C 235.382812 180.5 234.167969 181.820312 233.292969 183.566406 C 232.421875 185.308594 231.988281 187.359375 231.992188 189.71875 C 232 192.074219 232.449219 193.621094 233.335938 194.359375 C 234.226562 195.097656 235.441406 195.023438 236.984375 194.132812 C 238.527344 193.238281 239.734375 191.917969 240.609375 190.164062 C 241.480469 188.40625 241.914062 186.351562 241.90625 183.996094 Z M 216.503906 188.007812 L 223.101562 184.199219 C 223.71875 183.84375 224.191406 183.761719 224.527344 183.949219 C 224.859375 184.144531 225.027344 184.589844 225.03125 185.296875 L 225.078125 202.214844 C 225.078125 202.941406 224.898438 203.621094 224.53125 204.257812 C 224.164062 204.890625 223.664062 205.394531 223.035156 205.757812 C 222.421875 206.113281 221.933594 206.179688 221.574219 205.964844 C 221.210938 205.75 221.03125 205.277344 221.027344 204.554688 L 221.011719 198.449219 L 218.882812 199.679688 C 218.375 199.972656 217.953125 200.332031 217.621094 200.757812 C 217.289062 201.179688 216.972656 201.738281 216.675781 202.4375 L 213.222656 210.359375 C 213.011719 210.867188 212.75 211.300781 212.4375 211.664062 C 212.121094 212.027344 211.796875 212.304688 211.464844 212.496094 C 210.9375 212.800781 210.476562 212.882812 210.082031 212.75 C 209.6875 212.617188 209.488281 212.265625 209.488281 211.703125 C 209.484375 211.277344 209.613281 210.769531 209.878906 210.175781 L 211.867188 205.574219 C 212.25 204.6875 212.648438 203.949219 213.058594 203.359375 C 213.46875 202.769531 213.9375 202.261719 214.460938 201.835938 C 213.023438 202.324219 211.910156 202.253906 211.117188 201.621094 C 210.324219 200.988281 209.929688 199.855469 209.921875 198.222656 C 209.917969 196.148438 210.46875 194.242188 211.578125 192.5 C 212.6875 190.761719 214.328125 189.265625 216.503906 188.007812 Z M 213.789062 196.113281 C 213.789062 197.121094 214.054688 197.710938 214.582031 197.878906 C 215.109375 198.050781 215.960938 197.796875 217.136719 197.117188 L 221.054688 194.855469 L 221.035156 188.992188 L 217.121094 191.253906 C 215.945312 191.933594 215.09375 192.65625 214.570312 193.421875 C 214.042969 194.191406 213.785156 195.085938 213.789062 196.113281 Z M 206.9375 214.308594 C 207.355469 213.570312 207.566406 212.832031 207.566406 212.085938 C 207.5625 211.339844 207.347656 210.84375 206.925781 210.59375 C 206.507812 210.339844 205.972656 210.402344 205.324219 210.777344 C 204.671875 211.152344 204.140625 211.707031 203.71875 212.445312 C 203.300781 213.179688 203.09375 213.921875 203.09375 214.664062 C 203.097656 215.414062 203.308594 215.910156 203.730469 216.160156 C 204.152344 216.410156 204.6875 216.351562 205.335938 215.976562 C 205.984375 215.601562 206.519531 215.042969 206.9375 214.308594 Z M 207.648438 195.84375 C 207.667969 195.734375 207.675781 195.585938 207.675781 195.40625 C 207.671875 194.660156 207.441406 194.199219 206.984375 194.019531 C 206.53125 193.835938 205.957031 193.945312 205.273438 194.339844 C 204.523438 194.773438 203.914062 195.386719 203.449219 196.183594 C 202.988281 196.972656 202.808594 197.78125 202.917969 198.605469 L 204.128906 208.46875 C 204.167969 208.914062 204.292969 209.191406 204.515625 209.308594 C 204.734375 209.421875 205.003906 209.386719 205.316406 209.207031 C 205.632812 209.023438 205.898438 208.75 206.117188 208.378906 C 206.335938 208.011719 206.46875 207.582031 206.523438 207.089844 Z M 207.648438 195.84375 " fill-opacity="1" fill-rule="nonzero"/></g></svg>